SplineFontDB: 3.0
FontName: Geneva-Medium-Italic
FullName: Geneva Medium Italic
FamilyName: Geneva
Weight: Medium
Copyright: Copyright 2011 Google Inc. All Rights Reserved.
Version: 2.001152; 2014
DefaultBaseFilename: Geneva-500-Italic
ItalicAngle: -12
UnderlinePosition: -200
UnderlineWidth: 100
Ascent: 1536
Descent: 512
InvalidEm: 0
sfntRevision: 0x00020000
LayerCount: 2
Layer: 0 1 "Back" 1
Layer: 1 1 "Fore" 0
XUID: [1021 805 -1179658985 9256260]
FSType: 0
OS2Version: 3
OS2_WeightWidthSlopeOnly: 0
OS2_UseTypoMetrics: 1
CreationTime: 1221222574
ModificationTime: 1431279932
PfmFamily: 17
TTFWeight: 500
TTFWidth: 5
LineGap: 0
VLineGap: 0
Panose: 2 0 0 0 0 0 0 0 0 0
OS2TypoAscent: 1536
OS2TypoAOffset: 0
OS2TypoDescent: -512
OS2TypoDOffset: 0
OS2TypoLinegap: 102
OS2WinAscent: 1946
OS2WinAOffset: 0
OS2WinDescent: 512
OS2WinDOffset: 0
HheadAscent: 1900
HheadAOffset: 0
HheadDescent: -500
HheadDOffset: 0
OS2SubXSize: 1434
OS2SubYSize: 1331
OS2SubXOff: 0
OS2SubYOff: 287
OS2SupXSize: 1434
OS2SupYSize: 1331
OS2SupXOff: 0
OS2SupYOff: 977
OS2StrikeYSize: 102
OS2StrikeYPos: 512
OS2CapHeight: 1456
OS2XHeight: 1082
OS2Vendor: 'GOOG'
OS2CodePages: 2000019f.00000000
OS2UnicodeRanges: e0000aff.5000217f.00000021.00000000
Lookup: 1 0 0 "'c2sc' Capitals to Small Capitals in Latin lookup 0" { "'c2sc' Capitals to Small Capitals in Latin lookup 0 subtable"  } ['c2sc' ('latn' <'AZE ' 'CRT ' 'MOL ' 'NAV ' 'ROM ' 'TUR ' 'dflt' > ) ]
Lookup: 1 0 0 "'c2sc' Capitals to Small Capitals lookup 1" { "'c2sc' Capitals to Small Capitals lookup 1 subtable"  } ['c2sc' ('DFLT' <'dflt' > ) ]
Lookup: 1 0 0 "'c2sc' Capitals to Small Capitals in Greek lookup 2" { "'c2sc' Capitals to Small Capitals in Greek lookup 2 subtable"  } ['c2sc' ('grek' <'dflt' > ) ]
Lookup: 1 0 0 "'c2sc' Capitals to Small Capitals in Cyrillic lookup 3" { "'c2sc' Capitals to Small Capitals in Cyrillic lookup 3 subtable"  } ['c2sc' ('cyrl' <'dflt' > ) ]

StartChar: .notdef
Encoding: 1114112 -1 0
Width: 918
Flags: W
LayerCount: 2
Back
Fore
SplineSet
808 0 m 1,0,-1
 100 0 l 1,1,-1
 100 1456 l 1,2,-1
 808 1456 l 1,3,-1
 808 0 l 1,0,-1
754 84 m 1,4,-1
 754 1371 l 1,5,-1
 480 728 l 1,6,-1
 754 84 l 1,4,-1
154 1359 m 1,7,-1
 154 96 l 1,8,-1
 422 728 l 1,9,-1
 154 1359 l 1,7,-1
194 54 m 1,10,-1
 709 54 l 1,11,-1
 451 660 l 1,12,-1
 194 54 l 1,10,-1
451 796 m 1,13,-1
 709 1402 l 1,14,-1
 194 1402 l 1,15,-1
 451 796 l 1,13,-1
EndSplineSet
EndChar

StartChar: exclam
Encoding: 33 33 5
Width: 543
Flags: W
LayerCount: 2
Back
Fore
SplineSet
342 429 m 1,0,-1
 138 429 l 1,1,-1
 294 1456 l 1,2,-1
 544 1456 l 1,3,-1
 342 429 l 1,0,-1
55 111 m 0,4,5
 55 170 55 170 92.5 208 c 128,-1,6
 130 246 130 246 188 248 c 0,7,8
 245 250 245 250 284 213 c 128,-1,9
 323 176 323 176 323 119 c 128,-1,10
 323 62 323 62 285.5 24.5 c 128,-1,11
 248 -13 248 -13 190 -15 c 0,12,13
 135 -17 135 -17 95 18.5 c 128,-1,14
 55 54 55 54 55 111 c 0,4,5
EndSplineSet
EndChar

StartChar: quotedbl
Encoding: 34 34 6
Width: 654
Flags: W
LayerCount: 2
Back
Fore
SplineSet
391 1388 m 1,0,-1
 299 1012 l 1,1,-1
 161 1012 l 1,2,-1
 244 1536 l 1,3,-1
 414 1536 l 1,4,-1
 391 1388 l 1,0,-1
683 1388 m 1,5,-1
 591 1012 l 1,6,-1
 453 1012 l 1,7,-1
 536 1536 l 1,8,-1
 706 1536 l 1,9,-1
 683 1388 l 1,5,-1
EndSplineSet
EndChar

StartChar: numbersign
Encoding: 35 35 7
Width: 1223
Flags: W
LayerCount: 2
Back
Fore
SplineSet
662 410 m 1,0,-1
 451 410 l 1,1,-1
 306 0 l 1,2,-1
 136 0 l 1,3,-1
 281 410 l 1,4,-1
 59 410 l 1,5,-1
 87 568 l 1,6,-1
 337 568 l 1,7,-1
 448 881 l 1,8,-1
 215 881 l 1,9,-1
 243 1040 l 1,10,-1
 504 1040 l 1,11,-1
 653 1456 l 1,12,-1
 822 1456 l 1,13,-1
 673 1040 l 1,14,-1
 885 1040 l 1,15,-1
 1033 1456 l 1,16,-1
 1202 1456 l 1,17,-1
 1054 1040 l 1,18,-1
 1253 1040 l 1,19,-1
 1225 881 l 1,20,-1
 997 881 l 1,21,-1
 887 568 l 1,22,-1
 1099 568 l 1,23,-1
 1071 410 l 1,24,-1
 830 410 l 1,25,-1
 685 0 l 1,26,-1
 516 0 l 1,27,-1
 662 410 l 1,0,-1
507 568 m 1,28,-1
 718 568 l 1,29,-1
 829 881 l 1,30,-1
 618 881 l 1,31,-1
 507 568 l 1,28,-1
EndSplineSet
EndChar

StartChar: dollar
Encoding: 36 36 8
Width: 1139
Flags: W
LayerCount: 2
Back
Fore
SplineSet
766 387 m 0,0,1
 775 463 775 463 734 519 c 0,2,3
 694 576 694 576 576 625 c 0,4,5
 517 650 517 650 470 675.5 c 128,-1,6
 423 701 423 701 387 729 c 0,7,8
 217 858 217 858 231 1065 c 0,9,10
 242 1235 242 1235 356 1343 c 0,11,12
 469 1452 469 1452 650 1473 c 1,13,-1
 690 1691 l 1,14,-1
 847 1691 l 1,15,-1
 806 1469 l 1,16,17
 955 1437 955 1437 1029 1317 c 0,18,19
 1105 1195 1105 1195 1095 1005 c 1,20,-1
 859 1005 l 1,21,22
 868 1133 868 1133 826 1203 c 128,-1,23
 784 1273 784 1273 696 1276 c 0,24,25
 603 1278 603 1278 541 1222.5 c 128,-1,26
 479 1167 479 1167 466 1068 c 0,27,28
 457 991 457 991 497 938 c 0,29,30
 537 884 537 884 653 833 c 0,31,32
 770 781 770 781 832 737 c 0,33,34
 1016 607 1016 607 1001 389 c 0,35,36
 990 216 990 216 871 109 c 0,37,38
 754 4 754 4 565 -16 c 1,39,-1
 529 -211 l 1,40,-1
 373 -211 l 1,41,-1
 410 -15 l 1,42,43
 243 10 243 10 154 132 c 0,44,45
 66 253 66 253 75 444 c 1,46,-1
 312 443 l 1,47,48
 305 315 305 315 355.5 248 c 128,-1,49
 406 181 406 181 505 179 c 0,50,51
 611 177 611 177 682 234 c 0,52,53
 755 292 755 292 766 387 c 0,0,1
EndSplineSet
Substitution2: "'c2sc' Capitals to Small Capitals in Cyrillic lookup 3 subtable" dollar.c2sc
Substitution2: "'c2sc' Capitals to Small Capitals in Greek lookup 2 subtable" dollar.c2sc
Substitution2: "'c2sc' Capitals to Small Capitals lookup 1 subtable" dollar.c2sc
Substitution2: "'c2sc' Capitals to Small Capitals in Latin lookup 0 subtable" dollar.c2sc
Position2: "'cpsp' Capital Spacing in Cyrillic lookup 3 subtable" dx=36 dy=0 dh=72 dv=0
Position2: "'cpsp' Capital Spacing in Greek lookup 2 subtable" dx=36 dy=0 dh=72 dv=0
Position2: "'cpsp' Capital Spacing lookup 1 subtable" dx=36 dy=0 dh=72 dv=0
Position2: "'cpsp' Capital Spacing in Latin lookup 0 subtable" dx=36 dy=0 dh=72 dv=0
EndChar

StartChar: percent
Encoding: 37 37 9
Width: 1469
Flags: W
LayerCount: 2
Back
Fore
SplineSet
527 1478 m 0,0,1
 658 1474 658 1474 731 1389 c 128,-1,2
 804 1304 804 1304 796 1176 c 2,3,-1
 790 1099 l 1,4,5
 775 962 775 962 682.5 879 c 128,-1,6
 590 796 590 796 460 800 c 0,7,8
 334 802 334 802 257.5 887 c 128,-1,9
 181 972 181 972 189 1099 c 2,10,-1
 196 1173 l 2,11,12
 209 1310 209 1310 300.5 1395 c 128,-1,13
 392 1480 392 1480 527 1478 c 0,0,1
356 1097 m 2,14,15
 349 1033 349 1033 377 989.5 c 128,-1,16
 405 946 405 946 463 944 c 0,17,18
 523 942 523 942 567 985.5 c 128,-1,19
 611 1029 611 1029 622 1099 c 2,20,-1
 631 1177 l 2,21,22
 638 1242 638 1242 610 1286 c 128,-1,23
 582 1330 582 1330 523 1332 c 0,24,25
 462 1334 462 1334 417 1287.5 c 128,-1,26
 372 1241 372 1241 364 1167 c 2,27,-1
 356 1097 l 2,14,15
1065 657 m 0,28,29
 1195 653 1195 653 1268.5 568 c 128,-1,30
 1342 483 1342 483 1334 357 c 2,31,-1
 1328 279 l 2,32,33
 1314 144 1314 144 1221 59.5 c 128,-1,34
 1128 -25 1128 -25 998 -21 c 0,35,36
 874 -19 874 -19 797 64 c 128,-1,37
 720 147 720 147 726 279 c 1,38,-1
 731 344 l 2,39,40
 742 486 742 486 834.5 572.5 c 128,-1,41
 927 659 927 659 1065 657 c 0,28,29
893 277 m 2,42,43
 888 208 888 208 917 166.5 c 128,-1,44
 946 125 946 125 1001 123 c 0,45,46
 1062 121 1062 121 1104.5 162.5 c 128,-1,47
 1147 204 1147 204 1159 279 c 2,48,-1
 1169 358 l 1,49,50
 1174 430 1174 430 1145 470 c 128,-1,51
 1116 510 1116 510 1061 512 c 0,52,53
 997 514 997 514 953 467.5 c 128,-1,54
 909 421 909 421 901 349 c 2,55,-1
 893 277 l 2,42,43
374 111 m 1,56,-1
 254 190 l 1,57,-1
 1133 1317 l 1,58,-1
 1253 1238 l 1,59,-1
 374 111 l 1,56,-1
EndSplineSet
EndChar

StartChar: ampersand
Encoding: 38 38 10
Width: 1280
Flags: W
LayerCount: 2
Back
Fore
SplineSet
56 385 m 0,0,1
 68 567 68 567 266 707 c 1,2,-1
 380 782 l 1,3,4
 319 894 319 894 299 964.5 c 128,-1,5
 279 1035 279 1035 283 1098 c 0,6,7
 295 1268 295 1268 409 1374 c 128,-1,8
 523 1480 523 1480 695 1476 c 0,9,10
 788 1473 788 1473 863 1432 c 128,-1,11
 938 1391 938 1391 978 1318.5 c 128,-1,12
 1018 1246 1018 1246 1013 1159 c 0,13,14
 1008 1069 1008 1069 955.5 990.5 c 128,-1,15
 903 912 903 912 785 830 c 2,16,-1
 664 750 l 1,17,-1
 878 426 l 1,18,19
 961 550 961 550 982 694 c 1,20,-1
 1185 695 l 1,21,22
 1161 423 1161 423 1001 250 c 1,23,-1
 1162 0 l 1,24,-1
 904 0 l 1,25,-1
 843 95 l 1,26,27
 667 -23 667 -23 468 -19 c 0,28,29
 281 -17 281 -17 163 94 c 128,-1,30
 45 205 45 205 56 385 c 0,0,1
484 175 m 0,31,32
 552 174 552 174 612 200 c 128,-1,33
 672 226 672 226 728 261 c 1,34,-1
 485 630 l 1,35,-1
 451 608 l 1,36,37
 314 512 314 512 297 393 c 0,38,39
 285 297 285 297 337 237 c 128,-1,40
 389 177 389 177 484 175 c 0,31,32
501 1105 m 0,41,42
 491 1036 491 1036 539 944 c 2,43,-1
 562 902 l 1,44,-1
 661 964 l 2,45,46
 790 1046 790 1046 802 1152 c 0,47,48
 808 1209 808 1209 772 1245.5 c 128,-1,49
 736 1282 736 1282 681 1282 c 0,50,51
 609 1282 609 1282 559 1229.5 c 128,-1,52
 509 1177 509 1177 501 1105 c 0,41,42
EndSplineSet
EndChar

StartChar: quotesingle
Encoding: 39 39 11
Width: 346
Flags: W
LayerCount: 2
Back
Fore
SplineSet
385 1399 m 1,0,-1
 301 1020 l 1,1,-1
 144 1020 l 1,2,-1
 225 1536 l 1,3,-1
 406 1536 l 1,4,-1
 385 1399 l 1,0,-1
EndSplineSet
EndChar

StartChar: parenleft
Encoding: 40 40 12
Width: 703
Flags: W
LayerCount: 2
Back
Fore
SplineSet
128 588 m 1,0,1
 181 953 181 953 348.5 1237.5 c 128,-1,2
 516 1522 516 1522 764 1632 c 1,3,-1
 800 1488 l 1,4,5
 458 1224 458 1224 356 660 c 0,6,7
 319 454 319 454 318 263 c 0,8,9
 316 60 316 60 366 -91.5 c 128,-1,10
 416 -243 416 -243 514 -330 c 1,11,-1
 458 -463 l 1,12,13
 287 -357 287 -357 195.5 -133 c 128,-1,14
 104 91 104 91 112 389 c 0,15,16
 114 485 114 485 126 571 c 2,17,-1
 128 588 l 1,0,1
EndSplineSet
EndChar

StartChar: parenright
Encoding: 41 41 13
Width: 710
Flags: W
LayerCount: 2
Back
Fore
SplineSet
-71 -465 m 1,0,-1
 -108 -327 l 1,1,2
 104 -162 104 -162 224 117.5 c 128,-1,3
 344 397 344 397 370 780 c 1,4,-1
 374 904 l 1,5,6
 374 1325 374 1325 178 1497 c 1,7,-1
 235 1631 l 1,8,9
 350 1561 350 1561 431.5 1434.5 c 128,-1,10
 513 1308 513 1308 552.5 1134 c 128,-1,11
 592 960 592 960 588 779 c 0,12,13
 579 500 579 500 489.5 238.5 c 128,-1,14
 400 -23 400 -23 255 -203.5 c 128,-1,15
 110 -384 110 -384 -71 -465 c 1,0,-1
EndSplineSet
EndChar

StartChar: asterisk
Encoding: 42 42 14
Width: 888
Flags: W
LayerCount: 2
Back
Fore
SplineSet
383 977 m 1,0,-1
 103 1065 l 1,1,-1
 182 1226 l 1,2,-1
 461 1107 l 1,3,-1
 506 1456 l 1,4,-1
 682 1456 l 1,5,-1
 607 1112 l 1,6,-1
 909 1224 l 1,7,-1
 933 1044 l 1,8,-1
 614 956 l 1,9,-1
 765 685 l 1,10,-1
 616 587 l 1,11,-1
 492 876 l 1,12,-1
 272 600 l 1,13,-1
 138 710 l 1,14,-1
 383 977 l 1,0,-1
EndSplineSet
EndChar

StartChar: plus
Encoding: 43 43 15
Width: 1117
Flags: W
LayerCount: 2
Back
Fore
SplineSet
701 801 m 1,0,-1
 1070 801 l 1,1,-1
 1031 579 l 1,2,-1
 663 579 l 1,3,-1
 588 146 l 1,4,-1
 357 146 l 1,5,-1
 433 579 l 1,6,-1
 61 579 l 1,7,-1
 101 801 l 1,8,-1
 471 801 l 1,9,-1
 541 1206 l 1,10,-1
 772 1206 l 1,11,-1
 701 801 l 1,0,-1
EndSplineSet
EndChar

StartChar: comma
Encoding: 44 44 16
Width: 447
Flags: W
LayerCount: 2
Back
Fore
SplineSet
8 -328 m 1,0,-1
 -119 -248 l 1,1,2
 -1 -90 -1 -90 26 29 c 1,3,-1
 63 235 l 1,4,-1
 276 235 l 1,5,-1
 250 74 l 2,6,7
 210 -173 210 -173 8 -328 c 1,0,-1
EndSplineSet
EndChar

StartChar: hyphen
Encoding: 45 45 17
Width: 662
Flags: W
LayerCount: 2
Back
Fore
SplineSet
565 521 m 1,0,-1
 54 521 l 1,1,-1
 89 717 l 1,2,-1
 600 717 l 1,3,-1
 565 521 l 1,0,-1
EndSplineSet
EndChar

StartChar: period
Encoding: 46 46 18
Width: 565
Flags: W
LayerCount: 2
Back
Fore
SplineSet
48 117 m 0,0,1
 48 178 48 178 86.5 216.5 c 128,-1,2
 125 255 125 255 185 257 c 0,3,4
 244 259 244 259 283.5 221.5 c 128,-1,5
 323 184 323 184 323 125 c 0,6,7
 323 67 323 67 285 28.5 c 128,-1,8
 247 -10 247 -10 186 -12 c 0,9,10
 127 -14 127 -14 87.5 23 c 128,-1,11
 48 60 48 60 48 117 c 0,0,1
EndSplineSet
EndChar

StartChar: slash
Encoding: 47 47 19
Width: 796
Flags: W
LayerCount: 2
Back
Fore
SplineSet
67 -125 m 1,0,-1
 -129 -125 l 1,1,-1
 701 1456 l 1,2,-1
 898 1456 l 1,3,-1
 67 -125 l 1,0,-1
EndSplineSet
Substitution2: "'frac' Diagonal Fractions lookup 63 subtable" fraction
EndChar

StartChar: zero
Encoding: 48 48 20
Width: 1139
Flags: W
LayerCount: 2
Back
Fore
SplineSet
479 -20 m 0,0,1
 290 -16 290 -16 193 110.5 c 128,-1,2
 96 237 96 237 99 465 c 0,3,4
 100 539 100 539 109 613 c 2,5,-1
 148 873 l 2,6,7
 197 1179 197 1179 337 1330 c 128,-1,8
 477 1481 477 1481 699 1476 c 0,9,10
 887 1472 887 1472 984.5 1348 c 128,-1,11
 1082 1224 1082 1224 1079 996 c 0,12,13
 1078 921 1078 921 1069 848 c 2,14,-1
 1030 595 l 2,15,16
 979 282 979 282 840.5 128.5 c 128,-1,17
 702 -25 702 -25 479 -20 c 0,0,1
838 887 m 1,18,19
 851 1001 851 1001 851 1049 c 0,20,21
 846 1275 846 1275 686 1282 c 0,22,23
 564 1287 564 1287 490 1193 c 128,-1,24
 416 1099 416 1099 386 894 c 2,25,-1
 340 577 l 2,26,27
 328 474 328 474 329 414 c 0,28,29
 329 180 329 180 493 173 c 0,30,31
 719 160 719 160 784 526 c 1,32,-1
 838 887 l 1,18,19
EndSplineSet
Substitution2: "Single Substitution lookup 74 subtable" zero.dnom
Substitution2: "'numr' Numerators in Cyrillic lookup 73 subtable" zero.frac
Substitution2: "'numr' Numerators in Greek lookup 72 subtable" zero.frac
Substitution2: "'numr' Numerators lookup 71 subtable" zero.frac
Substitution2: "'numr' Numerators in Latin lookup 70 subtable" zero.frac
Substitution2: "'dnom' Denominators in Cyrillic lookup 69 subtable" zero.dnom
Substitution2: "'dnom' Denominators in Greek lookup 68 subtable" zero.dnom
Substitution2: "'dnom' Denominators lookup 67 subtable" zero.dnom
Substitution2: "'dnom' Denominators in Latin lookup 66 subtable" zero.dnom
Substitution2: "'frac' Diagonal Fractions lookup 65 subtable" zero.frac
Substitution2: "'pnum' Proportional Numbers in Cyrillic lookup 58 subtable" zero.pnum
Substitution2: "'pnum' Proportional Numbers in Greek lookup 57 subtable" zero.pnum
Substitution2: "'pnum' Proportional Numbers lookup 56 subtable" zero.pnum
Substitution2: "'pnum' Proportional Numbers in Latin lookup 55 subtable" zero.pnum
Substitution2: "'onum' Oldstyle Figures in Cyrillic lookup 50 subtable" zero.oldstyle
Substitution2: "'onum' Oldstyle Figures in Greek lookup 49 subtable" zero.oldstyle
Substitution2: "'onum' Oldstyle Figures lookup 48 subtable" zero.oldstyle
Substitution2: "'onum' Oldstyle Figures in Latin lookup 47 subtable" zero.oldstyle
EndChar

StartChar: one
Encoding: 49 49 21
Width: 1139
Flags: W
LayerCount: 2
Back
Fore
SplineSet
641 0 m 1,0,-1
 405 0 l 1,1,-1
 607 1164 l 1,2,-1
 239 1042 l 1,3,-1
 276 1257 l 1,4,-1
 852 1461 l 1,5,-1
 888 1461 l 1,6,-1
 641 0 l 1,0,-1
EndSplineSet
Substitution2: "Single Substitution lookup 74 subtable" one.dnom
Substitution2: "'numr' Numerators in Cyrillic lookup 73 subtable" uni00B9
Substitution2: "'numr' Numerators in Greek lookup 72 subtable" uni00B9
Substitution2: "'numr' Numerators lookup 71 subtable" uni00B9
Substitution2: "'numr' Numerators in Latin lookup 70 subtable" uni00B9
Substitution2: "'dnom' Denominators in Cyrillic lookup 69 subtable" one.dnom
Substitution2: "'dnom' Denominators in Greek lookup 68 subtable" one.dnom
Substitution2: "'dnom' Denominators lookup 67 subtable" one.dnom
Substitution2: "'dnom' Denominators in Latin lookup 66 subtable" one.dnom
Substitution2: "'frac' Diagonal Fractions lookup 65 subtable" uni00B9
Substitution2: "'pnum' Proportional Numbers in Cyrillic lookup 58 subtable" one.pnum
Substitution2: "'pnum' Proportional Numbers in Greek lookup 57 subtable" one.pnum
Substitution2: "'pnum' Proportional Numbers lookup 56 subtable" one.pnum
Substitution2: "'pnum' Proportional Numbers in Latin lookup 55 subtable" one.pnum
Substitution2: "'onum' Oldstyle Figures in Cyrillic lookup 50 subtable" one.oldstyle
Substitution2: "'onum' Oldstyle Figures in Greek lookup 49 subtable" one.oldstyle
Substitution2: "'onum' Oldstyle Figures lookup 48 subtable" one.oldstyle
Substitution2: "'onum' Oldstyle Figures in Latin lookup 47 subtable" one.oldstyle
EndChar

StartChar: two
Encoding: 50 50 22
Width: 1139
Flags: W
LayerCount: 2
Back
Fore
SplineSet
962 0 m 1,0,-1
 11 0 l 1,1,-1
 39 177 l 1,2,-1
 644 758 l 2,3,4
 813 923 813 923 830 1057 c 0,5,6
 843 1152 843 1152 798 1215.5 c 128,-1,7
 753 1279 753 1279 663 1283 c 0,8,9
 552 1287 552 1287 476 1213.5 c 128,-1,10
 400 1140 400 1140 384 1013 c 1,11,-1
 148 1012 l 1,12,13
 158 1146 158 1146 229.5 1253 c 128,-1,14
 301 1360 301 1360 419.5 1419.5 c 128,-1,15
 538 1479 538 1479 676 1476 c 0,16,17
 866 1472 866 1472 976.5 1366 c 128,-1,18
 1087 1260 1087 1260 1074 1082 c 0,19,20
 1057 878 1057 878 829 651 c 2,21,-1
 767 590 l 1,22,-1
 346 194 l 1,23,-1
 993 194 l 1,24,-1
 962 0 l 1,0,-1
EndSplineSet
Substitution2: "Single Substitution lookup 74 subtable" two.dnom
Substitution2: "'numr' Numerators in Cyrillic lookup 73 subtable" uni00B2
Substitution2: "'numr' Numerators in Greek lookup 72 subtable" uni00B2
Substitution2: "'numr' Numerators lookup 71 subtable" uni00B2
Substitution2: "'numr' Numerators in Latin lookup 70 subtable" uni00B2
Substitution2: "'dnom' Denominators in Cyrillic lookup 69 subtable" two.dnom
Substitution2: "'dnom' Denominators in Greek lookup 68 subtable" two.dnom
Substitution2: "'dnom' Denominators lookup 67 subtable" two.dnom
Substitution2: "'dnom' Denominators in Latin lookup 66 subtable" two.dnom
Substitution2: "'frac' Diagonal Fractions lookup 65 subtable" uni00B2
Substitution2: "'pnum' Proportional Numbers in Cyrillic lookup 58 subtable" two.pnum
Substitution2: "'pnum' Proportional Numbers in Greek lookup 57 subtable" two.pnum
Substitution2: "'pnum' Proportional Numbers lookup 56 subtable" two.pnum
Substitution2: "'pnum' Proportional Numbers in Latin lookup 55 subtable" two.pnum
Substitution2: "'onum' Oldstyle Figures in Cyrillic lookup 50 subtable" two.oldstyle
Substitution2: "'onum' Oldstyle Figures in Greek lookup 49 subtable" two.oldstyle
Substitution2: "'onum' Oldstyle Figures lookup 48 subtable" two.oldstyle
Substitution2: "'onum' Oldstyle Figures in Latin lookup 47 subtable" two.oldstyle
EndChar

StartChar: three
Encoding: 51 51 23
Width: 1139
Flags: W
LayerCount: 2
Back
Fore
SplineSet
416 839 m 1,0,-1
 545 838 l 2,1,2
 662 838 662 838 740 901 c 128,-1,3
 818 964 818 964 829 1069 c 0,4,5
 840 1168 840 1168 793 1224.5 c 128,-1,6
 746 1281 746 1281 653 1283 c 0,7,8
 559 1285 559 1285 490 1228 c 128,-1,9
 421 1171 421 1171 407 1078 c 1,10,-1
 170 1077 l 1,11,12
 179 1194 179 1194 247 1286 c 128,-1,13
 315 1378 315 1378 424.5 1427.5 c 128,-1,14
 534 1477 534 1477 661 1476 c 0,15,16
 856 1472 856 1472 968.5 1362.5 c 128,-1,17
 1081 1253 1081 1253 1068 1069 c 0,18,19
 1061 969 1061 969 994 885.5 c 128,-1,20
 927 802 927 802 800 742 c 1,21,22
 973 662 973 662 984 464 c 1,23,-1
 984 416 l 1,24,25
 971 220 971 220 823.5 98 c 128,-1,26
 676 -24 676 -24 462 -20 c 0,27,28
 339 -19 339 -19 241 32.5 c 128,-1,29
 143 84 143 84 90.5 177.5 c 128,-1,30
 38 271 38 271 42 391 c 1,31,-1
 278 390 l 1,32,33
 274 294 274 294 325.5 235.5 c 128,-1,34
 377 177 377 177 476 174 c 0,35,36
 585 170 585 170 661.5 238 c 128,-1,37
 738 306 738 306 750 416 c 0,38,39
 762 527 762 527 704.5 585 c 128,-1,40
 647 643 647 643 539 646 c 2,41,-1
 386 647 l 1,42,-1
 416 839 l 1,0,-1
EndSplineSet
Substitution2: "Single Substitution lookup 74 subtable" three.dnom
Substitution2: "'numr' Numerators in Cyrillic lookup 73 subtable" uni00B3
Substitution2: "'numr' Numerators in Greek lookup 72 subtable" uni00B3
Substitution2: "'numr' Numerators lookup 71 subtable" uni00B3
Substitution2: "'numr' Numerators in Latin lookup 70 subtable" uni00B3
Substitution2: "'dnom' Denominators in Cyrillic lookup 69 subtable" three.dnom
Substitution2: "'dnom' Denominators in Greek lookup 68 subtable" three.dnom
Substitution2: "'dnom' Denominators lookup 67 subtable" three.dnom
Substitution2: "'dnom' Denominators in Latin lookup 66 subtable" three.dnom
Substitution2: "'frac' Diagonal Fractions lookup 65 subtable" uni00B3
Substitution2: "'pnum' Proportional Numbers in Cyrillic lookup 58 subtable" three.pnum
Substitution2: "'pnum' Proportional Numbers in Greek lookup 57 subtable" three.pnum
Substitution2: "'pnum' Proportional Numbers lookup 56 subtable" three.pnum
Substitution2: "'pnum' Proportional Numbers in Latin lookup 55 subtable" three.pnum
Substitution2: "'onum' Oldstyle Figures in Cyrillic lookup 50 subtable" three.oldstyle
Substitution2: "'onum' Oldstyle Figures in Greek lookup 49 subtable" three.oldstyle
Substitution2: "'onum' Oldstyle Figures lookup 48 subtable" three.oldstyle
Substitution2: "'onum' Oldstyle Figures in Latin lookup 47 subtable" three.oldstyle
EndChar

StartChar: four
Encoding: 52 52 24
Width: 1139
Flags: W
LayerCount: 2
Back
Fore
SplineSet
890 519 m 1,0,-1
 1066 519 l 1,1,-1
 1032 324 l 1,2,-1
 857 324 l 1,3,-1
 800 0 l 1,4,-1
 563 0 l 1,5,-1
 619 324 l 1,6,-1
 9 324 l 1,7,-1
 30 484 l 1,8,-1
 800 1456 l 1,9,-1
 1053 1456 l 1,10,-1
 890 519 l 1,0,-1
292 519 m 1,11,-1
 653 519 l 1,12,-1
 766 1130 l 1,13,-1
 742 1096 l 1,14,-1
 292 519 l 1,11,-1
EndSplineSet
Substitution2: "Single Substitution lookup 74 subtable" four.dnom
Substitution2: "'numr' Numerators in Cyrillic lookup 73 subtable" four.frac
Substitution2: "'numr' Numerators in Greek lookup 72 subtable" four.frac
Substitution2: "'numr' Numerators lookup 71 subtable" four.frac
Substitution2: "'numr' Numerators in Latin lookup 70 subtable" four.frac
Substitution2: "'dnom' Denominators in Cyrillic lookup 69 subtable" four.dnom
Substitution2: "'dnom' Denominators in Greek lookup 68 subtable" four.dnom
Substitution2: "'dnom' Denominators lookup 67 subtable" four.dnom
Substitution2: "'dnom' Denominators in Latin lookup 66 subtable" four.dnom
Substitution2: "'frac' Diagonal Fractions lookup 65 subtable" four.frac
Substitution2: "'pnum' Proportional Numbers in Cyrillic lookup 58 subtable" four.pnum
Substitution2: "'pnum' Proportional Numbers in Greek lookup 57 subtable" four.pnum
Substitution2: "'pnum' Proportional Numbers lookup 56 subtable" four.pnum
Substitution2: "'pnum' Proportional Numbers in Latin lookup 55 subtable" four.pnum
Substitution2: "'onum' Oldstyle Figures in Cyrillic lookup 50 subtable" four.oldstyle
Substitution2: "'onum' Oldstyle Figures in Greek lookup 49 subtable" four.oldstyle
Substitution2: "'onum' Oldstyle Figures lookup 48 subtable" four.oldstyle
Substitution2: "'onum' Oldstyle Figures in Latin lookup 47 subtable" four.oldstyle
EndChar

StartChar: five
Encoding: 53 53 25
Width: 1139
Flags: W
LayerCount: 2
Back
Fore
SplineSet
186 725 m 1,0,-1
 377 1456 l 1,1,-1
 1139 1456 l 1,2,-1
 1106 1246 l 1,3,-1
 545 1246 l 1,4,-1
 442 897 l 1,5,6
 544 955 544 955 664 955 c 0,7,8
 849 953 849 953 948.5 819 c 128,-1,9
 1048 685 1048 685 1030 472 c 0,10,11
 1012 253 1012 253 866 114 c 128,-1,12
 720 -25 720 -25 505 -21 c 0,13,14
 323 -17 323 -17 209.5 96 c 128,-1,15
 96 209 96 209 90 394 c 1,16,-1
 317 394 l 1,17,18
 324 292 324 292 374.5 234.5 c 128,-1,19
 425 177 425 177 516 175 c 0,20,21
 627 172 627 172 702.5 256 c 128,-1,22
 778 340 778 340 793 480 c 0,23,24
 805 604 805 604 752 680.5 c 128,-1,25
 699 757 699 757 594 759 c 0,26,27
 530 761 530 761 479.5 738.5 c 128,-1,28
 429 716 429 716 381 676 c 1,29,-1
 186 725 l 1,0,-1
EndSplineSet
Substitution2: "Single Substitution lookup 74 subtable" five.dnom
Substitution2: "'numr' Numerators in Cyrillic lookup 73 subtable" five.frac
Substitution2: "'numr' Numerators in Greek lookup 72 subtable" five.frac
Substitution2: "'numr' Numerators lookup 71 subtable" five.frac
Substitution2: "'numr' Numerators in Latin lookup 70 subtable" five.frac
Substitution2: "'dnom' Denominators in Cyrillic lookup 69 subtable" five.dnom
Substitution2: "'dnom' Denominators in Greek lookup 68 subtable" five.dnom
Substitution2: "'dnom' Denominators lookup 67 subtable" five.dnom
Substitution2: "'dnom' Denominators in Latin lookup 66 subtable" five.dnom
Substitution2: "'frac' Diagonal Fractions lookup 65 subtable" five.frac
Substitution2: "'pnum' Proportional Numbers in Cyrillic lookup 58 subtable" five.pnum
Substitution2: "'pnum' Proportional Numbers in Greek lookup 57 subtable" five.pnum
Substitution2: "'pnum' Proportional Numbers lookup 56 subtable" five.pnum
Substitution2: "'pnum' Proportional Numbers in Latin lookup 55 subtable" five.pnum
Substitution2: "'onum' Oldstyle Figures in Cyrillic lookup 50 subtable" five.oldstyle
Substitution2: "'onum' Oldstyle Figures in Greek lookup 49 subtable" five.oldstyle
Substitution2: "'onum' Oldstyle Figures lookup 48 subtable" five.oldstyle
Substitution2: "'onum' Oldstyle Figures in Latin lookup 47 subtable" five.oldstyle
EndChar

StartChar: six
Encoding: 54 54 26
Width: 1139
Flags: W
LayerCount: 2
Back
Fore
SplineSet
972 1464 m 1,0,-1
 952 1262 l 1,1,-1
 939 1263 l 1,2,3
 747 1265 747 1265 606 1159.5 c 128,-1,4
 465 1054 465 1054 385 840 c 1,5,6
 517 968 517 968 686 964 c 0,7,8
 803 962 803 962 885 898.5 c 128,-1,9
 967 835 967 835 1005 724.5 c 128,-1,10
 1043 614 1043 614 1031 484 c 0,11,12
 1019 342 1019 342 948 223.5 c 128,-1,13
 877 105 877 105 762.5 40.5 c 128,-1,14
 648 -24 648 -24 512 -21 c 0,15,16
 339 -17 339 -17 231 102 c 128,-1,17
 123 221 123 221 108 415 c 0,18,19
 99 522 99 522 131 701 c 0,20,21
 196 1058 196 1058 408.5 1261 c 128,-1,22
 621 1464 621 1464 949 1464 c 2,23,-1
 972 1464 l 1,0,-1
617 769 m 0,24,25
 537 771 537 771 467 726.5 c 128,-1,26
 397 682 397 682 349 600 c 1,27,28
 338 499 338 499 339 456 c 0,29,30
 339 328 339 328 386 253 c 128,-1,31
 433 178 433 178 521 176 c 0,32,33
 629 173 629 173 704.5 257 c 128,-1,34
 780 341 780 341 795 477 c 0,35,36
 808 604 808 604 760 685 c 128,-1,37
 712 766 712 766 617 769 c 0,24,25
EndSplineSet
Substitution2: "Single Substitution lookup 74 subtable" six.dnom
Substitution2: "'numr' Numerators in Cyrillic lookup 73 subtable" six.frac
Substitution2: "'numr' Numerators in Greek lookup 72 subtable" six.frac
Substitution2: "'numr' Numerators lookup 71 subtable" six.frac
Substitution2: "'numr' Numerators in Latin lookup 70 subtable" six.frac
Substitution2: "'dnom' Denominators in Cyrillic lookup 69 subtable" six.dnom
Substitution2: "'dnom' Denominators in Greek lookup 68 subtable" six.dnom
Substitution2: "'dnom' Denominators lookup 67 subtable" six.dnom
Substitution2: "'dnom' Denominators in Latin lookup 66 subtable" six.dnom
Substitution2: "'frac' Diagonal Fractions lookup 65 subtable" six.frac
EndChar

StartChar: seven
Encoding: 55 55 27
Width: 1139
Flags: W
LayerCount: 2
Back
Fore
SplineSet
1157 1309 m 1,0,-1
 393 0 l 1,1,-1
 134 0 l 1,2,-1
 895 1261 l 1,3,-1
 169 1261 l 1,4,-1
 200 1456 l 1,5,-1
 1180 1456 l 1,6,-1
 1157 1309 l 1,0,-1
EndSplineSet
Substitution2: "Single Substitution lookup 74 subtable" seven.dnom
Substitution2: "'numr' Numerators in Cyrillic lookup 73 subtable" seven.frac
Substitution2: "'numr' Numerators in Greek lookup 72 subtable" seven.frac
Substitution2: "'numr' Numerators lookup 71 subtable" seven.frac
Substitution2: "'numr' Numerators in Latin lookup 70 subtable" seven.frac
Substitution2: "'dnom' Denominators in Cyrillic lookup 69 subtable" seven.dnom
Substitution2: "'dnom' Denominators in Greek lookup 68 subtable" seven.dnom
Substitution2: "'dnom' Denominators lookup 67 subtable" seven.dnom
Substitution2: "'dnom' Denominators in Latin lookup 66 subtable" seven.dnom
Substitution2: "'frac' Diagonal Fractions lookup 65 subtable" seven.frac
Substitution2: "'pnum' Proportional Numbers in Cyrillic lookup 58 subtable" seven.pnum
Substitution2: "'pnum' Proportional Numbers in Greek lookup 57 subtable" seven.pnum
Substitution2: "'pnum' Proportional Numbers lookup 56 subtable" seven.pnum
Substitution2: "'pnum' Proportional Numbers in Latin lookup 55 subtable" seven.pnum
Substitution2: "'onum' Oldstyle Figures in Cyrillic lookup 50 subtable" seven.oldstyle
Substitution2: "'onum' Oldstyle Figures in Greek lookup 49 subtable" seven.oldstyle
Substitution2: "'onum' Oldstyle Figures lookup 48 subtable" seven.oldstyle
Substitution2: "'onum' Oldstyle Figures in Latin lookup 47 subtable" seven.oldstyle
EndChar

StartChar: eight
Encoding: 56 56 28
Width: 1139
Flags: W
LayerCount: 2
Back
Fore
SplineSet
1084 1080 m 0,0,1
 1066 863 1066 863 828 744 c 1,2,3
 917 687 917 687 960.5 599 c 128,-1,4
 1004 511 1004 511 996 405 c 0,5,6
 983 213 983 213 839 94.5 c 128,-1,7
 695 -24 695 -24 482 -20 c 0,8,9
 288 -16 288 -16 173.5 95.5 c 128,-1,10
 59 207 59 207 72 388 c 0,11,12
 90 631 90 631 363 756 c 1,13,14
 288 810 288 810 252 890.5 c 128,-1,15
 216 971 216 971 222 1063 c 0,16,17
 236 1251 236 1251 370 1365.5 c 128,-1,18
 504 1480 504 1480 703 1476 c 0,19,20
 822 1473 822 1473 912.5 1423 c 128,-1,21
 1003 1373 1003 1373 1048 1283 c 128,-1,22
 1093 1193 1093 1193 1084 1080 c 0,0,1
762 417 m 0,23,24
 773 518 773 518 723 583.5 c 128,-1,25
 673 649 673 649 579 651 c 0,26,27
 473 653 473 653 398 581.5 c 128,-1,28
 323 510 323 510 311 401 c 0,29,30
 300 298 300 298 351 236.5 c 128,-1,31
 402 175 402 175 495 173 c 0,32,33
 603 171 603 171 676.5 240 c 128,-1,34
 750 309 750 309 762 417 c 0,23,24
846 1072 m 0,35,36
 855 1162 855 1162 812.5 1221 c 128,-1,37
 770 1280 770 1280 687 1282 c 0,38,39
 596 1284 596 1284 531.5 1220 c 128,-1,40
 467 1156 467 1156 456 1054 c 0,41,42
 447 960 447 960 490 903 c 128,-1,43
 533 846 533 846 614 844 c 0,44,45
 706 842 706 842 770.5 907 c 128,-1,46
 835 972 835 972 846 1072 c 0,35,36
EndSplineSet
Substitution2: "Single Substitution lookup 74 subtable" eight.dnom
Substitution2: "'numr' Numerators in Cyrillic lookup 73 subtable" eight.frac
Substitution2: "'numr' Numerators in Greek lookup 72 subtable" eight.frac
Substitution2: "'numr' Numerators lookup 71 subtable" eight.frac
Substitution2: "'numr' Numerators in Latin lookup 70 subtable" eight.frac
Substitution2: "'dnom' Denominators in Cyrillic lookup 69 subtable" eight.dnom
Substitution2: "'dnom' Denominators in Greek lookup 68 subtable" eight.dnom
Substitution2: "'dnom' Denominators lookup 67 subtable" eight.dnom
Substitution2: "'dnom' Denominators in Latin lookup 66 subtable" eight.dnom
Substitution2: "'frac' Diagonal Fractions lookup 65 subtable" eight.frac
EndChar

StartChar: nine
Encoding: 57 57 29
Width: 1139
Flags: W
LayerCount: 2
Back
Fore
SplineSet
247 194 m 1,0,1
 459 192 459 192 592 296.5 c 128,-1,2
 725 401 725 401 791 610 c 1,3,4
 655 478 655 478 503 480 c 0,5,6
 390 482 390 482 307 541.5 c 128,-1,7
 224 601 224 601 183 713 c 128,-1,8
 142 825 142 825 154 961 c 0,9,10
 167 1106 167 1106 238.5 1227 c 128,-1,11
 310 1348 310 1348 424 1414 c 128,-1,12
 538 1480 538 1480 673 1476 c 0,13,14
 790 1473 790 1473 876.5 1416.5 c 128,-1,15
 963 1360 963 1360 1011 1255.5 c 128,-1,16
 1059 1151 1059 1151 1066 1022 c 0,17,18
 1071 915 1071 915 1043 755 c 0,19,20
 979 385 979 385 769 189 c 128,-1,21
 559 -7 559 -7 235 -7 c 2,22,-1
 213 -7 l 1,23,-1
 232 195 l 1,24,-1
 247 194 l 1,0,1
562 669 m 0,25,26
 636 667 636 667 702 709.5 c 128,-1,27
 768 752 768 752 816 827 c 1,28,-1
 829 924 l 1,29,-1
 833 994 l 1,30,31
 836 1124 836 1124 792 1200.5 c 128,-1,32
 748 1277 748 1277 660 1281 c 0,33,34
 535 1285 535 1285 455 1161 c 128,-1,35
 375 1037 375 1037 390 869 c 0,36,37
 397 780 397 780 442 726 c 128,-1,38
 487 672 487 672 562 669 c 0,25,26
EndSplineSet
Substitution2: "Single Substitution lookup 74 subtable" nine.dnom
Substitution2: "'numr' Numerators in Cyrillic lookup 73 subtable" nine.frac
Substitution2: "'numr' Numerators in Greek lookup 72 subtable" nine.frac
Substitution2: "'numr' Numerators lookup 71 subtable" nine.frac
Substitution2: "'numr' Numerators in Latin lookup 70 subtable" nine.frac
Substitution2: "'dnom' Denominators in Cyrillic lookup 69 subtable" nine.dnom
Substitution2: "'dnom' Denominators in Greek lookup 68 subtable" nine.dnom
Substitution2: "'dnom' Denominators lookup 67 subtable" nine.dnom
Substitution2: "'dnom' Denominators in Latin lookup 66 subtable" nine.dnom
Substitution2: "'frac' Diagonal Fractions lookup 65 subtable" nine.frac
Substitution2: "'pnum' Proportional Numbers in Cyrillic lookup 58 subtable" nine.pnum
Substitution2: "'pnum' Proportional Numbers in Greek lookup 57 subtable" nine.pnum
Substitution2: "'pnum' Proportional Numbers lookup 56 subtable" nine.pnum
Substitution2: "'pnum' Proportional Numbers in Latin lookup 55 subtable" nine.pnum
Substitution2: "'onum' Oldstyle Figures in Cyrillic lookup 50 subtable" nine.oldstyle
Substitution2: "'onum' Oldstyle Figures in Greek lookup 49 subtable" nine.oldstyle
Substitution2: "'onum' Oldstyle Figures lookup 48 subtable" nine.oldstyle
Substitution2: "'onum' Oldstyle Figures in Latin lookup 47 subtable" nine.oldstyle
EndChar

StartChar: less
Encoding: 60 60 32
Width: 1020
Flags: W
LayerCount: 2
Back
Fore
SplineSet
306 626 m 1,0,-1
 840 402 l 1,1,-1
 799 170 l 1,2,-1
 50 543 l 1,3,-1
 84 736 l 1,4,-1
 963 1108 l 1,5,-1
 918 854 l 1,6,-1
 306 626 l 1,0,-1
EndSplineSet
EndChar

StartChar: equal
Encoding: 61 61 33
Width: 1122
Flags: W
LayerCount: 2
Back
Fore
SplineSet
1009 780 m 1,0,-1
 171 780 l 1,1,-1
 207 982 l 1,2,-1
 1044 982 l 1,3,-1
 1009 780 l 1,0,-1
935 356 m 1,4,-1
 98 356 l 1,5,-1
 133 557 l 1,6,-1
 971 557 l 1,7,-1
 935 356 l 1,4,-1
EndSplineSet
EndChar

StartChar: greater
Encoding: 62 62 34
Width: 1044
Flags: W
LayerCount: 2
Back
Fore
SplineSet
731 641 m 1,0,-1
 170 868 l 1,1,-1
 210 1097 l 1,2,-1
 985 724 l 1,3,-1
 951 531 l 1,4,-1
 47 159 l 1,5,-1
 91 409 l 1,6,-1
 731 641 l 1,0,-1
EndSplineSet
EndChar

StartChar: question
Encoding: 63 63 35
Width: 976
Flags: W
LayerCount: 2
Back
Fore
SplineSet
319 427 m 1,0,1
 331 552 331 552 377.5 640 c 128,-1,2
 424 728 424 728 525.5 814 c 128,-1,3
 627 900 627 900 658 936 c 0,4,5
 752 1044 752 1044 734 1162 c 0,6,7
 726 1214 726 1214 690 1244.5 c 128,-1,8
 654 1275 654 1275 597 1276 c 0,9,10
 515 1278 515 1278 458.5 1228.5 c 128,-1,11
 402 1179 402 1179 385 1094 c 1,12,-1
 149 1093 l 1,13,14
 166 1271 166 1271 294 1376 c 128,-1,15
 422 1481 422 1481 612 1477 c 0,16,17
 789 1473 789 1473 890 1370 c 128,-1,18
 991 1267 991 1267 977 1097 c 0,19,20
 962 920 962 920 773 757 c 2,21,-1
 651 655 l 1,22,23
 557 569 557 569 537 428 c 1,24,-1
 319 427 l 1,0,1
239 113 m 0,25,26
 239 172 239 172 276.5 210 c 128,-1,27
 314 248 314 248 372 250 c 0,28,29
 428 252 428 252 467 215 c 128,-1,30
 506 178 506 178 506 121 c 0,31,32
 506 60 506 60 466.5 23.5 c 128,-1,33
 427 -13 427 -13 373 -13 c 0,34,35
 317 -15 317 -15 278 20.5 c 128,-1,36
 239 56 239 56 239 113 c 0,25,26
EndSplineSet
EndChar

StartChar: at
Encoding: 64 64 36
Width: 1787
Flags: W
LayerCount: 2
Back
Fore
SplineSet
1190 -21 m 0,0,1
 1113 -19 1113 -19 1054 18 c 128,-1,2
 995 55 995 55 975 133 c 1,3,4
 844 -23 844 -23 705 -20 c 0,5,6
 591 -18 591 -18 530 72.5 c 128,-1,7
 469 163 469 163 478 323 c 0,8,9
 485 484 485 484 564.5 651.5 c 128,-1,10
 644 819 644 819 757 906 c 128,-1,11
 870 993 870 993 1002 991 c 0,12,13
 1087 989 1087 989 1153.5 960.5 c 128,-1,14
 1220 932 1220 932 1287 884 c 1,15,-1
 1153 317 l 1,16,-1
 1145 257 l 2,17,18
 1138 194 1138 194 1158 157.5 c 128,-1,19
 1178 121 1178 121 1225 119 c 0,20,21
 1314 115 1314 115 1382.5 187 c 128,-1,22
 1451 259 1451 259 1494 396.5 c 128,-1,23
 1537 534 1537 534 1544 706 c 0,24,25
 1548 840 1548 840 1518.5 947 c 128,-1,26
 1489 1054 1489 1054 1429 1125 c 0,27,28
 1304 1271 1304 1271 1062 1275 c 0,29,30
 895 1278 895 1278 748 1205.5 c 128,-1,31
 601 1133 601 1133 483.5 988.5 c 128,-1,32
 366 844 366 844 299.5 657.5 c 128,-1,33
 233 471 233 471 226 281 c 0,34,35
 218 108 218 108 270.5 -26 c 128,-1,36
 323 -160 323 -160 432.5 -229.5 c 128,-1,37
 542 -299 542 -299 701 -300 c 0,38,39
 867 -302 867 -302 1040 -227 c 1,40,-1
 1067 -367 l 1,41,42
 929 -453 929 -453 700 -453 c 0,43,44
 505 -452 505 -452 359.5 -370 c 128,-1,45
 214 -288 214 -288 136 -132 c 128,-1,46
 58 24 58 24 54 235 c 0,47,48
 50 456 50 456 129 680 c 128,-1,49
 208 904 208 904 352 1077 c 128,-1,50
 496 1250 496 1250 679.5 1338.5 c 128,-1,51
 863 1427 863 1427 1064 1424 c 0,52,53
 1256 1421 1256 1421 1397 1340 c 128,-1,54
 1538 1259 1538 1259 1615 1103.5 c 128,-1,55
 1692 948 1692 948 1696 748 c 0,56,57
 1700 537 1700 537 1635.5 354 c 128,-1,58
 1571 171 1571 171 1455.5 73 c 128,-1,59
 1340 -25 1340 -25 1190 -21 c 0,0,1
671 307 m 1,60,61
 666 145 666 145 772 142 c 0,62,63
 828 139 828 139 887.5 192.5 c 128,-1,64
 947 246 947 246 976 322 c 1,65,-1
 1105 819 l 1,66,67
 1060 836 1060 836 1019 838 c 0,68,69
 889 843 889 843 800.5 717.5 c 128,-1,70
 712 592 712 592 676 363 c 1,71,-1
 671 307 l 1,60,61
EndSplineSet
EndChar

StartChar: A
Encoding: 65 65 37
Width: 1332
Flags: W
LayerCount: 2
Back
Fore
SplineSet
893 339 m 1,0,-1
 348 339 l 1,1,-1
 174 0 l 1,2,-1
 -92 0 l 1,3,-1
 694 1456 l 1,4,-1
 916 1456 l 1,5,-1
 1198 0 l 1,6,-1
 950 0 l 1,7,-1
 893 339 l 1,0,-1
452 543 m 1,8,-1
 860 543 l 1,9,-1
 761 1145 l 1,10,-1
 452 543 l 1,8,-1
EndSplineSet
Substitution2: "'c2sc' Capitals to Small Capitals in Cyrillic lookup 3 subtable" A.c2sc
Substitution2: "'c2sc' Capitals to Small Capitals in Greek lookup 2 subtable" A.c2sc
Substitution2: "'c2sc' Capitals to Small Capitals lookup 1 subtable" A.c2sc
Substitution2: "'c2sc' Capitals to Small Capitals in Latin lookup 0 subtable" A.c2sc
Position2: "'cpsp' Capital Spacing in Cyrillic lookup 3 subtable" dx=36 dy=0 dh=72 dv=0
Position2: "'cpsp' Capital Spacing in Greek lookup 2 subtable" dx=36 dy=0 dh=72 dv=0
Position2: "'cpsp' Capital Spacing lookup 1 subtable" dx=36 dy=0 dh=72 dv=0
Position2: "'cpsp' Capital Spacing in Latin lookup 0 subtable" dx=36 dy=0 dh=72 dv=0
EndChar

StartChar: B
Encoding: 66 66 38
Width: 1263
Flags: W
LayerCount: 2
Back
Fore
SplineSet
39 0 m 1,0,-1
 292 1456 l 1,1,-1
 739 1455 l 2,2,3
 975 1454 975 1454 1093.5 1352.5 c 128,-1,4
 1212 1251 1212 1251 1198 1071 c 0,5,6
 1180 859 1180 859 939 752 c 1,7,8
 1029 720 1029 720 1078 635 c 128,-1,9
 1127 550 1127 550 1120 432 c 0,10,11
 1106 232 1106 232 959.5 116 c 128,-1,12
 813 0 813 0 573 0 c 2,13,-1
 39 0 l 1,0,-1
400 657 m 1,14,-1
 321 202 l 1,15,-1
 580 201 l 2,16,17
 697 201 697 201 779 263 c 128,-1,18
 861 325 861 325 876 433 c 0,19,20
 890 536 890 536 845 594 c 128,-1,21
 800 652 800 652 696 656 c 2,22,-1
 400 657 l 1,14,-1
432 843 m 1,23,-1
 659 842 l 2,24,25
 781 842 781 842 858 900 c 128,-1,26
 935 958 935 958 949 1057 c 0,27,28
 974 1244 974 1244 760 1251 c 1,29,-1
 503 1252 l 1,30,-1
 432 843 l 1,23,-1
EndSplineSet
Substitution2: "'c2sc' Capitals to Small Capitals in Cyrillic lookup 3 subtable" B.c2sc
Substitution2: "'c2sc' Capitals to Small Capitals in Greek lookup 2 subtable" B.c2sc
Substitution2: "'c2sc' Capitals to Small Capitals lookup 1 subtable" B.c2sc
Substitution2: "'c2sc' Capitals to Small Capitals in Latin lookup 0 subtable" B.c2sc
Position2: "'cpsp' Capital Spacing in Cyrillic lookup 3 subtable" dx=36 dy=0 dh=72 dv=0
Position2: "'cpsp' Capital Spacing in Greek lookup 2 subtable" dx=36 dy=0 dh=72 dv=0
Position2: "'cpsp' Capital Spacing lookup 1 subtable" dx=36 dy=0 dh=72 dv=0
Position2: "'cpsp' Capital Spacing in Latin lookup 0 subtable" dx=36 dy=0 dh=72 dv=0
EndChar

StartChar: C
Encoding: 67 67 39
Width: 1307
Flags: W
LayerCount: 2
Back
Fore
SplineSet
1194 475 m 1,0,1
 1157 247 1157 247 989 111.5 c 128,-1,2
 821 -24 821 -24 580 -20 c 0,3,4
 441 -17 441 -17 336.5 46 c 128,-1,5
 232 109 232 109 173 229.5 c 128,-1,6
 114 350 114 350 107 502 c 0,7,8
 101 616 101 616 135 812.5 c 128,-1,9
 169 1009 169 1009 265.5 1165 c 128,-1,10
 362 1321 362 1321 502.5 1400 c 128,-1,11
 643 1479 643 1479 815 1476 c 0,12,13
 1032 1472 1032 1472 1158.5 1339.5 c 128,-1,14
 1285 1207 1285 1207 1293 974 c 1,15,-1
 1048 974 l 1,16,17
 1043 1130 1043 1130 982.5 1199.5 c 128,-1,18
 922 1269 922 1269 803 1272 c 0,19,20
 640 1277 640 1277 530 1155 c 128,-1,21
 420 1033 420 1033 382 800 c 2,22,-1
 362 667 l 1,23,-1
 353 565 l 2,24,25
 345 462 345 462 367.5 371.5 c 128,-1,26
 390 281 390 281 447 233.5 c 128,-1,27
 504 186 504 186 592 183 c 0,28,29
 871 172 871 172 950 473 c 1,30,-1
 1194 475 l 1,0,1
EndSplineSet
Substitution2: "'ss06' Style Set 6 in Cyrillic lookup 42 subtable" C.ss06
Substitution2: "'ss06' Style Set 6 in Greek lookup 41 subtable" C.ss06
Substitution2: "'ss06' Style Set 6 lookup 40 subtable" C.ss06
Substitution2: "'ss06' Style Set 6 in Latin lookup 39 subtable" C.ss06
Substitution2: "'c2sc' Capitals to Small Capitals in Cyrillic lookup 3 subtable" C.c2sc
Substitution2: "'c2sc' Capitals to Small Capitals in Greek lookup 2 subtable" C.c2sc
Substitution2: "'c2sc' Capitals to Small Capitals lookup 1 subtable" C.c2sc
Substitution2: "'c2sc' Capitals to Small Capitals in Latin lookup 0 subtable" C.c2sc
Position2: "'cpsp' Capital Spacing in Cyrillic lookup 3 subtable" dx=36 dy=0 dh=72 dv=0
Position2: "'cpsp' Capital Spacing in Greek lookup 2 subtable" dx=36 dy=0 dh=72 dv=0
Position2: "'cpsp' Capital Spacing lookup 1 subtable" dx=36 dy=0 dh=72 dv=0
Position2: "'cpsp' Capital Spacing in Latin lookup 0 subtable" dx=36 dy=0 dh=72 dv=0
EndChar

StartChar: D
Encoding: 68 68 40
Width: 1308
Flags: W
LayerCount: 2
Back
Fore
SplineSet
39 0 m 1,0,-1
 291 1456 l 1,1,-1
 685 1455 l 2,2,3
 867 1455 867 1455 998.5 1364.5 c 128,-1,4
 1130 1274 1130 1274 1189 1114.5 c 128,-1,5
 1248 955 1248 955 1225 763 c 2,6,-1
 1214 684 l 2,7,8
 1184 483 1184 483 1081.5 327.5 c 128,-1,9
 979 172 979 172 817 86 c 128,-1,10
 655 0 655 0 461 0 c 2,11,-1
 39 0 l 1,0,-1
503 1252 m 1,12,-1
 321 202 l 1,13,-1
 467 201 l 2,14,15
 665 201 665 201 795.5 326.5 c 128,-1,16
 926 452 926 452 963 673 c 0,17,18
 989 825 989 825 982 938 c 0,19,20
 973 1083 973 1083 897.5 1165 c 128,-1,21
 822 1247 822 1247 688 1251 c 2,22,-1
 503 1252 l 1,12,-1
EndSplineSet
Substitution2: "'ss06' Style Set 6 in Cyrillic lookup 42 subtable" D.ss06
Substitution2: "'ss06' Style Set 6 in Greek lookup 41 subtable" D.ss06
Substitution2: "'ss06' Style Set 6 lookup 40 subtable" D.ss06
Substitution2: "'ss06' Style Set 6 in Latin lookup 39 subtable" D.ss06
Substitution2: "'c2sc' Capitals to Small Capitals in Cyrillic lookup 3 subtable" D.c2sc
Substitution2: "'c2sc' Capitals to Small Capitals in Greek lookup 2 subtable" D.c2sc
Substitution2: "'c2sc' Capitals to Small Capitals lookup 1 subtable" D.c2sc
Substitution2: "'c2sc' Capitals to Small Capitals in Latin lookup 0 subtable" D.c2sc
Position2: "'cpsp' Capital Spacing in Cyrillic lookup 3 subtable" dx=36 dy=0 dh=72 dv=0
Position2: "'cpsp' Capital Spacing in Greek lookup 2 subtable" dx=36 dy=0 dh=72 dv=0
Position2: "'cpsp' Capital Spacing lookup 1 subtable" dx=36 dy=0 dh=72 dv=0
Position2: "'cpsp' Capital Spacing in Latin lookup 0 subtable" dx=36 dy=0 dh=72 dv=0
EndChar

StartChar: E
Encoding: 69 69 41
Width: 1133
Flags: W
LayerCount: 2
Back
Fore
SplineSet
979 650 m 1,0,-1
 399 650 l 1,1,-1
 321 202 l 1,2,-1
 999 202 l 1,3,-1
 964 0 l 1,4,-1
 39 0 l 1,5,-1
 291 1456 l 1,6,-1
 1210 1456 l 1,7,-1
 1174 1252 l 1,8,-1
 503 1252 l 1,9,-1
 433 850 l 1,10,-1
 1014 850 l 1,11,-1
 979 650 l 1,0,-1
EndSplineSet
Substitution2: "'c2sc' Capitals to Small Capitals in Cyrillic lookup 3 subtable" E.c2sc
Substitution2: "'c2sc' Capitals to Small Capitals in Greek lookup 2 subtable" E.c2sc
Substitution2: "'c2sc' Capitals to Small Capitals lookup 1 subtable" E.c2sc
Substitution2: "'c2sc' Capitals to Small Capitals in Latin lookup 0 subtable" E.c2sc
Position2: "'cpsp' Capital Spacing in Cyrillic lookup 3 subtable" dx=36 dy=0 dh=72 dv=0
Position2: "'cpsp' Capital Spacing in Greek lookup 2 subtable" dx=36 dy=0 dh=72 dv=0
Position2: "'cpsp' Capital Spacing lookup 1 subtable" dx=36 dy=0 dh=72 dv=0
Position2: "'cpsp' Capital Spacing in Latin lookup 0 subtable" dx=36 dy=0 dh=72 dv=0
EndChar

StartChar: F
Encoding: 70 70 42
Width: 1101
Flags: W
LayerCount: 2
Back
Fore
SplineSet
961 617 m 1,0,-1
 393 617 l 1,1,-1
 286 0 l 1,2,-1
 39 0 l 1,3,-1
 291 1456 l 1,4,-1
 1191 1456 l 1,5,-1
 1155 1252 l 1,6,-1
 503 1252 l 1,7,-1
 428 819 l 1,8,-1
 997 819 l 1,9,-1
 961 617 l 1,0,-1
EndSplineSet
Substitution2: "'c2sc' Capitals to Small Capitals in Cyrillic lookup 3 subtable" F.c2sc
Substitution2: "'c2sc' Capitals to Small Capitals in Greek lookup 2 subtable" F.c2sc
Substitution2: "'c2sc' Capitals to Small Capitals lookup 1 subtable" F.c2sc
Substitution2: "'c2sc' Capitals to Small Capitals in Latin lookup 0 subtable" F.c2sc
Position2: "'cpsp' Capital Spacing in Cyrillic lookup 3 subtable" dx=36 dy=0 dh=72 dv=0
Position2: "'cpsp' Capital Spacing in Greek lookup 2 subtable" dx=36 dy=0 dh=72 dv=0
Position2: "'cpsp' Capital Spacing lookup 1 subtable" dx=36 dy=0 dh=72 dv=0
Position2: "'cpsp' Capital Spacing in Latin lookup 0 subtable" dx=36 dy=0 dh=72 dv=0
EndChar

StartChar: G
Encoding: 71 71 43
Width: 1362
Flags: W
LayerCount: 2
Back
Fore
SplineSet
1168 189 m 1,0,1
 1088 85 1088 85 942 31.5 c 128,-1,2
 796 -22 796 -22 616 -20 c 0,3,4
 472 -19 472 -19 362 44.5 c 128,-1,5
 252 108 252 108 187.5 229.5 c 128,-1,6
 123 351 123 351 114 506 c 0,7,8
 107 626 107 626 139 812 c 128,-1,9
 171 998 171 998 253.5 1142.5 c 128,-1,10
 336 1287 336 1287 454 1369 c 0,11,12
 614 1480 614 1480 820 1476 c 0,13,14
 1039 1472 1039 1472 1162.5 1350 c 128,-1,15
 1286 1228 1286 1228 1302 1008 c 1,16,-1
 1063 1009 l 1,17,18
 1041 1266 1041 1266 814 1273 c 0,19,20
 644 1278 644 1278 534.5 1153.5 c 128,-1,21
 425 1029 425 1029 385 794 c 0,22,23
 362 657 362 657 360 570 c 0,24,25
 354 391 354 391 425.5 288 c 128,-1,26
 497 185 497 185 634 183 c 0,27,28
 809 179 809 179 922 270 c 1,29,-1
 976 555 l 1,30,-1
 684 555 l 1,31,-1
 718 747 l 1,32,-1
 1253 747 l 1,33,-1
 1168 189 l 1,0,1
EndSplineSet
Substitution2: "'ss06' Style Set 6 in Cyrillic lookup 42 subtable" G.ss06
Substitution2: "'ss06' Style Set 6 in Greek lookup 41 subtable" G.ss06
Substitution2: "'ss06' Style Set 6 lookup 40 subtable" G.ss06
Substitution2: "'ss06' Style Set 6 in Latin lookup 39 subtable" G.ss06
Substitution2: "'c2sc' Capitals to Small Capitals in Cyrillic lookup 3 subtable" G.c2sc
Substitution2: "'c2sc' Capitals to Small Capitals in Greek lookup 2 subtable" G.c2sc
Substitution2: "'c2sc' Capitals to Small Capitals lookup 1 subtable" G.c2sc
Substitution2: "'c2sc' Capitals to Small Capitals in Latin lookup 0 subtable" G.c2sc
Position2: "'cpsp' Capital Spacing in Cyrillic lookup 3 subtable" dx=36 dy=0 dh=72 dv=0
Position2: "'cpsp' Capital Spacing in Greek lookup 2 subtable" dx=36 dy=0 dh=72 dv=0
Position2: "'cpsp' Capital Spacing lookup 1 subtable" dx=36 dy=0 dh=72 dv=0
Position2: "'cpsp' Capital Spacing in Latin lookup 0 subtable" dx=36 dy=0 dh=72 dv=0
EndChar

StartChar: H
Encoding: 72 72 44
Width: 1421
Flags: W
LayerCount: 2
Back
Fore
SplineSet
1162 0 m 1,0,-1
 916 0 l 1,1,-1
 1028 647 l 1,2,-1
 398 647 l 1,3,-1
 286 0 l 1,4,-1
 39 0 l 1,5,-1
 292 1456 l 1,6,-1
 539 1456 l 1,7,-1
 433 850 l 1,8,-1
 1063 850 l 1,9,-1
 1168 1456 l 1,10,-1
 1415 1456 l 1,11,-1
 1162 0 l 1,0,-1
EndSplineSet
Substitution2: "'c2sc' Capitals to Small Capitals in Cyrillic lookup 3 subtable" H.c2sc
Substitution2: "'c2sc' Capitals to Small Capitals in Greek lookup 2 subtable" H.c2sc
Substitution2: "'c2sc' Capitals to Small Capitals lookup 1 subtable" H.c2sc
Substitution2: "'c2sc' Capitals to Small Capitals in Latin lookup 0 subtable" H.c2sc
Position2: "'cpsp' Capital Spacing in Cyrillic lookup 3 subtable" dx=36 dy=0 dh=72 dv=0
Position2: "'cpsp' Capital Spacing in Greek lookup 2 subtable" dx=36 dy=0 dh=72 dv=0
Position2: "'cpsp' Capital Spacing lookup 1 subtable" dx=36 dy=0 dh=72 dv=0
Position2: "'cpsp' Capital Spacing in Latin lookup 0 subtable" dx=36 dy=0 dh=72 dv=0
EndChar

StartChar: I
Encoding: 73 73 45
Width: 571
Flags: W
LayerCount: 2
Back
Fore
SplineSet
299 0 m 1,0,-1
 53 0 l 1,1,-1
 306 1456 l 1,2,-1
 552 1456 l 1,3,-1
 299 0 l 1,0,-1
EndSplineSet
Substitution2: "'c2sc' Capitals to Small Capitals in Cyrillic lookup 3 subtable" I.c2sc
Substitution2: "'c2sc' Capitals to Small Capitals in Greek lookup 2 subtable" I.c2sc
Substitution2: "'c2sc' Capitals to Small Capitals lookup 1 subtable" I.c2sc
Substitution2: "'c2sc' Capitals to Small Capitals in Latin lookup 0 subtable" I.c2sc
Position2: "'cpsp' Capital Spacing in Cyrillic lookup 3 subtable" dx=36 dy=0 dh=72 dv=0
Position2: "'cpsp' Capital Spacing in Greek lookup 2 subtable" dx=36 dy=0 dh=72 dv=0
Position2: "'cpsp' Capital Spacing lookup 1 subtable" dx=36 dy=0 dh=72 dv=0
Position2: "'cpsp' Capital Spacing in Latin lookup 0 subtable" dx=36 dy=0 dh=72 dv=0
EndChar

StartChar: J
Encoding: 74 74 46
Width: 1113
Flags: W
LayerCount: 2
Back
Fore
SplineSet
875 1456 m 1,0,-1
 1121 1456 l 1,1,-1
 947 435 l 1,2,3
 916 223 916 223 773.5 99 c 128,-1,4
 631 -25 631 -25 422 -21 c 0,5,6
 218 -17 218 -17 110.5 100 c 128,-1,7
 3 217 3 217 13 416 c 1,8,-1
 259 415 l 1,9,10
 245 186 245 186 437 182 c 0,11,12
 537 178 537 178 608.5 245 c 128,-1,13
 680 312 680 312 701 434 c 2,14,-1
 875 1456 l 1,0,-1
EndSplineSet
Substitution2: "'c2sc' Capitals to Small Capitals in Cyrillic lookup 3 subtable" J.c2sc
Substitution2: "'c2sc' Capitals to Small Capitals in Greek lookup 2 subtable" J.c2sc
Substitution2: "'c2sc' Capitals to Small Capitals lookup 1 subtable" J.c2sc
Substitution2: "'c2sc' Capitals to Small Capitals in Latin lookup 0 subtable" J.c2sc
Position2: "'cpsp' Capital Spacing in Cyrillic lookup 3 subtable" dx=36 dy=0 dh=72 dv=0
Position2: "'cpsp' Capital Spacing in Greek lookup 2 subtable" dx=36 dy=0 dh=72 dv=0
Position2: "'cpsp' Capital Spacing lookup 1 subtable" dx=36 dy=0 dh=72 dv=0
Position2: "'cpsp' Capital Spacing in Latin lookup 0 subtable" dx=36 dy=0 dh=72 dv=0
EndChar

StartChar: K
Encoding: 75 75 47
Width: 1262
Flags: W
LayerCount: 2
Back
Fore
SplineSet
563 627 m 1,0,-1
 363 444 l 1,1,-1
 286 0 l 1,2,-1
 39 0 l 1,3,-1
 292 1456 l 1,4,-1
 539 1456 l 1,5,-1
 422 787 l 1,6,-1
 575 946 l 1,7,-1
 1077 1456 l 1,8,-1
 1393 1456 l 1,9,-1
 745 799 l 1,10,-1
 1154 0 l 1,11,-1
 878 0 l 1,12,-1
 563 627 l 1,0,-1
EndSplineSet
Substitution2: "'ss05' Style Set 5 in Cyrillic lookup 38 subtable" K.ss05
Substitution2: "'ss05' Style Set 5 in Greek lookup 37 subtable" K.ss05
Substitution2: "'ss05' Style Set 5 lookup 36 subtable" K.ss05
Substitution2: "'ss05' Style Set 5 in Latin lookup 35 subtable" K.ss05
Substitution2: "'ss04' Style Set 4 in Cyrillic lookup 34 subtable" K.ss04
Substitution2: "'ss04' Style Set 4 in Greek lookup 33 subtable" K.ss04
Substitution2: "'ss04' Style Set 4 lookup 32 subtable" K.ss04
Substitution2: "'ss04' Style Set 4 in Latin lookup 31 subtable" K.ss04
Substitution2: "'c2sc' Capitals to Small Capitals in Cyrillic lookup 3 subtable" K.c2sc
Substitution2: "'c2sc' Capitals to Small Capitals in Greek lookup 2 subtable" K.c2sc
Substitution2: "'c2sc' Capitals to Small Capitals lookup 1 subtable" K.c2sc
Substitution2: "'c2sc' Capitals to Small Capitals in Latin lookup 0 subtable" K.c2sc
Position2: "'cpsp' Capital Spacing in Cyrillic lookup 3 subtable" dx=36 dy=0 dh=72 dv=0
Position2: "'cpsp' Capital Spacing in Greek lookup 2 subtable" dx=36 dy=0 dh=72 dv=0
Position2: "'cpsp' Capital Spacing lookup 1 subtable" dx=36 dy=0 dh=72 dv=0
Position2: "'cpsp' Capital Spacing in Latin lookup 0 subtable" dx=36 dy=0 dh=72 dv=0
EndChar

StartChar: L
Encoding: 76 76 48
Width: 1085
Flags: W
LayerCount: 2
Back
Fore
SplineSet
321 202 m 1,0,-1
 963 202 l 1,1,-1
 927 0 l 1,2,-1
 39 0 l 1,3,-1
 292 1456 l 1,4,-1
 539 1456 l 1,5,-1
 321 202 l 1,0,-1
EndSplineSet
Substitution2: "'c2sc' Capitals to Small Capitals in Cyrillic lookup 3 subtable" L.c2sc
Substitution2: "'c2sc' Capitals to Small Capitals in Greek lookup 2 subtable" L.c2sc
Substitution2: "'c2sc' Capitals to Small Capitals lookup 1 subtable" L.c2sc
Substitution2: "'c2sc' Capitals to Small Capitals in Latin lookup 0 subtable" L.c2sc
Position2: "'cpsp' Capital Spacing in Cyrillic lookup 3 subtable" dx=36 dy=0 dh=72 dv=0
Position2: "'cpsp' Capital Spacing in Greek lookup 2 subtable" dx=36 dy=0 dh=72 dv=0
Position2: "'cpsp' Capital Spacing lookup 1 subtable" dx=36 dy=0 dh=72 dv=0
Position2: "'cpsp' Capital Spacing in Latin lookup 0 subtable" dx=36 dy=0 dh=72 dv=0
EndChar

StartChar: M
Encoding: 77 77 49
Width: 1749
Flags: W
LayerCount: 2
Back
Fore
SplineSet
606 1456 m 1,0,-1
 819 342 l 1,1,-1
 1418 1456 l 1,2,-1
 1742 1456 l 1,3,-1
 1490 0 l 1,4,-1
 1244 0 l 1,5,-1
 1329 493 l 1,6,-1
 1458 1100 l 1,7,-1
 858 0 l 1,8,-1
 680 0 l 1,9,-1
 457 1133 l 1,10,-1
 366 467 l 1,11,-1
 285 0 l 1,12,-1
 39 0 l 1,13,-1
 292 1456 l 1,14,-1
 606 1456 l 1,0,-1
EndSplineSet
Substitution2: "'c2sc' Capitals to Small Capitals in Cyrillic lookup 3 subtable" M.c2sc
Substitution2: "'c2sc' Capitals to Small Capitals in Greek lookup 2 subtable" M.c2sc
Substitution2: "'c2sc' Capitals to Small Capitals lookup 1 subtable" M.c2sc
Substitution2: "'c2sc' Capitals to Small Capitals in Latin lookup 0 subtable" M.c2sc
Position2: "'cpsp' Capital Spacing in Cyrillic lookup 3 subtable" dx=36 dy=0 dh=72 dv=0
Position2: "'cpsp' Capital Spacing in Greek lookup 2 subtable" dx=36 dy=0 dh=72 dv=0
Position2: "'cpsp' Capital Spacing lookup 1 subtable" dx=36 dy=0 dh=72 dv=0
Position2: "'cpsp' Capital Spacing in Latin lookup 0 subtable" dx=36 dy=0 dh=72 dv=0
EndChar

StartChar: N
Encoding: 78 78 50
Width: 1420
Flags: W
LayerCount: 2
Back
Fore
SplineSet
1161 0 m 1,0,-1
 922 0 l 1,1,-1
 467 1043 l 1,2,-1
 286 0 l 1,3,-1
 39 0 l 1,4,-1
 292 1456 l 1,5,-1
 531 1456 l 1,6,-1
 986 409 l 1,7,-1
 1168 1456 l 1,8,-1
 1414 1456 l 1,9,-1
 1161 0 l 1,0,-1
EndSplineSet
Substitution2: "'c2sc' Capitals to Small Capitals in Cyrillic lookup 3 subtable" N.c2sc
Substitution2: "'c2sc' Capitals to Small Capitals in Greek lookup 2 subtable" N.c2sc
Substitution2: "'c2sc' Capitals to Small Capitals lookup 1 subtable" N.c2sc
Substitution2: "'c2sc' Capitals to Small Capitals in Latin lookup 0 subtable" N.c2sc
Position2: "'cpsp' Capital Spacing in Cyrillic lookup 3 subtable" dx=36 dy=0 dh=72 dv=0
Position2: "'cpsp' Capital Spacing in Greek lookup 2 subtable" dx=36 dy=0 dh=72 dv=0
Position2: "'cpsp' Capital Spacing lookup 1 subtable" dx=36 dy=0 dh=72 dv=0
Position2: "'cpsp' Capital Spacing in Latin lookup 0 subtable" dx=36 dy=0 dh=72 dv=0
EndChar

StartChar: O
Encoding: 79 79 51
Width: 1382
Flags: W
LayerCount: 2
Back
Fore
SplineSet
599 -20 m 0,0,1
 457 -17 457 -17 349.5 48 c 128,-1,2
 242 113 242 113 182 236.5 c 128,-1,3
 122 360 122 360 114 517 c 0,4,5
 107 642 107 642 136.5 809 c 128,-1,6
 166 976 166 976 241.5 1113.5 c 128,-1,7
 317 1251 317 1251 422 1338 c 0,8,9
 595 1480 595 1480 822 1476 c 0,10,11
 1038 1472 1038 1472 1166.5 1327 c 128,-1,12
 1295 1182 1295 1182 1307 935 c 0,13,14
 1313 811 1313 811 1284.5 650.5 c 128,-1,15
 1256 490 1256 490 1186.5 355.5 c 128,-1,16
 1117 221 1117 221 1014 131 c 0,17,18
 836 -25 836 -25 599 -20 c 0,0,1
1054 767 m 1,19,-1
 1063 873 l 2,20,21
 1069 982 1069 982 1044 1074.5 c 128,-1,22
 1019 1167 1019 1167 959.5 1215.5 c 128,-1,23
 900 1264 900 1264 809 1267 c 0,24,25
 683 1271 683 1271 585.5 1196 c 128,-1,26
 488 1121 488 1121 427.5 968 c 128,-1,27
 367 815 367 815 357 584 c 0,28,29
 347 401 347 401 413 296 c 128,-1,30
 479 191 479 191 611 187 c 0,31,32
 784 182 784 182 896.5 317 c 128,-1,33
 1009 452 1009 452 1044 697 c 2,34,-1
 1054 767 l 1,19,-1
EndSplineSet
Substitution2: "'ss06' Style Set 6 in Cyrillic lookup 42 subtable" O.ss06
Substitution2: "'ss06' Style Set 6 in Greek lookup 41 subtable" O.ss06
Substitution2: "'ss06' Style Set 6 lookup 40 subtable" O.ss06
Substitution2: "'ss06' Style Set 6 in Latin lookup 39 subtable" O.ss06
Substitution2: "'c2sc' Capitals to Small Capitals in Cyrillic lookup 3 subtable" O.c2sc
Substitution2: "'c2sc' Capitals to Small Capitals in Greek lookup 2 subtable" O.c2sc
Substitution2: "'c2sc' Capitals to Small Capitals lookup 1 subtable" O.c2sc
Substitution2: "'c2sc' Capitals to Small Capitals in Latin lookup 0 subtable" O.c2sc
Position2: "'cpsp' Capital Spacing in Cyrillic lookup 3 subtable" dx=36 dy=0 dh=72 dv=0
Position2: "'cpsp' Capital Spacing in Greek lookup 2 subtable" dx=36 dy=0 dh=72 dv=0
Position2: "'cpsp' Capital Spacing lookup 1 subtable" dx=36 dy=0 dh=72 dv=0
Position2: "'cpsp' Capital Spacing in Latin lookup 0 subtable" dx=36 dy=0 dh=72 dv=0
EndChar

StartChar: P
Encoding: 80 80 52
Width: 1280
Flags: W
LayerCount: 2
Back
Fore
SplineSet
380 541 m 1,0,-1
 286 0 l 1,1,-1
 39 0 l 1,2,-1
 292 1456 l 1,3,-1
 796 1455 l 2,4,5
 1024 1455 1024 1455 1154 1330.5 c 128,-1,6
 1284 1206 1284 1206 1267 1001 c 0,7,8
 1249 789 1249 789 1094 664.5 c 128,-1,9
 939 540 939 540 688 540 c 2,10,-1
 380 541 l 1,0,-1
415 744 m 1,11,-1
 698 742 l 2,12,13
 832 742 832 742 917.5 810 c 128,-1,14
 1003 878 1003 878 1020 1000 c 0,15,16
 1034 1111 1034 1111 978.5 1178.5 c 128,-1,17
 923 1246 923 1246 811 1251 c 1,18,-1
 503 1252 l 1,19,-1
 415 744 l 1,11,-1
EndSplineSet
Substitution2: "'c2sc' Capitals to Small Capitals in Cyrillic lookup 3 subtable" P.c2sc
Substitution2: "'c2sc' Capitals to Small Capitals in Greek lookup 2 subtable" P.c2sc
Substitution2: "'c2sc' Capitals to Small Capitals lookup 1 subtable" P.c2sc
Substitution2: "'c2sc' Capitals to Small Capitals in Latin lookup 0 subtable" P.c2sc
Position2: "'cpsp' Capital Spacing in Cyrillic lookup 3 subtable" dx=36 dy=0 dh=72 dv=0
Position2: "'cpsp' Capital Spacing in Greek lookup 2 subtable" dx=36 dy=0 dh=72 dv=0
Position2: "'cpsp' Capital Spacing lookup 1 subtable" dx=36 dy=0 dh=72 dv=0
Position2: "'cpsp' Capital Spacing in Latin lookup 0 subtable" dx=36 dy=0 dh=72 dv=0
EndChar

StartChar: Q
Encoding: 81 81 53
Width: 1382
Flags: W
LayerCount: 2
Back
Fore
SplineSet
939 86 m 1,0,-1
 1147 -114 l 1,1,-1
 973 -252 l 1,2,-1
 717 -8 l 1,3,4
 637 -20 637 -20 590 -19 c 0,5,6
 377 -17 377 -17 247.5 129 c 128,-1,7
 118 275 118 275 106 521 c 0,8,9
 100 646 100 646 129.5 810.5 c 128,-1,10
 159 975 159 975 237.5 1118 c 128,-1,11
 316 1261 316 1261 431 1350 c 0,12,13
 599 1480 599 1480 815 1476 c 0,14,15
 959 1473 959 1473 1066 1408 c 128,-1,16
 1173 1343 1173 1343 1234 1217.5 c 128,-1,17
 1295 1092 1295 1092 1302 936 c 0,18,19
 1306 850 1306 850 1296 764 c 2,20,-1
 1284 677 l 1,21,22
 1222 275 1222 275 939 86 c 1,0,-1
1049 768 m 1,23,-1
 1058 874 l 2,24,25
 1064 984 1064 984 1038.5 1076 c 128,-1,26
 1013 1168 1013 1168 953 1216 c 128,-1,27
 893 1264 893 1264 802 1267 c 0,28,29
 606 1273 606 1273 485.5 1092.5 c 128,-1,30
 365 912 365 912 351 584 c 0,31,32
 345 473 345 473 371 380 c 128,-1,33
 397 287 397 287 456.5 238.5 c 128,-1,34
 516 190 516 190 605 187 c 0,35,36
 770 180 770 180 883 308 c 128,-1,37
 996 436 996 436 1036 679 c 1,38,-1
 1049 768 l 1,23,-1
EndSplineSet
Substitution2: "'ss06' Style Set 6 in Cyrillic lookup 42 subtable" Q.ss06
Substitution2: "'ss06' Style Set 6 in Greek lookup 41 subtable" Q.ss06
Substitution2: "'ss06' Style Set 6 lookup 40 subtable" Q.ss06
Substitution2: "'ss06' Style Set 6 in Latin lookup 39 subtable" Q.ss06
Substitution2: "'c2sc' Capitals to Small Capitals in Cyrillic lookup 3 subtable" Q.c2sc
Substitution2: "'c2sc' Capitals to Small Capitals in Greek lookup 2 subtable" Q.c2sc
Substitution2: "'c2sc' Capitals to Small Capitals lookup 1 subtable" Q.c2sc
Substitution2: "'c2sc' Capitals to Small Capitals in Latin lookup 0 subtable" Q.c2sc
Position2: "'cpsp' Capital Spacing in Cyrillic lookup 3 subtable" dx=36 dy=0 dh=72 dv=0
Position2: "'cpsp' Capital Spacing in Greek lookup 2 subtable" dx=36 dy=0 dh=72 dv=0
Position2: "'cpsp' Capital Spacing lookup 1 subtable" dx=36 dy=0 dh=72 dv=0
Position2: "'cpsp' Capital Spacing in Latin lookup 0 subtable" dx=36 dy=0 dh=72 dv=0
EndChar

StartChar: R
Encoding: 82 82 54
Width: 1250
Flags: W
LayerCount: 2
Back
Fore
SplineSet
662 561 m 1,0,-1
 384 561 l 1,1,-1
 286 0 l 1,2,-1
 39 0 l 1,3,-1
 292 1456 l 1,4,-1
 751 1455 l 2,5,6
 988 1455 988 1455 1114 1341 c 128,-1,7
 1240 1227 1240 1227 1223 1024 c 0,8,9
 1212 883 1212 883 1129 779.5 c 128,-1,10
 1046 676 1046 676 896 617 c 1,11,-1
 1111 15 l 1,12,-1
 1110 0 l 1,13,-1
 848 0 l 1,14,-1
 662 561 l 1,0,-1
418 764 m 1,15,-1
 657 762 l 2,16,17
 786 762 786 762 872.5 829.5 c 128,-1,18
 959 897 959 897 974 1013 c 0,19,20
 989 1126 989 1126 934 1186.5 c 128,-1,21
 879 1247 879 1247 767 1251 c 2,22,-1
 503 1252 l 1,23,-1
 418 764 l 1,15,-1
EndSplineSet
Substitution2: "'ss03' Style Set 3 in Cyrillic lookup 30 subtable" R.ss03
Substitution2: "'ss03' Style Set 3 in Greek lookup 29 subtable" R.ss03
Substitution2: "'ss03' Style Set 3 lookup 28 subtable" R.ss03
Substitution2: "'ss03' Style Set 3 in Latin lookup 27 subtable" R.ss03
Substitution2: "'c2sc' Capitals to Small Capitals in Cyrillic lookup 3 subtable" R.c2sc
Substitution2: "'c2sc' Capitals to Small Capitals in Greek lookup 2 subtable" R.c2sc
Substitution2: "'c2sc' Capitals to Small Capitals lookup 1 subtable" R.c2sc
Substitution2: "'c2sc' Capitals to Small Capitals in Latin lookup 0 subtable" R.c2sc
Position2: "'cpsp' Capital Spacing in Cyrillic lookup 3 subtable" dx=36 dy=0 dh=72 dv=0
Position2: "'cpsp' Capital Spacing in Greek lookup 2 subtable" dx=36 dy=0 dh=72 dv=0
Position2: "'cpsp' Capital Spacing lookup 1 subtable" dx=36 dy=0 dh=72 dv=0
Position2: "'cpsp' Capital Spacing in Latin lookup 0 subtable" dx=36 dy=0 dh=72 dv=0
EndChar

StartChar: S
Encoding: 83 83 55
Width: 1209
Flags: W
LayerCount: 2
Back
Fore
SplineSet
844 382 m 0,0,1
 866 526 866 526 687 596 c 2,2,-1
 606 626 l 1,3,4
 380 705 380 705 285 813 c 128,-1,5
 190 921 190 921 199 1064 c 0,6,7
 207 1188 207 1188 283.5 1282.5 c 128,-1,8
 360 1377 360 1377 485 1428 c 128,-1,9
 610 1479 610 1479 751 1476 c 0,10,11
 887 1473 887 1473 993 1416.5 c 128,-1,12
 1099 1360 1099 1360 1155 1259.5 c 128,-1,13
 1211 1159 1211 1159 1207 1030 c 1,14,-1
 961 1031 l 1,15,16
 968 1145 968 1145 910.5 1208 c 128,-1,17
 853 1271 853 1271 737 1274 c 0,18,19
 620 1276 620 1276 539.5 1219 c 128,-1,20
 459 1162 459 1162 445 1065 c 0,21,22
 425 938 425 938 615 865 c 1,23,-1
 690 838 l 2,24,25
 919 756 919 756 1010 645.5 c 128,-1,26
 1101 535 1101 535 1090 384 c 0,27,28
 1080 261 1080 261 1009 169.5 c 128,-1,29
 938 78 938 78 812.5 28 c 128,-1,30
 687 -22 687 -22 536 -20 c 0,31,32
 393 -19 393 -19 276.5 40 c 128,-1,33
 160 99 160 99 98 203.5 c 128,-1,34
 36 308 36 308 41 441 c 1,35,-1
 288 440 l 1,36,37
 280 316 280 316 349 249 c 128,-1,38
 418 182 418 182 547 180 c 0,39,40
 667 178 667 178 747.5 231 c 128,-1,41
 828 284 828 284 844 382 c 0,0,1
EndSplineSet
Substitution2: "'c2sc' Capitals to Small Capitals in Cyrillic lookup 3 subtable" S.c2sc
Substitution2: "'c2sc' Capitals to Small Capitals in Greek lookup 2 subtable" S.c2sc
Substitution2: "'c2sc' Capitals to Small Capitals lookup 1 subtable" S.c2sc
Substitution2: "'c2sc' Capitals to Small Capitals in Latin lookup 0 subtable" S.c2sc
Position2: "'cpsp' Capital Spacing in Cyrillic lookup 3 subtable" dx=36 dy=0 dh=72 dv=0
Position2: "'cpsp' Capital Spacing in Greek lookup 2 subtable" dx=36 dy=0 dh=72 dv=0
Position2: "'cpsp' Capital Spacing lookup 1 subtable" dx=36 dy=0 dh=72 dv=0
Position2: "'cpsp' Capital Spacing in Latin lookup 0 subtable" dx=36 dy=0 dh=72 dv=0
EndChar

StartChar: T
Encoding: 84 84 56
Width: 1216
Flags: W
LayerCount: 2
Back
Fore
SplineSet
1278 1252 m 1,0,-1
 838 1252 l 1,1,-1
 621 0 l 1,2,-1
 375 0 l 1,3,-1
 593 1252 l 1,4,-1
 156 1252 l 1,5,-1
 192 1456 l 1,6,-1
 1314 1456 l 1,7,-1
 1278 1252 l 1,0,-1
EndSplineSet
Substitution2: "'c2sc' Capitals to Small Capitals in Cyrillic lookup 3 subtable" T.c2sc
Substitution2: "'c2sc' Capitals to Small Capitals in Greek lookup 2 subtable" T.c2sc
Substitution2: "'c2sc' Capitals to Small Capitals lookup 1 subtable" T.c2sc
Substitution2: "'c2sc' Capitals to Small Capitals in Latin lookup 0 subtable" T.c2sc
Position2: "'cpsp' Capital Spacing in Cyrillic lookup 3 subtable" dx=36 dy=0 dh=72 dv=0
Position2: "'cpsp' Capital Spacing in Greek lookup 2 subtable" dx=36 dy=0 dh=72 dv=0
Position2: "'cpsp' Capital Spacing lookup 1 subtable" dx=36 dy=0 dh=72 dv=0
Position2: "'cpsp' Capital Spacing in Latin lookup 0 subtable" dx=36 dy=0 dh=72 dv=0
EndChar

StartChar: U
Encoding: 85 85 57
Width: 1305
Flags: W
LayerCount: 2
Back
Fore
SplineSet
1327 1456 m 1,0,-1
 1162 483 l 1,1,2
 1128 250 1128 250 962.5 112 c 128,-1,3
 797 -26 797 -26 562 -22 c 0,4,5
 344 -18 344 -18 217.5 110 c 128,-1,6
 91 238 91 238 102 444 c 1,7,-1
 105 482 l 1,8,-1
 270 1456 l 1,9,-1
 516 1456 l 1,10,-1
 351 481 l 1,11,12
 333 342 333 342 392 264 c 128,-1,13
 451 186 451 186 574 182 c 0,14,15
 709 178 709 178 799 255 c 128,-1,16
 889 332 889 332 914 476 c 2,17,-1
 1081 1456 l 1,18,-1
 1327 1456 l 1,0,-1
EndSplineSet
Substitution2: "'c2sc' Capitals to Small Capitals in Cyrillic lookup 3 subtable" U.c2sc
Substitution2: "'c2sc' Capitals to Small Capitals in Greek lookup 2 subtable" U.c2sc
Substitution2: "'c2sc' Capitals to Small Capitals lookup 1 subtable" U.c2sc
Substitution2: "'c2sc' Capitals to Small Capitals in Latin lookup 0 subtable" U.c2sc
Position2: "'cpsp' Capital Spacing in Cyrillic lookup 3 subtable" dx=36 dy=0 dh=72 dv=0
Position2: "'cpsp' Capital Spacing in Greek lookup 2 subtable" dx=36 dy=0 dh=72 dv=0
Position2: "'cpsp' Capital Spacing lookup 1 subtable" dx=36 dy=0 dh=72 dv=0
Position2: "'cpsp' Capital Spacing in Latin lookup 0 subtable" dx=36 dy=0 dh=72 dv=0
EndChar

StartChar: V
Encoding: 86 86 58
Width: 1295
Flags: W
LayerCount: 2
Back
Fore
SplineSet
593 319 m 1,0,-1
 1129 1456 l 1,1,-1
 1409 1456 l 1,2,-1
 673 0 l 1,3,-1
 434 0 l 1,4,-1
 155 1456 l 1,5,-1
 417 1456 l 1,6,-1
 593 319 l 1,0,-1
EndSplineSet
Substitution2: "'c2sc' Capitals to Small Capitals in Cyrillic lookup 3 subtable" V.c2sc
Substitution2: "'c2sc' Capitals to Small Capitals in Greek lookup 2 subtable" V.c2sc
Substitution2: "'c2sc' Capitals to Small Capitals lookup 1 subtable" V.c2sc
Substitution2: "'c2sc' Capitals to Small Capitals in Latin lookup 0 subtable" V.c2sc
Position2: "'cpsp' Capital Spacing in Cyrillic lookup 3 subtable" dx=36 dy=0 dh=72 dv=0
Position2: "'cpsp' Capital Spacing in Greek lookup 2 subtable" dx=36 dy=0 dh=72 dv=0
Position2: "'cpsp' Capital Spacing lookup 1 subtable" dx=36 dy=0 dh=72 dv=0
Position2: "'cpsp' Capital Spacing in Latin lookup 0 subtable" dx=36 dy=0 dh=72 dv=0
EndChar

StartChar: W
Encoding: 87 87 59
Width: 1758
Flags: W
LayerCount: 2
Back
Fore
SplineSet
1211 362 m 1,0,-1
 1599 1456 l 1,1,-1
 1850 1456 l 1,2,-1
 1296 0 l 1,3,-1
 1060 0 l 1,4,-1
 959 1060 l 1,5,-1
 519 0 l 1,6,-1
 281 0 l 1,7,-1
 183 1456 l 1,8,-1
 422 1456 l 1,9,-1
 470 367 l 1,10,-1
 909 1456 l 1,11,-1
 1116 1456 l 1,12,-1
 1211 362 l 1,0,-1
EndSplineSet
Substitution2: "'c2sc' Capitals to Small Capitals in Cyrillic lookup 3 subtable" W.c2sc
Substitution2: "'c2sc' Capitals to Small Capitals in Greek lookup 2 subtable" W.c2sc
Substitution2: "'c2sc' Capitals to Small Capitals lookup 1 subtable" W.c2sc
Substitution2: "'c2sc' Capitals to Small Capitals in Latin lookup 0 subtable" W.c2sc
Position2: "'cpsp' Capital Spacing in Cyrillic lookup 3 subtable" dx=36 dy=0 dh=72 dv=0
Position2: "'cpsp' Capital Spacing in Greek lookup 2 subtable" dx=36 dy=0 dh=72 dv=0
Position2: "'cpsp' Capital Spacing lookup 1 subtable" dx=36 dy=0 dh=72 dv=0
Position2: "'cpsp' Capital Spacing in Latin lookup 0 subtable" dx=36 dy=0 dh=72 dv=0
EndChar

StartChar: X
Encoding: 88 88 60
Width: 1267
Flags: W
LayerCount: 2
Back
Fore
SplineSet
675 931 m 1,0,-1
 1053 1456 l 1,1,-1
 1351 1456 l 1,2,-1
 802 723 l 1,3,-1
 1120 0 l 1,4,-1
 846 0 l 1,5,-1
 626 533 l 1,6,-1
 238 0 l 1,7,-1
 -61 0 l 1,8,-1
 500 745 l 1,9,-1
 189 1456 l 1,10,-1
 461 1456 l 1,11,-1
 675 931 l 1,0,-1
EndSplineSet
Substitution2: "'c2sc' Capitals to Small Capitals in Cyrillic lookup 3 subtable" X.c2sc
Substitution2: "'c2sc' Capitals to Small Capitals in Greek lookup 2 subtable" X.c2sc
Substitution2: "'c2sc' Capitals to Small Capitals lookup 1 subtable" X.c2sc
Substitution2: "'c2sc' Capitals to Small Capitals in Latin lookup 0 subtable" X.c2sc
Position2: "'cpsp' Capital Spacing in Cyrillic lookup 3 subtable" dx=36 dy=0 dh=72 dv=0
Position2: "'cpsp' Capital Spacing in Greek lookup 2 subtable" dx=36 dy=0 dh=72 dv=0
Position2: "'cpsp' Capital Spacing lookup 1 subtable" dx=36 dy=0 dh=72 dv=0
Position2: "'cpsp' Capital Spacing in Latin lookup 0 subtable" dx=36 dy=0 dh=72 dv=0
EndChar

StartChar: Y
Encoding: 89 89 61
Width: 1221
Flags: W
LayerCount: 2
Back
Fore
SplineSet
627 768 m 1,0,-1
 1071 1456 l 1,1,-1
 1357 1456 l 1,2,-1
 715 523 l 1,3,-1
 624 0 l 1,4,-1
 376 0 l 1,5,-1
 472 549 l 1,6,-1
 161 1456 l 1,7,-1
 422 1456 l 1,8,-1
 627 768 l 1,0,-1
EndSplineSet
Substitution2: "'c2sc' Capitals to Small Capitals in Cyrillic lookup 3 subtable" Y.c2sc
Substitution2: "'c2sc' Capitals to Small Capitals in Greek lookup 2 subtable" Y.c2sc
Substitution2: "'c2sc' Capitals to Small Capitals lookup 1 subtable" Y.c2sc
Substitution2: "'c2sc' Capitals to Small Capitals in Latin lookup 0 subtable" Y.c2sc
Position2: "'cpsp' Capital Spacing in Cyrillic lookup 3 subtable" dx=36 dy=0 dh=72 dv=0
Position2: "'cpsp' Capital Spacing in Greek lookup 2 subtable" dx=36 dy=0 dh=72 dv=0
Position2: "'cpsp' Capital Spacing lookup 1 subtable" dx=36 dy=0 dh=72 dv=0
Position2: "'cpsp' Capital Spacing in Latin lookup 0 subtable" dx=36 dy=0 dh=72 dv=0
EndChar

StartChar: Z
Encoding: 90 90 62
Width: 1206
Flags: W
LayerCount: 2
Back
Fore
SplineSet
314 202 m 1,0,-1
 1062 202 l 1,1,-1
 1026 0 l 1,2,-1
 -27 0 l 1,3,-1
 4 176 l 1,4,-1
 913 1252 l 1,5,-1
 195 1252 l 1,6,-1
 231 1456 l 1,7,-1
 1255 1456 l 1,8,-1
 1225 1284 l 1,9,-1
 314 202 l 1,0,-1
EndSplineSet
Substitution2: "'c2sc' Capitals to Small Capitals in Cyrillic lookup 3 subtable" Z.c2sc
Substitution2: "'c2sc' Capitals to Small Capitals in Greek lookup 2 subtable" Z.c2sc
Substitution2: "'c2sc' Capitals to Small Capitals lookup 1 subtable" Z.c2sc
Substitution2: "'c2sc' Capitals to Small Capitals in Latin lookup 0 subtable" Z.c2sc
Position2: "'cpsp' Capital Spacing in Cyrillic lookup 3 subtable" dx=36 dy=0 dh=72 dv=0
Position2: "'cpsp' Capital Spacing in Greek lookup 2 subtable" dx=36 dy=0 dh=72 dv=0
Position2: "'cpsp' Capital Spacing lookup 1 subtable" dx=36 dy=0 dh=72 dv=0
Position2: "'cpsp' Capital Spacing in Latin lookup 0 subtable" dx=36 dy=0 dh=72 dv=0
EndChar

StartChar: bracketleft
Encoding: 91 91 63
Width: 554
Flags: W
LayerCount: 2
Back
Fore
SplineSet
663 1488 m 1,0,-1
 504 1488 l 1,1,-1
 250 -135 l 1,2,-1
 410 -135 l 1,3,-1
 380 -324 l 1,4,-1
 -17 -324 l 1,5,-1
 296 1678 l 1,6,-1
 693 1678 l 1,7,-1
 663 1488 l 1,0,-1
EndSplineSet
EndChar

StartChar: backslash
Encoding: 92 92 64
Width: 840
Flags: W
LayerCount: 2
Back
Fore
SplineSet
172 1456 m 1,0,-1
 396 1456 l 1,1,-1
 712 -125 l 1,2,-1
 488 -125 l 1,3,-1
 172 1456 l 1,0,-1
EndSplineSet
EndChar

StartChar: bracketright
Encoding: 93 93 65
Width: 554
Flags: W
LayerCount: 2
Back
Fore
SplineSet
180 1678 m 1,0,-1
 579 1678 l 1,1,-1
 266 -324 l 1,2,-1
 -134 -324 l 1,3,-1
 -104 -135 l 1,4,-1
 58 -135 l 1,5,-1
 312 1488 l 1,6,-1
 149 1488 l 1,7,-1
 180 1678 l 1,0,-1
EndSplineSet
EndChar

StartChar: asciicircum
Encoding: 94 94 66
Width: 859
Flags: W
LayerCount: 2
Back
Fore
SplineSet
532 1188 m 1,0,-1
 279 729 l 1,1,-1
 68 729 l 1,2,-1
 484 1456 l 1,3,-1
 651 1456 l 1,4,-1
 814 729 l 1,5,-1
 625 729 l 1,6,-1
 532 1188 l 1,0,-1
EndSplineSet
EndChar

StartChar: underscore
Encoding: 95 95 67
Width: 906
Flags: W
LayerCount: 2
Back
Fore
SplineSet
756 -191 m 1,0,-1
 -135 -191 l 1,1,-1
 -101 0 l 1,2,-1
 790 0 l 1,3,-1
 756 -191 l 1,0,-1
EndSplineSet
EndChar

StartChar: grave
Encoding: 96 96 68
Width: 650
Flags: W
LayerCount: 2
Back
Fore
SplineSet
598 1233 m 1,0,-1
 417 1233 l 1,1,-1
 202 1536 l 1,2,-1
 456 1536 l 1,3,-1
 598 1233 l 1,0,-1
EndSplineSet
EndChar

StartChar: a
Encoding: 97 97 69
Width: 1085
Flags: W
LayerCount: 2
Back
Fore
SplineSet
659 0 m 1,0,1
 647 40 647 40 649 101 c 1,2,3
 515 -24 515 -24 360 -20 c 0,4,5
 219 -18 219 -18 126.5 70.5 c 128,-1,6
 34 159 34 159 40 295 c 0,7,8
 48 466 48 466 188 564 c 128,-1,9
 328 662 328 662 564 662 c 2,10,-1
 718 660 l 1,11,-1
 732 734 l 2,12,13
 738 773 738 773 732 807 c 0,14,15
 712 915 712 915 589 918 c 0,16,17
 513 920 513 920 455.5 879.5 c 128,-1,18
 398 839 398 839 385 771 c 1,19,-1
 148 769 l 1,20,21
 155 869 155 869 219 944.5 c 128,-1,22
 283 1020 283 1020 389 1062 c 128,-1,23
 495 1104 495 1104 613 1102 c 0,24,25
 790 1098 790 1098 889 995.5 c 128,-1,26
 988 893 988 893 971 730 c 1,27,-1
 888 223 l 1,28,-1
 880 133 l 2,29,30
 877 74 877 74 895 18 c 1,31,-1
 894 0 l 1,32,-1
 659 0 l 1,0,1
415 174 m 0,33,34
 490 172 490 172 554 208.5 c 128,-1,35
 618 245 618 245 663 303 c 1,36,-1
 700 508 l 1,37,-1
 587 509 l 2,38,39
 453 509 453 509 373 458.5 c 128,-1,40
 293 408 293 408 282 320 c 0,41,42
 274 253 274 253 311.5 214.5 c 128,-1,43
 349 176 349 176 415 174 c 0,33,34
EndSplineSet
Substitution2: "'smcp' Lowercase to Small Capitals in Cyrillic lookup 7 subtable" A.c2sc
Substitution2: "'smcp' Lowercase to Small Capitals in Greek lookup 6 subtable" A.c2sc
Substitution2: "'smcp' Lowercase to Small Capitals lookup 5 subtable" A.c2sc
Substitution2: "'smcp' Lowercase to Small Capitals in Latin lookup 4 subtable" A.c2sc
EndChar

StartChar: b
Encoding: 98 98 70
Width: 1128
Flags: W
LayerCount: 2
Back
Fore
SplineSet
1031 536 m 0,0,1
 1011 371 1011 371 942.5 237.5 c 128,-1,2
 874 104 874 104 772.5 40 c 128,-1,3
 671 -24 671 -24 544 -21 c 0,4,5
 363 -17 363 -17 271 118 c 1,6,-1
 233 0 l 1,7,-1
 16 0 l 1,8,-1
 282 1536 l 1,9,-1
 520 1536 l 1,10,-1
 412 977 l 1,11,12
 533 1106 533 1106 699 1102 c 0,13,14
 856 1098 856 1098 944.5 987 c 128,-1,15
 1033 876 1033 876 1038 683 c 0,16,17
 1039 623 1039 623 1031 536 c 0,0,1
803 670 m 0,18,19
 803 779 803 779 758 840.5 c 128,-1,20
 713 902 713 902 628 904 c 0,21,22
 485 908 485 908 386 766 c 1,23,-1
 308 318 l 1,24,25
 352 182 352 182 497 177 c 0,26,27
 617 174 617 174 694.5 269 c 128,-1,28
 772 364 772 364 794 537 c 0,29,30
 802 622 802 622 803 670 c 0,18,19
EndSplineSet
Substitution2: "'ss06' Style Set 6 in Cyrillic lookup 42 subtable" b.ss06
Substitution2: "'ss06' Style Set 6 in Greek lookup 41 subtable" b.ss06
Substitution2: "'ss06' Style Set 6 lookup 40 subtable" b.ss06
Substitution2: "'ss06' Style Set 6 in Latin lookup 39 subtable" b.ss06
Substitution2: "'smcp' Lowercase to Small Capitals in Cyrillic lookup 7 subtable" B.c2sc
Substitution2: "'smcp' Lowercase to Small Capitals in Greek lookup 6 subtable" B.c2sc
Substitution2: "'smcp' Lowercase to Small Capitals lookup 5 subtable" B.c2sc
Substitution2: "'smcp' Lowercase to Small Capitals in Latin lookup 4 subtable" B.c2sc
EndChar

StartChar: c
Encoding: 99 99 71
Width: 1050
Flags: W
LayerCount: 2
Back
Fore
SplineSet
488 173 m 0,0,1
 573 171 573 171 638.5 222.5 c 128,-1,2
 704 274 704 274 722 357 c 1,3,-1
 946 358 l 1,4,5
 935 251 935 251 868.5 163 c 128,-1,6
 802 75 802 75 698 26 c 128,-1,7
 594 -23 594 -23 481 -20 c 0,8,9
 342 -18 342 -18 244 52 c 128,-1,10
 146 122 146 122 101 245.5 c 128,-1,11
 56 369 56 369 71 521 c 2,12,-1
 74 556 l 2,13,14
 91 713 91 713 165.5 840.5 c 128,-1,15
 240 968 240 968 358 1037 c 128,-1,16
 476 1106 476 1106 620 1102 c 0,17,18
 796 1098 796 1098 901 985.5 c 128,-1,19
 1006 873 1006 873 1006 693 c 1,20,-1
 784 693 l 1,21,22
 784 786 784 786 738.5 845 c 128,-1,23
 693 904 693 904 607 908 c 0,24,25
 468 912 468 912 388 790 c 128,-1,26
 308 668 308 668 302 446 c 0,27,28
 295 177 295 177 488 173 c 0,0,1
EndSplineSet
Substitution2: "'ss06' Style Set 6 in Cyrillic lookup 42 subtable" c.ss06
Substitution2: "'ss06' Style Set 6 in Greek lookup 41 subtable" c.ss06
Substitution2: "'ss06' Style Set 6 lookup 40 subtable" c.ss06
Substitution2: "'ss06' Style Set 6 in Latin lookup 39 subtable" c.ss06
Substitution2: "'smcp' Lowercase to Small Capitals in Cyrillic lookup 7 subtable" C.c2sc
Substitution2: "'smcp' Lowercase to Small Capitals in Greek lookup 6 subtable" C.c2sc
Substitution2: "'smcp' Lowercase to Small Capitals lookup 5 subtable" C.c2sc
Substitution2: "'smcp' Lowercase to Small Capitals in Latin lookup 4 subtable" C.c2sc
EndChar

StartChar: d
Encoding: 100 100 72
Width: 1131
Flags: W
LayerCount: 2
Back
Fore
SplineSet
68 542 m 2,0,1
 88 709 88 709 158 842 c 128,-1,2
 228 975 228 975 331 1040.5 c 128,-1,3
 434 1106 434 1106 560 1103 c 0,4,5
 725 1099 725 1099 818 980 c 1,6,-1
 922 1536 l 1,7,-1
 1160 1536 l 1,8,-1
 893 0 l 1,9,-1
 681 0 l 1,10,-1
 697 112 l 1,11,12
 571 -25 571 -25 401 -21 c 0,13,14
 250 -19 250 -19 159.5 95.5 c 128,-1,15
 69 210 69 210 62 400 c 0,16,17
 59 462 59 462 65 521 c 2,18,-1
 68 542 l 2,0,1
298 449 m 0,19,20
 291 325 291 325 336.5 252 c 128,-1,21
 382 179 382 179 472 177 c 0,22,23
 609 173 609 173 709 310 c 1,24,-1
 790 775 l 1,25,26
 743 900 743 900 608 904 c 0,27,28
 472 908 472 908 389 784 c 128,-1,29
 306 660 306 660 298 449 c 0,19,20
EndSplineSet
Substitution2: "'ss06' Style Set 6 in Cyrillic lookup 42 subtable" d.ss06
Substitution2: "'ss06' Style Set 6 in Greek lookup 41 subtable" d.ss06
Substitution2: "'ss06' Style Set 6 lookup 40 subtable" d.ss06
Substitution2: "'ss06' Style Set 6 in Latin lookup 39 subtable" d.ss06
Substitution2: "'smcp' Lowercase to Small Capitals in Cyrillic lookup 7 subtable" D.c2sc
Substitution2: "'smcp' Lowercase to Small Capitals in Greek lookup 6 subtable" D.c2sc
Substitution2: "'smcp' Lowercase to Small Capitals lookup 5 subtable" D.c2sc
Substitution2: "'smcp' Lowercase to Small Capitals in Latin lookup 4 subtable" D.c2sc
EndChar

StartChar: e
Encoding: 101 101 73
Width: 1076
Flags: W
LayerCount: 2
Back
Fore
SplineSet
506 -20 m 0,0,1
 365 -17 365 -17 261.5 51 c 128,-1,2
 158 119 158 119 108.5 237 c 128,-1,3
 59 355 59 355 71 500 c 2,4,-1
 74 541 l 1,5,6
 92 706 92 706 170.5 837.5 c 128,-1,7
 249 969 249 969 366 1037 c 128,-1,8
 483 1105 483 1105 620 1102 c 0,9,10
 823 1098 823 1098 924.5 951 c 128,-1,11
 1026 804 1026 804 1001 568 c 1,12,-1
 987 464 l 1,13,-1
 306 464 l 1,14,15
 297 335 297 335 358 256 c 128,-1,16
 419 177 419 177 526 175 c 0,17,18
 679 170 679 170 808 308 c 1,19,-1
 928 182 l 1,20,21
 860 85 860 85 749 31.5 c 128,-1,22
 638 -22 638 -22 506 -20 c 0,0,1
607 908 m 0,23,24
 419 914 419 914 325 642 c 1,25,-1
 774 641 l 1,26,-1
 778 662 l 2,27,28
 785 708 785 708 779 752 c 0,29,30
 768 823 768 823 723 864 c 128,-1,31
 678 905 678 905 607 908 c 0,23,24
EndSplineSet
Substitution2: "'ss07' Style Set 7 in Cyrillic lookup 46 subtable" e.ss07
Substitution2: "'ss07' Style Set 7 in Greek lookup 45 subtable" e.ss07
Substitution2: "'ss07' Style Set 7 lookup 44 subtable" e.ss07
Substitution2: "'ss07' Style Set 7 in Latin lookup 43 subtable" e.ss07
Substitution2: "'smcp' Lowercase to Small Capitals in Cyrillic lookup 7 subtable" E.c2sc
Substitution2: "'smcp' Lowercase to Small Capitals in Greek lookup 6 subtable" E.c2sc
Substitution2: "'smcp' Lowercase to Small Capitals lookup 5 subtable" E.c2sc
Substitution2: "'smcp' Lowercase to Small Capitals in Latin lookup 4 subtable" E.c2sc
EndChar

StartChar: f
Encoding: 102 102 74
Width: 714
Flags: W
LayerCount: 2
Back
Fore
SplineSet
99 0 m 1,0,-1
 256 902 l 1,1,-1
 95 902 l 1,2,-1
 127 1082 l 1,3,-1
 287 1082 l 1,4,-1
 303 1198 l 2,5,6
 329 1366 329 1366 438.5 1464 c 128,-1,7
 548 1562 548 1562 721 1560 c 0,8,9
 782 1558 782 1558 862 1540 c 1,10,-1
 836 1350 l 1,11,12
 792 1360 792 1360 747 1360 c 0,13,14
 662 1361 662 1361 608 1314 c 128,-1,15
 554 1267 554 1267 539 1184 c 2,16,-1
 524 1082 l 1,17,-1
 738 1082 l 1,18,-1
 706 902 l 1,19,-1
 493 902 l 1,20,-1
 336 0 l 1,21,-1
 99 0 l 1,0,-1
EndSplineSet
Substitution2: "'smcp' Lowercase to Small Capitals in Cyrillic lookup 7 subtable" F.c2sc
Substitution2: "'smcp' Lowercase to Small Capitals in Greek lookup 6 subtable" F.c2sc
Substitution2: "'smcp' Lowercase to Small Capitals lookup 5 subtable" F.c2sc
Substitution2: "'smcp' Lowercase to Small Capitals in Latin lookup 4 subtable" F.c2sc
EndChar

StartChar: g
Encoding: 103 103 75
Width: 1136
Flags: W
LayerCount: 2
Back
Fore
SplineSet
70 542 m 0,0,1
 89 704 89 704 157.5 835 c 128,-1,2
 226 966 226 966 330 1035.5 c 128,-1,3
 434 1105 434 1105 568 1103 c 0,4,5
 746 1099 746 1099 837 972 c 1,6,-1
 874 1083 l 1,7,-1
 1090 1082 l 1,8,-1
 911 30 l 1,9,10
 881 -182 881 -182 732.5 -307.5 c 128,-1,11
 584 -433 584 -433 371 -427 c 0,12,13
 257 -425 257 -425 155 -375 c 128,-1,14
 53 -325 53 -325 -9 -243 c 1,15,-1
 117 -100 l 1,16,17
 212 -231 212 -231 365 -235 c 0,18,19
 481 -239 481 -239 564.5 -171.5 c 128,-1,20
 648 -104 648 -104 676 21 c 2,21,-1
 693 97 l 1,22,23
 568 -24 568 -24 409 -20 c 0,24,25
 257 -18 257 -18 165.5 95 c 128,-1,26
 74 208 74 208 65 399 c 0,27,28
 62 459 62 459 70 542 c 0,0,1
305 521 m 2,29,30
 299 470 299 470 301 411 c 0,31,32
 303 305 303 305 349 243 c 128,-1,33
 395 181 395 181 480 178 c 0,34,35
 615 173 615 173 716 303 c 1,36,-1
 801 781 l 1,37,38
 749 900 749 900 616 904 c 0,39,40
 496 907 496 907 414 811 c 128,-1,41
 332 715 332 715 307 542 c 1,42,-1
 305 521 l 2,29,30
EndSplineSet
Substitution2: "'ss07' Style Set 7 in Cyrillic lookup 46 subtable" g.ss07
Substitution2: "'ss07' Style Set 7 in Greek lookup 45 subtable" g.ss07
Substitution2: "'ss07' Style Set 7 lookup 44 subtable" g.ss07
Substitution2: "'ss07' Style Set 7 in Latin lookup 43 subtable" g.ss07
Substitution2: "'ss06' Style Set 6 in Cyrillic lookup 42 subtable" g.ss06
Substitution2: "'ss06' Style Set 6 in Greek lookup 41 subtable" g.ss06
Substitution2: "'ss06' Style Set 6 lookup 40 subtable" g.ss06
Substitution2: "'ss06' Style Set 6 in Latin lookup 39 subtable" g.ss06
Substitution2: "'ss01' Style Set 1 in Cyrillic lookup 22 subtable" g.ss01
Substitution2: "'ss01' Style Set 1 in Greek lookup 21 subtable" g.ss01
Substitution2: "'ss01' Style Set 1 lookup 20 subtable" g.ss01
Substitution2: "'ss01' Style Set 1 in Latin lookup 19 subtable" g.ss01
Substitution2: "'smcp' Lowercase to Small Capitals in Cyrillic lookup 7 subtable" G.c2sc
Substitution2: "'smcp' Lowercase to Small Capitals in Greek lookup 6 subtable" G.c2sc
Substitution2: "'smcp' Lowercase to Small Capitals lookup 5 subtable" G.c2sc
Substitution2: "'smcp' Lowercase to Small Capitals in Latin lookup 4 subtable" G.c2sc
EndChar

StartChar: h
Encoding: 104 104 76
Width: 1113
Flags: W
LayerCount: 2
Back
Fore
SplineSet
407 963 m 1,0,1
 542 1105 542 1105 714 1101 c 0,2,3
 868 1099 868 1099 942.5 992 c 128,-1,4
 1017 885 1017 885 998 696 c 1,5,-1
 882 0 l 1,6,-1
 645 0 l 1,7,-1
 763 699 l 2,8,9
 768 742 768 742 765 779 c 0,10,11
 752 901 752 901 621 904 c 0,12,13
 489 906 489 906 385 774 c 1,14,-1
 250 0 l 1,15,-1
 13 0 l 1,16,-1
 279 1536 l 1,17,-1
 517 1536 l 1,18,-1
 407 963 l 1,0,1
EndSplineSet
Substitution2: "'smcp' Lowercase to Small Capitals in Cyrillic lookup 7 subtable" H.c2sc
Substitution2: "'smcp' Lowercase to Small Capitals in Greek lookup 6 subtable" H.c2sc
Substitution2: "'smcp' Lowercase to Small Capitals lookup 5 subtable" H.c2sc
Substitution2: "'smcp' Lowercase to Small Capitals in Latin lookup 4 subtable" H.c2sc
EndChar

StartChar: i
Encoding: 105 105 77
Width: 517
Flags: W
LayerCount: 2
Back
Fore
SplineSet
268 0 m 1,0,-1
 31 0 l 1,1,-1
 219 1082 l 1,2,-1
 456 1082 l 1,3,-1
 268 0 l 1,0,-1
253 1359 m 0,4,5
 253 1414 253 1414 289 1453 c 128,-1,6
 325 1492 325 1492 386 1494 c 0,7,8
 444 1496 444 1496 482.5 1458.5 c 128,-1,9
 521 1421 521 1421 521 1367 c 0,10,11
 521 1310 521 1310 483.5 1273 c 128,-1,12
 446 1236 446 1236 388 1234 c 0,13,14
 331 1232 331 1232 292 1268.5 c 128,-1,15
 253 1305 253 1305 253 1359 c 0,4,5
EndSplineSet
Substitution2: "Single Substitution lookup 74 subtable" glyph1097
Substitution2: "'smcp' Lowercase to Small Capitals in Cyrillic lookup 7 subtable" I.c2sc
Substitution2: "'smcp' Lowercase to Small Capitals in Greek lookup 6 subtable" I.c2sc
Substitution2: "'smcp' Lowercase to Small Capitals lookup 5 subtable" I.c2sc
Substitution2: "'smcp' Lowercase to Small Capitals in Latin lookup 4 subtable" I.c2sc
EndChar

StartChar: j
Encoding: 106 106 78
Width: 508
Flags: W
LayerCount: 2
Back
Fore
SplineSet
451 1082 m 1,0,-1
 252 -95 l 1,1,2
 230 -263 230 -263 136 -352.5 c 128,-1,3
 42 -442 42 -442 -109 -440 c 0,4,5
 -173 -438 -173 -438 -244 -421 c 1,6,-1
 -224 -229 l 1,7,8
 -178 -240 -178 -240 -140 -240 c 0,9,10
 -13 -240 -13 -240 13 -91 c 2,11,-1
 214 1082 l 1,12,-1
 451 1082 l 1,0,-1
243 1359 m 0,13,14
 243 1417 243 1417 279 1454.5 c 128,-1,15
 315 1492 315 1492 375 1494 c 0,16,17
 433 1496 433 1496 471.5 1459.5 c 128,-1,18
 510 1423 510 1423 510 1367 c 0,19,20
 510 1310 510 1310 472.5 1273 c 128,-1,21
 435 1236 435 1236 377 1234 c 0,22,23
 317 1234 317 1234 280 1269.5 c 128,-1,24
 243 1305 243 1305 243 1359 c 0,13,14
EndSplineSet
Substitution2: "Single Substitution lookup 74 subtable" glyph1095
Substitution2: "'smcp' Lowercase to Small Capitals in Cyrillic lookup 7 subtable" J.c2sc
Substitution2: "'smcp' Lowercase to Small Capitals in Greek lookup 6 subtable" J.c2sc
Substitution2: "'smcp' Lowercase to Small Capitals lookup 5 subtable" J.c2sc
Substitution2: "'smcp' Lowercase to Small Capitals in Latin lookup 4 subtable" J.c2sc
EndChar

StartChar: k
Encoding: 107 107 79
Width: 1047
Flags: W
LayerCount: 2
Back
Fore
SplineSet
447 462 m 1,0,-1
 313 343 l 1,1,-1
 254 0 l 1,2,-1
 17 0 l 1,3,-1
 283 1536 l 1,4,-1
 520 1536 l 1,5,-1
 368 664 l 1,6,-1
 451 750 l 1,7,-1
 795 1082 l 1,8,-1
 1098 1082 l 1,9,-1
 618 620 l 1,10,-1
 934 0 l 1,11,-1
 677 0 l 1,12,-1
 447 462 l 1,0,-1
EndSplineSet
Substitution2: "'ss05' Style Set 5 in Cyrillic lookup 38 subtable" k.ss05
Substitution2: "'ss05' Style Set 5 in Greek lookup 37 subtable" k.ss05
Substitution2: "'ss05' Style Set 5 lookup 36 subtable" k.ss05
Substitution2: "'ss05' Style Set 5 in Latin lookup 35 subtable" k.ss05
Substitution2: "'ss04' Style Set 4 in Cyrillic lookup 34 subtable" k.ss04
Substitution2: "'ss04' Style Set 4 in Greek lookup 33 subtable" k.ss04
Substitution2: "'ss04' Style Set 4 lookup 32 subtable" k.ss04
Substitution2: "'ss04' Style Set 4 in Latin lookup 31 subtable" k.ss04
Substitution2: "'smcp' Lowercase to Small Capitals in Cyrillic lookup 7 subtable" K.c2sc
Substitution2: "'smcp' Lowercase to Small Capitals in Greek lookup 6 subtable" K.c2sc
Substitution2: "'smcp' Lowercase to Small Capitals lookup 5 subtable" K.c2sc
Substitution2: "'smcp' Lowercase to Small Capitals in Latin lookup 4 subtable" K.c2sc
EndChar

StartChar: l
Encoding: 108 108 80
Width: 517
Flags: W
LayerCount: 2
Back
Fore
SplineSet
268 0 m 1,0,-1
 31 0 l 1,1,-1
 298 1536 l 1,2,-1
 535 1536 l 1,3,-1
 268 0 l 1,0,-1
EndSplineSet
Substitution2: "'smcp' Lowercase to Small Capitals in Cyrillic lookup 7 subtable" L.c2sc
Substitution2: "'smcp' Lowercase to Small Capitals in Greek lookup 6 subtable" L.c2sc
Substitution2: "'smcp' Lowercase to Small Capitals lookup 5 subtable" L.c2sc
Substitution2: "'smcp' Lowercase to Small Capitals in Latin lookup 4 subtable" L.c2sc
EndChar

StartChar: m
Encoding: 109 109 81
Width: 1739
Flags: W
LayerCount: 2
Back
Fore
SplineSet
425 1083 m 1,0,-1
 404 968 l 1,1,2
 538 1106 538 1106 724 1102 c 0,3,4
 826 1100 826 1100 893.5 1055 c 128,-1,5
 961 1010 961 1010 985 936 c 1,6,7
 1135 1106 1135 1106 1329 1102 c 0,8,9
 1487 1098 1487 1098 1563.5 993.5 c 128,-1,10
 1640 889 1640 889 1621 701 c 1,11,-1
 1504 0 l 1,12,-1
 1267 0 l 1,13,-1
 1385 703 l 2,14,15
 1390 747 1390 747 1386 784 c 0,16,17
 1370 901 1370 901 1238 904 c 0,18,19
 1091 908 1091 908 1006 743 c 1,20,-1
 1003 721 l 1,21,-1
 879 0 l 1,22,-1
 641 0 l 1,23,-1
 759 700 l 2,24,25
 764 743 764 743 760 780 c 0,26,27
 744 901 744 901 612 904 c 0,28,29
 479 906 479 906 390 785 c 1,30,-1
 253 0 l 1,31,-1
 16 0 l 1,32,-1
 203 1082 l 1,33,-1
 425 1083 l 1,0,-1
EndSplineSet
Substitution2: "'smcp' Lowercase to Small Capitals in Cyrillic lookup 7 subtable" M.c2sc
Substitution2: "'smcp' Lowercase to Small Capitals in Greek lookup 6 subtable" M.c2sc
Substitution2: "'smcp' Lowercase to Small Capitals lookup 5 subtable" M.c2sc
Substitution2: "'smcp' Lowercase to Small Capitals in Latin lookup 4 subtable" M.c2sc
EndChar

StartChar: n
Encoding: 110 110 82
Width: 1115
Flags: W
LayerCount: 2
Back
Fore
SplineSet
423 1083 m 1,0,-1
 399 956 l 1,1,2
 538 1106 538 1106 720 1102 c 0,3,4
 872 1099 872 1099 945 993.5 c 128,-1,5
 1018 888 1018 888 999 699 c 1,6,-1
 882 0 l 1,7,-1
 645 0 l 1,8,-1
 763 702 l 2,9,10
 768 745 768 745 764 782 c 0,11,12
 751 901 751 901 622 904 c 0,13,14
 487 906 487 906 385 771 c 1,15,-1
 250 0 l 1,16,-1
 13 0 l 1,17,-1
 200 1082 l 1,18,-1
 423 1083 l 1,0,-1
EndSplineSet
Substitution2: "'smcp' Lowercase to Small Capitals in Cyrillic lookup 7 subtable" N.c2sc
Substitution2: "'smcp' Lowercase to Small Capitals in Greek lookup 6 subtable" N.c2sc
Substitution2: "'smcp' Lowercase to Small Capitals lookup 5 subtable" N.c2sc
Substitution2: "'smcp' Lowercase to Small Capitals in Latin lookup 4 subtable" N.c2sc
EndChar

StartChar: o
Encoding: 111 111 83
Width: 1141
Flags: W
LayerCount: 2
Back
Fore
SplineSet
73 545 m 1,0,1
 90 704 90 704 166.5 834 c 128,-1,2
 243 964 243 964 363 1035 c 128,-1,3
 483 1106 483 1106 629 1102 c 0,4,5
 768 1100 768 1100 869 1028 c 128,-1,6
 970 956 970 956 1016.5 831 c 128,-1,7
 1063 706 1063 706 1049 553 c 0,8,9
 1033 381 1033 381 955.5 249 c 128,-1,10
 878 117 878 117 757.5 46.5 c 128,-1,11
 637 -24 637 -24 490 -20 c 0,12,13
 352 -18 352 -18 251.5 53.5 c 128,-1,14
 151 125 151 125 104 249.5 c 128,-1,15
 57 374 57 374 70 524 c 1,16,-1
 73 545 l 1,0,1
306 408 m 0,17,18
 311 303 311 303 361.5 239.5 c 128,-1,19
 412 176 412 176 502 173 c 0,20,21
 624 170 624 170 706.5 267 c 128,-1,22
 789 364 789 364 810 532 c 1,23,-1
 816 630 l 1,24,25
 816 758 816 758 765 831 c 128,-1,26
 714 904 714 904 617 908 c 0,27,28
 465 912 465 912 377 759 c 0,29,30
 324 666 324 666 310 545 c 0,31,32
 302 461 302 461 306 408 c 0,17,18
EndSplineSet
Substitution2: "'ss06' Style Set 6 in Cyrillic lookup 42 subtable" o.ss06
Substitution2: "'ss06' Style Set 6 in Greek lookup 41 subtable" o.ss06
Substitution2: "'ss06' Style Set 6 lookup 40 subtable" o.ss06
Substitution2: "'ss06' Style Set 6 in Latin lookup 39 subtable" o.ss06
Substitution2: "'smcp' Lowercase to Small Capitals in Cyrillic lookup 7 subtable" O.c2sc
Substitution2: "'smcp' Lowercase to Small Capitals in Greek lookup 6 subtable" O.c2sc
Substitution2: "'smcp' Lowercase to Small Capitals lookup 5 subtable" O.c2sc
Substitution2: "'smcp' Lowercase to Small Capitals in Latin lookup 4 subtable" O.c2sc
EndChar

StartChar: p
Encoding: 112 112 84
Width: 1128
Flags: W
LayerCount: 2
Back
Fore
SplineSet
1029 537 m 0,0,1
 1009 375 1009 375 942.5 243 c 128,-1,2
 876 111 876 111 773.5 43.5 c 128,-1,3
 671 -24 671 -24 544 -21 c 0,4,5
 375 -17 375 -17 278 99 c 1,6,-1
 181 -416 l 1,7,-1
 -57 -416 l 1,8,-1
 203 1082 l 1,9,-1
 420 1083 l 1,10,-1
 402 971 l 1,11,12
 526 1106 526 1106 697 1102 c 0,13,14
 800 1101 800 1101 876 1049.5 c 128,-1,15
 952 998 952 998 992.5 900 c 128,-1,16
 1033 802 1033 802 1036 682 c 0,17,18
 1037 621 1037 621 1029 537 c 0,0,1
795 558 m 1,19,-1
 800 631 l 1,20,21
 803 760 803 760 757.5 831 c 128,-1,22
 712 902 712 902 621 904 c 0,23,24
 487 908 487 908 389 781 c 1,25,-1
 305 298 l 1,26,27
 350 177 350 177 488 173 c 0,28,29
 606 170 606 170 686.5 265 c 128,-1,30
 767 360 767 360 795 558 c 1,19,-1
EndSplineSet
Substitution2: "'ss06' Style Set 6 in Cyrillic lookup 42 subtable" p.ss06
Substitution2: "'ss06' Style Set 6 in Greek lookup 41 subtable" p.ss06
Substitution2: "'ss06' Style Set 6 lookup 40 subtable" p.ss06
Substitution2: "'ss06' Style Set 6 in Latin lookup 39 subtable" p.ss06
Substitution2: "'smcp' Lowercase to Small Capitals in Cyrillic lookup 7 subtable" P.c2sc
Substitution2: "'smcp' Lowercase to Small Capitals in Greek lookup 6 subtable" P.c2sc
Substitution2: "'smcp' Lowercase to Small Capitals lookup 5 subtable" P.c2sc
Substitution2: "'smcp' Lowercase to Small Capitals in Latin lookup 4 subtable" P.c2sc
EndChar

StartChar: q
Encoding: 113 113 85
Width: 1138
Flags: W
LayerCount: 2
Back
Fore
SplineSet
68 543 m 1,0,1
 88 714 88 714 159 846.5 c 128,-1,2
 230 979 230 979 333 1042.5 c 128,-1,3
 436 1106 436 1106 563 1103 c 0,4,5
 735 1099 735 1099 827 974 c 1,6,-1
 866 1083 l 1,7,-1
 1080 1082 l 1,8,-1
 820 -416 l 1,9,-1
 583 -416 l 1,10,-1
 681 93 l 1,11,12
 560 -24 560 -24 404 -20 c 0,13,14
 249 -18 249 -18 159 95.5 c 128,-1,15
 69 209 69 209 62 399 c 0,16,17
 59 462 59 462 65 522 c 2,18,-1
 68 543 l 1,0,1
303 522 m 1,19,-1
 298 450 l 1,20,21
 295 315 295 315 340.5 245.5 c 128,-1,22
 386 176 386 176 474 174 c 0,23,24
 549 171 549 171 604.5 205.5 c 128,-1,25
 660 240 660 240 705 296 c 1,26,-1
 793 790 l 1,27,28
 741 904 741 904 611 908 c 0,29,30
 497 911 497 911 417.5 822 c 128,-1,31
 338 733 338 733 310 569 c 2,32,-1
 303 522 l 1,19,-1
EndSplineSet
Substitution2: "'ss06' Style Set 6 in Cyrillic lookup 42 subtable" q.ss06
Substitution2: "'ss06' Style Set 6 in Greek lookup 41 subtable" q.ss06
Substitution2: "'ss06' Style Set 6 lookup 40 subtable" q.ss06
Substitution2: "'ss06' Style Set 6 in Latin lookup 39 subtable" q.ss06
Substitution2: "'smcp' Lowercase to Small Capitals in Cyrillic lookup 7 subtable" Q.c2sc
Substitution2: "'smcp' Lowercase to Small Capitals in Greek lookup 6 subtable" Q.c2sc
Substitution2: "'smcp' Lowercase to Small Capitals lookup 5 subtable" Q.c2sc
Substitution2: "'smcp' Lowercase to Small Capitals in Latin lookup 4 subtable" Q.c2sc
EndChar

StartChar: r
Encoding: 114 114 86
Width: 708
Flags: W
LayerCount: 2
Back
Fore
SplineSet
724 860 m 1,0,1
 678 870 678 870 631 870 c 0,2,3
 475 874 475 874 383 741 c 1,4,-1
 253 0 l 1,5,-1
 16 0 l 1,6,-1
 203 1082 l 1,7,-1
 428 1083 l 1,8,-1
 404 960 l 1,9,10
 515 1107 515 1107 660 1104 c 0,11,12
 693 1104 693 1104 751 1089 c 1,13,-1
 724 860 l 1,0,1
EndSplineSet
Substitution2: "'smcp' Lowercase to Small Capitals in Cyrillic lookup 7 subtable" R.c2sc
Substitution2: "'smcp' Lowercase to Small Capitals in Greek lookup 6 subtable" R.c2sc
Substitution2: "'smcp' Lowercase to Small Capitals lookup 5 subtable" R.c2sc
Substitution2: "'smcp' Lowercase to Small Capitals in Latin lookup 4 subtable" R.c2sc
EndChar

StartChar: s
Encoding: 115 115 87
Width: 1035
Flags: W
LayerCount: 2
Back
Fore
SplineSet
663 300 m 0,0,1
 680 399 680 399 534.5 437.5 c 128,-1,2
 389 476 389 476 336 499 c 0,3,4
 130 587 130 587 137 767 c 0,5,6
 142 913 142 913 269.5 1008.5 c 128,-1,7
 397 1104 397 1104 575 1102 c 0,8,9
 747 1100 747 1100 855.5 1005 c 128,-1,10
 964 910 964 910 962 756 c 1,11,-1
 727 757 l 1,12,13
 729 832 729 832 686 874.5 c 128,-1,14
 643 917 643 917 568 919 c 0,15,16
 489 919 489 919 432.5 880 c 128,-1,17
 376 841 376 841 367 778 c 0,18,19
 353 687 353 687 495 651.5 c 128,-1,20
 637 616 637 616 705 586 c 0,21,22
 903 499 903 499 896 314 c 0,23,24
 891 211 891 211 828.5 134.5 c 128,-1,25
 766 58 766 58 661 17.5 c 128,-1,26
 556 -23 556 -23 438 -20 c 0,27,28
 261 -18 261 -18 144.5 83 c 128,-1,29
 28 184 28 184 30 342 c 1,30,-1
 259 341 l 1,31,32
 261 254 261 254 311 209 c 128,-1,33
 361 164 361 164 448 163 c 0,34,35
 536 163 536 163 594.5 199.5 c 128,-1,36
 653 236 653 236 663 300 c 0,0,1
EndSplineSet
Substitution2: "'smcp' Lowercase to Small Capitals in Cyrillic lookup 7 subtable" S.c2sc
Substitution2: "'smcp' Lowercase to Small Capitals in Greek lookup 6 subtable" S.c2sc
Substitution2: "'smcp' Lowercase to Small Capitals lookup 5 subtable" S.c2sc
Substitution2: "'smcp' Lowercase to Small Capitals in Latin lookup 4 subtable" S.c2sc
EndChar

StartChar: t
Encoding: 116 116 88
Width: 671
Flags: W
LayerCount: 2
Back
Fore
SplineSet
547 1345 m 1,0,-1
 501 1082 l 1,1,-1
 686 1082 l 1,2,-1
 655 902 l 1,3,-1
 469 902 l 1,4,-1
 367 296 l 2,5,6
 364 271 364 271 366 251 c 0,7,8
 372 186 372 186 446 183 c 0,9,10
 483 183 483 183 530 192 c 1,11,-1
 514 2 l 1,12,13
 440 -19 440 -19 365 -19 c 0,14,15
 241 -17 241 -17 179.5 65.5 c 128,-1,16
 118 148 118 148 131 284 c 1,17,-1
 232 902 l 1,18,-1
 59 902 l 1,19,-1
 91 1082 l 1,20,-1
 263 1082 l 1,21,-1
 309 1345 l 1,22,-1
 547 1345 l 1,0,-1
EndSplineSet
Substitution2: "'smcp' Lowercase to Small Capitals in Cyrillic lookup 7 subtable" T.c2sc
Substitution2: "'smcp' Lowercase to Small Capitals in Greek lookup 6 subtable" T.c2sc
Substitution2: "'smcp' Lowercase to Small Capitals lookup 5 subtable" T.c2sc
Substitution2: "'smcp' Lowercase to Small Capitals in Latin lookup 4 subtable" T.c2sc
EndChar

StartChar: u
Encoding: 117 117 89
Width: 1114
Flags: W
LayerCount: 2
Back
Fore
SplineSet
685 107 m 1,0,1
 562 -24 562 -24 377 -20 c 0,2,3
 272 -18 272 -18 202.5 32 c 128,-1,4
 133 82 133 82 103.5 171.5 c 128,-1,5
 74 261 74 261 86 382 c 1,6,-1
 203 1082 l 1,7,-1
 440 1082 l 1,8,-1
 322 379 l 2,9,10
 318 342 318 342 321 307 c 0,11,12
 331 183 331 183 446 178 c 0,13,14
 603 172 603 172 700 304 c 1,15,-1
 836 1082 l 1,16,-1
 1073 1082 l 1,17,-1
 886 0 l 1,18,-1
 664 0 l 1,19,-1
 685 107 l 1,0,1
EndSplineSet
Substitution2: "'smcp' Lowercase to Small Capitals in Cyrillic lookup 7 subtable" U.c2sc
Substitution2: "'smcp' Lowercase to Small Capitals in Greek lookup 6 subtable" U.c2sc
Substitution2: "'smcp' Lowercase to Small Capitals lookup 5 subtable" U.c2sc
Substitution2: "'smcp' Lowercase to Small Capitals in Latin lookup 4 subtable" U.c2sc
EndChar

StartChar: v
Encoding: 118 118 90
Width: 993
Flags: W
LayerCount: 2
Back
Fore
SplineSet
442 311 m 1,0,-1
 784 1082 l 1,1,-1
 1037 1082 l 1,2,-1
 504 0 l 1,3,-1
 298 0 l 1,4,-1
 100 1082 l 1,5,-1
 338 1082 l 1,6,-1
 442 311 l 1,0,-1
EndSplineSet
Substitution2: "'smcp' Lowercase to Small Capitals in Cyrillic lookup 7 subtable" V.c2sc
Substitution2: "'smcp' Lowercase to Small Capitals in Greek lookup 6 subtable" V.c2sc
Substitution2: "'smcp' Lowercase to Small Capitals lookup 5 subtable" V.c2sc
Substitution2: "'smcp' Lowercase to Small Capitals in Latin lookup 4 subtable" V.c2sc
EndChar

StartChar: w
Encoding: 119 119 91
Width: 1486
Flags: W
LayerCount: 2
Back
Fore
SplineSet
993 337 m 1,0,-1
 1290 1082 l 1,1,-1
 1528 1082 l 1,2,-1
 1054 0 l 1,3,-1
 859 0 l 1,4,-1
 764 740 l 1,5,-1
 414 0 l 1,6,-1
 218 0 l 1,7,-1
 119 1082 l 1,8,-1
 343 1082 l 1,9,-1
 384 348 l 1,10,-1
 726 1082 l 1,11,-1
 905 1082 l 1,12,-1
 993 337 l 1,0,-1
EndSplineSet
Substitution2: "'smcp' Lowercase to Small Capitals in Cyrillic lookup 7 subtable" W.c2sc
Substitution2: "'smcp' Lowercase to Small Capitals in Greek lookup 6 subtable" W.c2sc
Substitution2: "'smcp' Lowercase to Small Capitals lookup 5 subtable" W.c2sc
Substitution2: "'smcp' Lowercase to Small Capitals in Latin lookup 4 subtable" W.c2sc
EndChar

StartChar: x
Encoding: 120 120 92
Width: 1009
Flags: W
LayerCount: 2
Back
Fore
SplineSet
511 728 m 1,0,-1
 766 1082 l 1,1,-1
 1043 1082 l 1,2,-1
 629 538 l 1,3,-1
 870 0 l 1,4,-1
 622 0 l 1,5,-1
 471 369 l 1,6,-1
 205 0 l 1,7,-1
 -71 0 l 1,8,-1
 356 560 l 1,9,-1
 123 1082 l 1,10,-1
 371 1082 l 1,11,-1
 511 728 l 1,0,-1
EndSplineSet
Substitution2: "'smcp' Lowercase to Small Capitals in Cyrillic lookup 7 subtable" X.c2sc
Substitution2: "'smcp' Lowercase to Small Capitals in Greek lookup 6 subtable" X.c2sc
Substitution2: "'smcp' Lowercase to Small Capitals lookup 5 subtable" X.c2sc
Substitution2: "'smcp' Lowercase to Small Capitals in Latin lookup 4 subtable" X.c2sc
EndChar

StartChar: y
Encoding: 121 121 93
Width: 977
Flags: W
LayerCount: 2
Back
Fore
SplineSet
440 350 m 1,0,-1
 780 1082 l 1,1,-1
 1042 1082 l 1,2,-1
 401 -187 l 1,3,4
 267 -443 267 -443 48 -440 c 0,5,6
 -6 -438 -6 -438 -75 -420 c 1,7,-1
 -55 -232 l 1,8,-1
 -12 -236 l 1,9,10
 74 -239 74 -239 130 -203.5 c 128,-1,11
 186 -168 186 -168 224 -93 c 2,12,-1
 281 19 l 1,13,-1
 100 1082 l 1,14,-1
 346 1082 l 1,15,-1
 440 350 l 1,0,-1
EndSplineSet
Substitution2: "'smcp' Lowercase to Small Capitals in Cyrillic lookup 7 subtable" Y.c2sc
Substitution2: "'smcp' Lowercase to Small Capitals in Greek lookup 6 subtable" Y.c2sc
Substitution2: "'smcp' Lowercase to Small Capitals lookup 5 subtable" Y.c2sc
Substitution2: "'smcp' Lowercase to Small Capitals in Latin lookup 4 subtable" Y.c2sc
EndChar

StartChar: z
Encoding: 122 122 94
Width: 1009
Flags: W
LayerCount: 2
Back
Fore
SplineSet
312 194 m 1,0,-1
 862 194 l 1,1,-1
 828 0 l 1,2,-1
 -25 0 l 1,3,-1
 5 171 l 1,4,-1
 653 886 l 1,5,-1
 138 886 l 1,6,-1
 173 1082 l 1,7,-1
 996 1082 l 1,8,-1
 967 917 l 1,9,-1
 312 194 l 1,0,-1
EndSplineSet
Substitution2: "'smcp' Lowercase to Small Capitals in Cyrillic lookup 7 subtable" Z.c2sc
Substitution2: "'smcp' Lowercase to Small Capitals in Greek lookup 6 subtable" Z.c2sc
Substitution2: "'smcp' Lowercase to Small Capitals lookup 5 subtable" Z.c2sc
Substitution2: "'smcp' Lowercase to Small Capitals in Latin lookup 4 subtable" Z.c2sc
EndChar

StartChar: braceleft
Encoding: 123 123 95
Width: 676
Flags: W
LayerCount: 2
Back
Fore
SplineSet
461 -359 m 1,0,1
 303 -308 303 -308 225 -188 c 128,-1,2
 147 -68 147 -68 166 106 c 1,3,-1
 194 310 l 2,4,5
 199 355 199 355 195 394 c 0,6,7
 182 516 182 516 48 527 c 1,8,-1
 65 705 l 1,9,10
 264 715 264 715 295 936 c 2,11,-1
 326 1160 l 1,12,13
 383 1496 383 1496 738 1600 c 1,14,-1
 773 1457 l 1,15,16
 580 1387 580 1387 545 1125 c 2,17,-1
 516 907 l 1,18,19
 483 710 483 710 298 614 c 1,20,21
 371 559 371 559 398 478 c 128,-1,22
 425 397 425 397 416 309 c 2,23,-1
 386 79 l 1,24,-1
 383 8 l 1,25,26
 380 -162 380 -162 511 -220 c 1,27,-1
 461 -359 l 1,0,1
EndSplineSet
EndChar

StartChar: bar
Encoding: 124 124 96
Width: 509
Flags: W
LayerCount: 2
Back
Fore
SplineSet
196 -270 m 1,0,-1
 32 -270 l 1,1,-1
 302 1456 l 1,2,-1
 466 1456 l 1,3,-1
 196 -270 l 1,0,-1
EndSplineSet
EndChar

StartChar: braceright
Encoding: 125 125 97
Width: 676
Flags: W
LayerCount: 2
Back
Fore
SplineSet
-103 -219 m 1,0,1
 81 -155 81 -155 122 93 c 1,2,-1
 156 337 l 1,3,4
 191 532 191 532 381 623 c 1,5,6
 269 697 269 697 255 841 c 0,7,8
 250 884 250 884 255 929 c 2,9,-1
 285 1159 l 1,10,-1
 289 1231 l 1,11,12
 289 1401 289 1401 160 1458 c 1,13,-1
 215 1595 l 1,14,15
 378 1541 378 1541 450 1420.5 c 128,-1,16
 522 1300 522 1300 504 1132 c 1,17,-1
 476 928 l 2,18,19
 471 882 471 882 475 844 c 0,20,21
 488 720 488 720 623 709 c 1,22,-1
 605 531 l 1,23,24
 405 521 405 521 375 302 c 2,25,-1
 344 79 l 1,26,27
 287 -261 287 -261 -68 -363 c 1,28,-1
 -103 -219 l 1,0,1
EndSplineSet
EndChar

StartChar: asciitilde
Encoding: 126 126 98
Width: 1330
Flags: W
LayerCount: 2
Back
Fore
SplineSet
1226 788 m 1,0,1
 1214 614 1214 614 1116 498 c 128,-1,2
 1018 382 1018 382 870 386 c 0,3,4
 789 388 789 388 726 425 c 128,-1,5
 663 462 663 462 605 520 c 128,-1,6
 547 578 547 578 513.5 596 c 128,-1,7
 480 614 480 614 447 614 c 0,8,9
 312 617 312 617 278 425 c 1,10,-1
 91 425 l 1,11,12
 105 600 105 600 204.5 710 c 128,-1,13
 304 820 304 820 449 816 c 0,14,15
 531 814 531 814 596 776 c 128,-1,16
 661 738 661 738 717 681 c 128,-1,17
 773 624 773 624 807 606 c 128,-1,18
 841 588 841 588 872 588 c 0,19,20
 940 588 940 588 986.5 640.5 c 128,-1,21
 1033 693 1033 693 1049 785 c 1,22,-1
 1226 788 l 1,0,1
EndSplineSet
EndChar

StartChar: exclamdown
Encoding: 161 161 100
Width: 536
Flags: W
LayerCount: 2
Back
Fore
SplineSet
175 662 m 1,0,-1
 379 662 l 1,1,-1
 225 -364 l 1,2,-1
 -26 -364 l 1,3,-1
 175 662 l 1,0,-1
462 975 m 0,4,5
 462 918 462 918 425 879.5 c 128,-1,6
 388 841 388 841 329 839 c 128,-1,7
 270 837 270 837 232 874 c 128,-1,8
 194 911 194 911 194 967 c 0,9,10
 194 1024 194 1024 231 1062 c 128,-1,11
 268 1100 268 1100 327 1102 c 0,12,13
 385 1104 385 1104 423.5 1066.5 c 128,-1,14
 462 1029 462 1029 462 975 c 0,4,5
EndSplineSet
EndChar

StartChar: cent
Encoding: 162 162 101
Width: 1125
Flags: W
LayerCount: 2
Back
Fore
SplineSet
502 173 m 0,0,1
 590 171 590 171 654 223 c 128,-1,2
 718 275 718 275 738 357 c 1,3,-1
 961 358 l 1,4,5
 947 217 947 217 840 117.5 c 128,-1,6
 733 18 733 18 573 -11 c 1,7,-1
 526 -245 l 1,8,-1
 330 -245 l 1,9,-1
 378 -9 l 1,10,11
 271 18 271 18 202.5 91.5 c 128,-1,12
 134 165 134 165 105 276.5 c 128,-1,13
 76 388 76 388 90 520 c 2,14,-1
 92 540 l 2,15,16
 117 769 117 769 240 914 c 128,-1,17
 363 1059 363 1059 556 1093 c 1,18,-1
 602 1318 l 1,19,-1
 797 1318 l 1,20,-1
 751 1091 l 1,21,22
 883 1058 883 1058 956.5 953 c 128,-1,23
 1030 848 1030 848 1028 693 c 1,24,-1
 807 693 l 1,25,26
 807 790 807 790 761 846.5 c 128,-1,27
 715 903 715 903 632 907 c 0,28,29
 489 913 489 913 404.5 780 c 128,-1,30
 320 647 320 647 320 407 c 0,31,32
 320 301 320 301 366 238.5 c 128,-1,33
 412 176 412 176 502 173 c 0,0,1
EndSplineSet
EndChar

StartChar: sterling
Encoding: 163 163 102
Width: 1179
Flags: W
LayerCount: 2
Back
Fore
SplineSet
494 598 m 1,0,-1
 472 424 l 2,1,2
 455 294 455 294 366 199 c 1,3,-1
 1046 202 l 1,4,-1
 1010 0 l 1,5,-1
 -10 0 l 1,6,-1
 26 201 l 1,7,-1
 95 199 l 1,8,9
 195 235 195 235 223 413 c 1,10,-1
 247 598 l 1,11,-1
 90 598 l 1,12,-1
 125 797 l 1,13,-1
 276 797 l 1,14,-1
 307 1048 l 2,15,16
 323 1175 323 1175 392.5 1274.5 c 128,-1,17
 462 1374 462 1374 570.5 1426.5 c 128,-1,18
 679 1479 679 1479 806 1475 c 0,19,20
 986 1471 986 1471 1087.5 1362.5 c 128,-1,21
 1189 1254 1189 1254 1181 1072 c 1,22,-1
 942 1073 l 1,23,24
 947 1168 947 1168 906 1219.5 c 128,-1,25
 865 1271 865 1271 782 1275 c 0,26,27
 692 1277 692 1277 628.5 1210 c 128,-1,28
 565 1143 565 1143 551 1031 c 2,29,-1
 522 797 l 1,30,-1
 824 797 l 1,31,-1
 789 598 l 1,32,-1
 494 598 l 1,0,-1
EndSplineSet
Substitution2: "'c2sc' Capitals to Small Capitals in Cyrillic lookup 3 subtable" sterling.c2sc
Substitution2: "'c2sc' Capitals to Small Capitals in Greek lookup 2 subtable" sterling.c2sc
Substitution2: "'c2sc' Capitals to Small Capitals lookup 1 subtable" sterling.c2sc
Substitution2: "'c2sc' Capitals to Small Capitals in Latin lookup 0 subtable" sterling.c2sc
Position2: "'cpsp' Capital Spacing in Cyrillic lookup 3 subtable" dx=36 dy=0 dh=72 dv=0
Position2: "'cpsp' Capital Spacing in Greek lookup 2 subtable" dx=36 dy=0 dh=72 dv=0
Position2: "'cpsp' Capital Spacing lookup 1 subtable" dx=36 dy=0 dh=72 dv=0
Position2: "'cpsp' Capital Spacing in Latin lookup 0 subtable" dx=36 dy=0 dh=72 dv=0
EndChar

StartChar: currency
Encoding: 164 164 103
Width: 1404
Flags: W
LayerCount: 2
Back
Fore
SplineSet
980 105 m 1,0,1
 798 -24 798 -24 610 -20 c 0,2,3
 415 -16 415 -16 280 106 c 1,4,-1
 128 -26 l 1,5,-1
 8 129 l 1,6,-1
 162 257 l 1,7,8
 135 342 135 342 125 428 c 0,9,10
 106 575 106 575 150 717 c 128,-1,11
 194 859 194 859 296 976 c 1,12,-1
 181 1131 l 1,13,-1
 332 1264 l 1,14,-1
 442 1121 l 1,15,16
 617 1237 617 1237 795 1233 c 0,17,18
 980 1231 980 1231 1116 1117 c 1,19,-1
 1286 1265 l 1,20,-1
 1407 1109 l 1,21,-1
 1238 967 l 1,22,23
 1300 782 1300 782 1280 615 c 0,24,25
 1254 414 1254 414 1123 256 c 1,26,-1
 1234 107 l 1,27,-1
 1082 -27 l 1,28,-1
 980 105 l 1,0,1
306 599 m 0,29,30
 291 489 291 489 325 388.5 c 128,-1,31
 359 288 359 288 436 227.5 c 128,-1,32
 513 167 513 167 618 163 c 0,33,34
 731 159 731 159 835.5 219.5 c 128,-1,35
 940 280 940 280 1011.5 388.5 c 128,-1,36
 1083 497 1083 497 1099 616 c 0,37,38
 1114 726 1114 726 1080 825.5 c 128,-1,39
 1046 925 1046 925 969 985 c 128,-1,40
 892 1045 892 1045 787 1049 c 0,41,42
 673 1053 673 1053 567.5 992 c 128,-1,43
 462 931 462 931 392 825 c 128,-1,44
 322 719 322 719 306 599 c 0,29,30
EndSplineSet
EndChar

StartChar: yen
Encoding: 165 165 104
Width: 1221
Flags: W
LayerCount: 2
Back
Fore
SplineSet
634 822 m 1,0,-1
 1050 1456 l 1,1,-1
 1336 1456 l 1,2,-1
 831 742 l 1,3,-1
 1085 742 l 1,4,-1
 1058 590 l 1,5,-1
 720 590 l 1,6,-1
 696 452 l 1,7,-1
 1035 452 l 1,8,-1
 1008 301 l 1,9,-1
 670 301 l 1,10,-1
 618 0 l 1,11,-1
 371 0 l 1,12,-1
 424 301 l 1,13,-1
 80 301 l 1,14,-1
 107 452 l 1,15,-1
 450 452 l 1,16,-1
 474 590 l 1,17,-1
 130 590 l 1,18,-1
 157 742 l 1,19,-1
 437 742 l 1,20,-1
 179 1456 l 1,21,-1
 440 1456 l 1,22,-1
 634 822 l 1,0,-1
EndSplineSet
Substitution2: "'c2sc' Capitals to Small Capitals in Cyrillic lookup 3 subtable" yen.c2sc
Substitution2: "'c2sc' Capitals to Small Capitals in Greek lookup 2 subtable" yen.c2sc
Substitution2: "'c2sc' Capitals to Small Capitals lookup 1 subtable" yen.c2sc
Substitution2: "'c2sc' Capitals to Small Capitals in Latin lookup 0 subtable" yen.c2sc
Position2: "'cpsp' Capital Spacing in Cyrillic lookup 3 subtable" dx=36 dy=0 dh=72 dv=0
Position2: "'cpsp' Capital Spacing in Greek lookup 2 subtable" dx=36 dy=0 dh=72 dv=0
Position2: "'cpsp' Capital Spacing lookup 1 subtable" dx=36 dy=0 dh=72 dv=0
Position2: "'cpsp' Capital Spacing in Latin lookup 0 subtable" dx=36 dy=0 dh=72 dv=0
EndChar

StartChar: brokenbar
Encoding: 166 166 105
Width: 503
Flags: W
LayerCount: 2
Back
Fore
SplineSet
-20 -270 m 1,0,-1
 119 525 l 1,1,-1
 342 525 l 1,2,-1
 204 -270 l 1,3,-1
 -20 -270 l 1,0,-1
372 698 m 1,4,-1
 148 698 l 1,5,-1
 280 1456 l 1,6,-1
 504 1456 l 1,7,-1
 372 698 l 1,4,-1
EndSplineSet
EndChar

StartChar: section
Encoding: 167 167 106
Width: 1244
Flags: W
LayerCount: 2
Back
Fore
SplineSet
1106 463 m 0,0,1
 1092 282 1092 282 892 177 c 1,2,3
 989 73 989 73 976 -95 c 0,4,5
 967 -216 967 -216 895.5 -302 c 128,-1,6
 824 -388 824 -388 704 -432.5 c 128,-1,7
 584 -477 584 -477 439 -474 c 0,8,9
 215 -472 215 -472 89.5 -359 c 128,-1,10
 -36 -246 -36 -246 -31 -49 c 1,11,-1
 209 -49 l 1,12,13
 203 -156 203 -156 266 -216.5 c 128,-1,14
 329 -277 329 -277 449 -279 c 0,15,16
 569 -279 569 -279 647.5 -230 c 128,-1,17
 726 -181 726 -181 739 -98 c 0,18,19
 760 22 760 22 575 87 c 2,20,-1
 429 135 l 1,21,-1
 340 170 l 1,22,23
 63 289 63 289 84 534 c 0,24,25
 98 718 98 718 296 821 c 1,26,27
 200 930 200 930 213 1094 c 0,28,29
 227 1270 227 1270 376 1374 c 128,-1,30
 525 1478 525 1478 752 1476 c 0,31,32
 966 1472 966 1472 1083.5 1358 c 128,-1,33
 1201 1244 1201 1244 1192 1046 c 1,34,-1
 956 1047 l 1,35,36
 962 1155 962 1155 904 1216.5 c 128,-1,37
 846 1278 846 1278 741 1280 c 0,38,39
 627 1282 627 1282 549 1236 c 0,40,41
 466 1187 466 1187 452 1097 c 0,42,43
 430 963 430 963 620 906.5 c 128,-1,44
 810 850 810 850 894 807 c 0,45,46
 1123 691 1123 691 1106 463 c 0,0,1
465 723 m 1,47,48
 344 668 344 668 324 550 c 0,49,50
 302 414 302 414 484 353 c 2,51,-1
 679 289 l 1,52,-1
 719 274 l 1,53,54
 848 333 848 333 868 447 c 0,55,56
 890 576 890 576 696 644 c 2,57,-1
 465 723 l 1,47,48
EndSplineSet
EndChar

StartChar: dieresis
Encoding: 168 168 107
Width: 884
Flags: W
LayerCount: 2
Back
Fore
SplineSet
332 1485 m 0,0,1
 386 1485 386 1485 421 1451.5 c 128,-1,2
 456 1418 456 1418 456 1369 c 0,3,4
 456 1318 456 1318 421 1283.5 c 128,-1,5
 386 1249 386 1249 333 1247 c 0,6,7
 277 1247 277 1247 243 1281 c 128,-1,8
 209 1315 209 1315 209 1363 c 128,-1,9
 209 1411 209 1411 243 1447 c 128,-1,10
 277 1483 277 1483 332 1485 c 0,0,1
775 1484 m 0,11,12
 831 1484 831 1484 865 1450 c 128,-1,13
 899 1416 899 1416 899 1368 c 0,14,15
 899 1317 899 1317 864 1282.5 c 128,-1,16
 829 1248 829 1248 776 1246 c 0,17,18
 721 1246 721 1246 686.5 1279 c 128,-1,19
 652 1312 652 1312 652 1362 c 128,-1,20
 652 1412 652 1412 686.5 1447 c 128,-1,21
 721 1482 721 1482 775 1484 c 0,11,12
EndSplineSet
EndChar

StartChar: copyright
Encoding: 169 169 108
Width: 1566
Flags: W
LayerCount: 2
Back
Fore
SplineSet
1091 596 m 1,0,1
 1079 446 1079 446 986.5 362 c 128,-1,2
 894 278 894 278 741 282 c 0,3,4
 595 286 595 286 513 394 c 128,-1,5
 431 502 431 502 445 669 c 2,6,-1
 455 770 l 2,7,8
 474 958 474 958 578 1068 c 128,-1,9
 682 1178 682 1178 840 1176 c 0,10,11
 989 1172 989 1172 1066 1087.5 c 128,-1,12
 1143 1003 1143 1003 1139 860 c 1,13,-1
 987 861 l 1,14,15
 992 951 992 951 956 995.5 c 128,-1,16
 920 1040 920 1040 839 1042 c 0,17,18
 746 1044 746 1044 684.5 973 c 128,-1,19
 623 902 623 902 608.5 778 c 128,-1,20
 594 654 594 654 594 627 c 2,21,-1
 596 583 l 2,22,23
 601 508 601 508 638.5 464 c 128,-1,24
 676 420 676 420 742 417 c 0,25,26
 909 410 909 410 940 595 c 1,27,-1
 1091 596 l 1,0,1
233 571 m 0,28,29
 252 367 252 367 380.5 236.5 c 128,-1,30
 509 106 509 106 697 104 c 0,31,32
 881 100 881 100 1045.5 209.5 c 128,-1,33
 1210 319 1210 319 1301.5 506.5 c 128,-1,34
 1393 694 1393 694 1375 887 c 0,35,36
 1356 1089 1356 1089 1230 1217.5 c 128,-1,37
 1104 1346 1104 1346 912 1351 c 0,38,39
 727 1355 727 1355 562.5 1246 c 128,-1,40
 398 1137 398 1137 305.5 949.5 c 128,-1,41
 213 762 213 762 233 571 c 0,28,29
115 722 m 0,42,43
 132 872 132 872 200.5 1011.5 c 128,-1,44
 269 1151 269 1151 381 1259.5 c 128,-1,45
 493 1368 493 1368 627.5 1423.5 c 128,-1,46
 762 1479 762 1479 906 1476 c 0,47,48
 1084 1474 1084 1474 1227 1375.5 c 128,-1,49
 1370 1277 1370 1277 1441.5 1104 c 128,-1,50
 1513 931 1513 931 1492 735 c 0,51,52
 1470 534 1470 534 1355 355 c 128,-1,53
 1240 176 1240 176 1066.5 76 c 128,-1,54
 893 -24 893 -24 702 -20 c 0,55,56
 520 -16 520 -16 379 82 c 128,-1,57
 238 180 238 180 166 354 c 128,-1,58
 94 528 94 528 115 722 c 0,42,43
EndSplineSet
EndChar

StartChar: ordfeminine
Encoding: 170 170 109
Width: 896
Flags: W
LayerCount: 2
Back
Fore
SplineSet
622 703 m 1,0,1
 617 743 617 743 619 773 c 1,2,3
 526 691 526 691 417 691 c 0,4,5
 311 691 311 691 250.5 752.5 c 128,-1,6
 190 814 190 814 194 911 c 0,7,8
 196 1026 196 1026 289.5 1088.5 c 128,-1,9
 383 1151 383 1151 551 1151 c 2,10,-1
 655 1150 l 1,11,-1
 666 1203 l 2,12,13
 670 1228 670 1228 669 1250 c 0,14,15
 662 1325 662 1325 586 1328 c 0,16,17
 467 1332 467 1332 440 1229 c 1,18,-1
 268 1243 l 1,19,20
 279 1354 279 1354 367.5 1416.5 c 128,-1,21
 456 1479 456 1479 586 1477 c 0,22,23
 708 1475 708 1475 778 1400 c 128,-1,24
 848 1325 848 1325 838 1200 c 1,25,-1
 784 853 l 1,26,-1
 780 795 l 2,27,28
 779 750 779 750 788 703 c 1,29,-1
 622 703 l 1,0,1
457 833 m 0,30,31
 526 833 526 833 616 895 c 1,32,-1
 643 1033 l 1,33,-1
 560 1033 l 2,34,35
 478 1030 478 1030 427 999 c 128,-1,36
 376 968 376 968 368 915 c 0,37,38
 361 877 361 877 385.5 855 c 128,-1,39
 410 833 410 833 457 833 c 0,30,31
EndSplineSet
EndChar

StartChar: logicalnot
Encoding: 172 172 111
Width: 1109
Flags: W
LayerCount: 2
Back
Fore
SplineSet
895 374 m 1,0,-1
 699 374 l 1,1,-1
 745 634 l 1,2,-1
 128 634 l 1,3,-1
 159 805 l 1,4,-1
 970 805 l 1,5,-1
 895 374 l 1,0,-1
EndSplineSet
EndChar

StartChar: registered
Encoding: 174 174 113
Width: 1566
Flags: W
LayerCount: 2
Back
Fore
SplineSet
115 722 m 0,0,1
 137 920 137 920 248 1096.5 c 128,-1,2
 359 1273 359 1273 534 1376.5 c 128,-1,3
 709 1480 709 1480 906 1476 c 0,4,5
 1084 1474 1084 1474 1227 1375.5 c 128,-1,6
 1370 1277 1370 1277 1441.5 1104 c 128,-1,7
 1513 931 1513 931 1492 735 c 0,8,9
 1470 534 1470 534 1355 355 c 128,-1,10
 1240 176 1240 176 1066.5 76 c 128,-1,11
 893 -24 893 -24 702 -20 c 0,12,13
 520 -16 520 -16 379 82 c 128,-1,14
 238 180 238 180 166 354 c 128,-1,15
 94 528 94 528 115 722 c 0,0,1
232 571 m 0,16,17
 244 440 244 440 307 332.5 c 128,-1,18
 370 225 370 225 470.5 166 c 128,-1,19
 571 107 571 107 697 104 c 0,20,21
 853 100 853 100 1000.5 182 c 128,-1,22
 1148 264 1148 264 1248.5 414.5 c 128,-1,23
 1349 565 1349 565 1372 736 c 0,24,25
 1393 895 1393 895 1340.5 1038 c 128,-1,26
 1288 1181 1288 1181 1176 1264 c 128,-1,27
 1064 1347 1064 1347 912 1351 c 0,28,29
 727 1355 727 1355 562.5 1246 c 128,-1,30
 398 1137 398 1137 306 951 c 128,-1,31
 214 765 214 765 232 571 c 0,16,17
654 653 m 1,32,-1
 601 316 l 1,33,-1
 453 316 l 1,34,-1
 586 1166 l 1,35,-1
 846 1165 l 1,36,37
 989 1160 989 1160 1063 1093 c 128,-1,38
 1137 1026 1137 1026 1132 913 c 0,39,40
 1125 797 1125 797 988 721 c 1,41,42
 1061 675 1061 675 1068 575 c 0,43,44
 1070 544 1070 544 1063.5 483.5 c 128,-1,45
 1057 423 1057 423 1058 395 c 2,46,-1
 1062 333 l 1,47,-1
 1061 315 l 1,48,-1
 912 315 l 1,49,50
 907 352 907 352 909 388 c 0,51,52
 910 421 910 421 922 516 c 0,53,54
 928 579 928 579 906 613 c 128,-1,55
 884 647 884 647 818 651 c 2,56,-1
 654 653 l 1,32,-1
674 787 m 1,57,-1
 803 786 l 2,58,59
 877 788 877 788 927.5 821.5 c 128,-1,60
 978 855 978 855 988 909 c 0,61,62
 999 968 999 968 969.5 998.5 c 128,-1,63
 940 1029 940 1029 851 1032 c 2,64,-1
 713 1033 l 1,65,-1
 674 787 l 1,57,-1
EndSplineSet
EndChar

StartChar: macron
Encoding: 175 175 114
Width: 967
Flags: W
LayerCount: 2
Back
Fore
SplineSet
946 1298 m 1,0,-1
 239 1298 l 1,1,-1
 264 1456 l 1,2,-1
 971 1456 l 1,3,-1
 946 1298 l 1,0,-1
EndSplineSet
EndChar

StartChar: degree
Encoding: 176 176 115
Width: 765
Flags: W
LayerCount: 2
Back
Fore
SplineSet
230 1199 m 0,0,1
 232 1310 232 1310 314 1394.5 c 128,-1,2
 396 1479 396 1479 507 1477 c 0,3,4
 606 1475 606 1475 673 1398.5 c 128,-1,5
 740 1322 740 1322 738 1217 c 0,6,7
 734 1103 734 1103 654 1021.5 c 128,-1,8
 574 940 574 940 466 942 c 0,9,10
 364 944 364 944 296 1019 c 128,-1,11
 228 1094 228 1094 230 1199 c 0,0,1
366 1201 m 0,12,13
 360 1157 360 1157 387 1120.5 c 128,-1,14
 414 1084 414 1084 463 1084 c 0,15,16
 518 1084 518 1084 558 1123.5 c 128,-1,17
 598 1163 598 1163 604 1215 c 0,18,19
 610 1264 610 1264 583.5 1300.5 c 128,-1,20
 557 1337 557 1337 510 1337 c 0,21,22
 456 1337 456 1337 414 1295 c 128,-1,23
 372 1253 372 1253 366 1201 c 0,12,13
EndSplineSet
EndChar

StartChar: plusminus
Encoding: 177 177 116
Width: 1075
Flags: W
LayerCount: 2
Back
Fore
SplineSet
696 899 m 1,0,-1
 1029 899 l 1,1,-1
 997 700 l 1,2,-1
 665 700 l 1,3,-1
 604 312 l 1,4,-1
 393 312 l 1,5,-1
 454 700 l 1,6,-1
 107 700 l 1,7,-1
 139 899 l 1,8,-1
 484 899 l 1,9,-1
 544 1276 l 1,10,-1
 755 1276 l 1,11,-1
 696 899 l 1,0,-1
852 1 m 1,12,-1
 27 1 l 1,13,-1
 58 197 l 1,14,-1
 883 197 l 1,15,-1
 852 1 l 1,12,-1
EndSplineSet
EndChar

StartChar: uni00B2
Encoding: 178 178 117
Width: 745
Flags: W
LayerCount: 2
Back
Fore
SplineSet
681 667 m 1,0,-1
 86 667 l 1,1,-1
 110 802 l 1,2,-1
 452 1083 l 2,3,4
 549 1166 549 1166 561 1233 c 0,5,6
 568 1274 568 1274 546.5 1297.5 c 128,-1,7
 525 1321 525 1321 484 1322 c 0,8,9
 426 1322 426 1322 392.5 1286.5 c 128,-1,10
 359 1251 359 1251 347 1199 c 1,11,-1
 165 1198 l 1,12,13
 175 1319 175 1319 262.5 1395 c 128,-1,14
 350 1471 350 1471 480 1469 c 0,15,16
 607 1467 607 1467 680 1401.5 c 128,-1,17
 753 1336 753 1336 748 1232 c 0,18,19
 743 1106 743 1106 593 987 c 1,20,-1
 514 927 l 1,21,-1
 357 817 l 1,22,-1
 708 815 l 1,23,-1
 681 667 l 1,0,-1
EndSplineSet
EndChar

StartChar: uni00B3
Encoding: 179 179 118
Width: 745
Flags: W
LayerCount: 2
Back
Fore
SplineSet
345 1132 m 1,0,-1
 428 1132 l 2,1,2
 489 1134 489 1134 527.5 1162 c 128,-1,3
 566 1190 566 1190 573 1236 c 0,4,5
 582 1303 582 1303 508 1316 c 1,6,-1
 485 1318 l 1,7,8
 392 1320 392 1320 364 1244 c 1,9,-1
 178 1243 l 1,10,11
 187 1348 187 1348 270 1409 c 128,-1,12
 353 1470 353 1470 478 1468 c 0,13,14
 607 1465 607 1465 683.5 1405.5 c 128,-1,15
 760 1346 760 1346 755 1248 c 0,16,17
 752 1189 752 1189 715.5 1145.5 c 128,-1,18
 679 1102 679 1102 597 1064 c 1,19,20
 715 1023 715 1023 711 894 c 0,21,22
 708 783 708 783 614 718 c 128,-1,23
 520 653 520 653 381 655 c 0,24,25
 256 657 256 657 179.5 722.5 c 128,-1,26
 103 788 103 788 103 897 c 1,27,-1
 280 896 l 1,28,29
 284 807 284 807 390 805 c 0,30,31
 444 805 444 805 485.5 833 c 128,-1,32
 527 861 527 861 534 908 c 0,33,34
 547 997 547 997 427 1002 c 1,35,-1
 335 1002 l 1,36,-1
 345 1132 l 1,0,-1
EndSplineSet
EndChar

StartChar: acute
Encoding: 180 180 119
Width: 657
Flags: W
LayerCount: 2
Back
Fore
SplineSet
437 1536 m 1,0,-1
 722 1536 l 1,1,-1
 406 1233 l 1,2,-1
 200 1233 l 1,3,-1
 437 1536 l 1,0,-1
EndSplineSet
EndChar

StartChar: mu
Encoding: 181 181 120
Width: 1185
Flags: W
LayerCount: 2
Back
Fore
SplineSet
461 1082 m 1,0,-1
 359 460 l 1,1,2
 351 375 351 375 353 335 c 0,3,4
 358 178 358 178 491 175 c 0,5,6
 643 171 643 171 733 295 c 1,7,-1
 871 1082 l 1,8,-1
 1108 1082 l 1,9,-1
 921 0 l 1,10,-1
 706 0 l 1,11,-1
 721 86 l 1,12,13
 617 -24 617 -24 477 -22 c 0,14,15
 369 -22 369 -22 287 35 c 1,16,-1
 201 -416 l 1,17,-1
 -35 -416 l 1,18,-1
 225 1082 l 1,19,-1
 461 1082 l 1,0,-1
EndSplineSet
EndChar

StartChar: paragraph
Encoding: 182 182 121
Width: 985
Flags: W
LayerCount: 2
Back
Fore
SplineSet
530 0 m 1,0,-1
 620 520 l 1,1,-1
 564 521 l 2,2,3
 353 524 353 524 239 651.5 c 128,-1,4
 125 779 125 779 145 980 c 0,5,6
 164 1191 164 1191 313.5 1324 c 128,-1,7
 463 1457 463 1457 688 1457 c 2,8,-1
 988 1456 l 1,9,-1
 735 0 l 1,10,-1
 530 0 l 1,0,-1
EndSplineSet
EndChar

StartChar: periodcentered
Encoding: 183 183 122
Width: 571
Flags: W
LayerCount: 2
Back
Fore
SplineSet
158 710 m 0,0,1
 158 771 158 771 196.5 810 c 128,-1,2
 235 849 235 849 294 851 c 0,3,4
 355 853 355 853 394 813.5 c 128,-1,5
 433 774 433 774 433 718 c 0,6,7
 433 659 433 659 394 620.5 c 128,-1,8
 355 582 355 582 295 580 c 0,9,10
 236 578 236 578 197 615 c 128,-1,11
 158 652 158 652 158 710 c 0,0,1
EndSplineSet
EndChar

StartChar: cedilla
Encoding: 184 184 123
Width: 522
Flags: W
LayerCount: 2
Back
Fore
SplineSet
197 4 m 1,0,-1
 178 -55 l 1,1,2
 240 -69 240 -69 271.5 -111.5 c 128,-1,3
 303 -154 303 -154 302 -217 c 0,4,5
 300 -326 300 -326 211 -385.5 c 128,-1,6
 122 -445 122 -445 -45 -451 c 1,7,-1
 -43 -310 l 1,8,9
 94 -304 94 -304 110 -214 c 0,10,11
 119 -154 119 -154 37 -141 c 1,12,-1
 -19 -135 l 1,13,-1
 26 2 l 1,14,-1
 197 4 l 1,0,-1
EndSplineSet
EndChar

StartChar: uni00B9
Encoding: 185 185 124
Width: 745
Flags: W
LayerCount: 2
Back
Fore
SplineSet
511 672 m 1,0,-1
 330 672 l 1,1,-1
 429 1238 l 1,2,-1
 225 1191 l 1,3,-1
 252 1344 l 1,4,-1
 618 1459 l 1,5,-1
 641 1459 l 1,6,-1
 511 672 l 1,0,-1
EndSplineSet
EndChar

StartChar: ordmasculine
Encoding: 186 186 125
Width: 917
Flags: W
LayerCount: 2
Back
Fore
SplineSet
586 1477 m 0,0,1
 730 1473 730 1473 811.5 1373.5 c 128,-1,2
 893 1274 893 1274 882 1121 c 2,3,-1
 876 1055 l 2,4,5
 861 891 861 891 756 788 c 128,-1,6
 651 685 651 685 498 689 c 0,7,8
 357 693 357 693 273.5 791 c 128,-1,9
 190 889 190 889 201 1044 c 2,10,-1
 207 1110 l 2,11,12
 217 1220 217 1220 268.5 1304.5 c 128,-1,13
 320 1389 320 1389 403 1434.5 c 128,-1,14
 486 1480 486 1480 586 1477 c 0,0,1
373 1041 m 2,15,16
 365 944 365 944 399.5 890 c 128,-1,17
 434 836 434 836 504 834 c 0,18,19
 583 832 583 832 637 890.5 c 128,-1,20
 691 949 691 949 703 1052 c 2,21,-1
 711 1122 l 2,22,23
 719 1222 719 1222 684.5 1274.5 c 128,-1,24
 650 1327 650 1327 580 1329 c 0,25,26
 500 1331 500 1331 446 1272 c 128,-1,27
 392 1213 392 1213 381 1113 c 2,28,-1
 373 1041 l 2,15,16
EndSplineSet
EndChar

StartChar: questiondown
Encoding: 191 191 130
Width: 976
Flags: W
LayerCount: 2
Back
Fore
SplineSet
619 662 m 1,0,1
 608 546 608 546 564.5 460.5 c 128,-1,2
 521 375 521 375 426 288 c 2,3,-1
 344 214 l 2,4,5
 224 105 224 105 210 -6 c 0,6,7
 199 -88 199 -88 236 -136 c 128,-1,8
 273 -184 273 -184 351 -186 c 0,9,10
 434 -188 434 -188 491.5 -137.5 c 128,-1,11
 549 -87 549 -87 566 0 c 1,12,-1
 803 0 l 1,13,14
 786 -179 786 -179 656 -284.5 c 128,-1,15
 526 -390 526 -390 338 -386 c 0,16,17
 155 -382 155 -382 54.5 -280 c 128,-1,18
 -46 -178 -46 -178 -33 -9 c 0,19,20
 -18 170 -18 170 177 341 c 2,21,-1
 286 435 l 2,22,23
 381 521 381 521 401 661 c 1,24,-1
 619 662 l 1,0,1
701 976 m 0,25,26
 701 917 701 917 664 879.5 c 128,-1,27
 627 842 627 842 569 840 c 0,28,29
 510 838 510 838 472 875 c 128,-1,30
 434 912 434 912 434 968 c 0,31,32
 434 1025 434 1025 471 1063 c 128,-1,33
 508 1101 508 1101 567 1103 c 0,34,35
 625 1105 625 1105 663 1068 c 128,-1,36
 701 1031 701 1031 701 976 c 0,25,26
EndSplineSet
EndChar

StartChar: AE
Encoding: 198 198 137
Width: 1877
Flags: W
LayerCount: 2
Back
Fore
SplineSet
1719 0 m 1,0,-1
 848 0 l 1,1,-1
 892 340 l 1,2,-1
 413 340 l 1,3,-1
 175 0 l 1,4,-1
 -121 0 l 1,5,-1
 941 1456 l 1,6,-1
 1912 1456 l 1,7,-1
 1877 1259 l 1,8,-1
 1251 1259 l 1,9,-1
 1196 851 l 1,10,-1
 1729 851 l 1,11,-1
 1694 654 l 1,12,-1
 1170 654 l 1,13,-1
 1110 196 l 1,14,-1
 1754 196 l 1,15,-1
 1719 0 l 1,0,-1
562 555 m 1,16,-1
 920 555 l 1,17,-1
 1005 1189 l 1,18,-1
 562 555 l 1,16,-1
EndSplineSet
EndChar

StartChar: Eth
Encoding: 208 208 147
Width: 1338
Flags: W
LayerCount: 2
Back
Fore
SplineSet
69 0 m 1,0,-1
 182 652 l 1,1,-1
 -1 652 l 1,2,-1
 29 822 l 1,3,-1
 211 822 l 1,4,-1
 321 1456 l 1,5,-1
 715 1455 l 2,6,7
 897 1455 897 1455 1028.5 1364.5 c 128,-1,8
 1160 1274 1160 1274 1219 1114.5 c 128,-1,9
 1278 955 1278 955 1255 763 c 2,10,-1
 1244 684 l 2,11,12
 1214 483 1214 483 1111.5 327.5 c 128,-1,13
 1009 172 1009 172 847 86 c 128,-1,14
 685 0 685 0 491 0 c 2,15,-1
 69 0 l 1,0,-1
650 652 m 1,16,-1
 429 652 l 1,17,-1
 351 202 l 1,18,-1
 497 201 l 2,19,20
 695 201 695 201 825.5 326.5 c 128,-1,21
 956 452 956 452 993 673 c 0,22,23
 1019 825 1019 825 1012 938 c 0,24,25
 1003 1083 1003 1083 927.5 1165 c 128,-1,26
 852 1247 852 1247 718 1251 c 2,27,-1
 533 1252 l 1,28,-1
 458 822 l 1,29,-1
 680 822 l 1,30,-1
 650 652 l 1,16,-1
EndSplineSet
Substitution2: "'c2sc' Capitals to Small Capitals in Cyrillic lookup 3 subtable" Eth.c2sc
Substitution2: "'c2sc' Capitals to Small Capitals in Greek lookup 2 subtable" Eth.c2sc
Substitution2: "'c2sc' Capitals to Small Capitals lookup 1 subtable" Eth.c2sc
Substitution2: "'c2sc' Capitals to Small Capitals in Latin lookup 0 subtable" Eth.c2sc
Position2: "'cpsp' Capital Spacing in Cyrillic lookup 3 subtable" dx=36 dy=0 dh=72 dv=0
Position2: "'cpsp' Capital Spacing in Greek lookup 2 subtable" dx=36 dy=0 dh=72 dv=0
Position2: "'cpsp' Capital Spacing lookup 1 subtable" dx=36 dy=0 dh=72 dv=0
Position2: "'cpsp' Capital Spacing in Latin lookup 0 subtable" dx=36 dy=0 dh=72 dv=0
EndChar

StartChar: multiply
Encoding: 215 215 154
Width: 1069
Flags: W
LayerCount: 2
Back
Fore
SplineSet
35 375 m 1,0,-1
 398 696 l 1,1,-1
 147 1019 l 1,2,-1
 305 1158 l 1,3,-1
 555 837 l 1,4,-1
 917 1158 l 1,5,-1
 1044 997 l 1,6,-1
 681 676 l 1,7,-1
 932 353 l 1,8,-1
 774 214 l 1,9,-1
 523 534 l 1,10,-1
 162 214 l 1,11,-1
 35 375 l 1,0,-1
EndSplineSet
EndChar

StartChar: Oslash
Encoding: 216 216 155
Width: 1380
Flags: W
LayerCount: 2
Back
Fore
SplineSet
599 -21 m 0,0,1
 443 -17 443 -17 320 56 c 1,2,-1
 202 -95 l 1,3,-1
 21 -94 l 1,4,-1
 215 146 l 1,5,6
 107 322 107 322 109 548 c 1,7,-1
 112 627 l 1,8,9
 131 895 131 895 227.5 1086 c 128,-1,10
 324 1277 324 1277 478.5 1378 c 128,-1,11
 633 1479 633 1479 823 1477 c 0,12,13
 1013 1473 1013 1473 1141 1374 c 1,14,-1
 1253 1517 l 1,15,-1
 1432 1517 l 1,16,-1
 1236 1273 l 1,17,18
 1292 1152 1292 1152 1306 1024 c 0,19,20
 1323 854 1323 854 1286 648.5 c 128,-1,21
 1249 443 1249 443 1148.5 287 c 128,-1,22
 1048 131 1048 131 906 53.5 c 128,-1,23
 764 -24 764 -24 599 -21 c 0,0,1
349 522 m 0,24,25
 346 437 346 437 366 354 c 1,26,-1
 1003 1185 l 1,27,28
 941 1263 941 1263 812 1268 c 0,29,30
 646 1273 646 1273 533 1145 c 128,-1,31
 420 1017 420 1017 379 784 c 0,32,33
 353 635 353 635 349 522 c 0,24,25
1073 907 m 2,34,35
 1078 977 1078 977 1072 1048 c 1,36,-1
 451 238 l 1,37,38
 514 188 514 188 610 186 c 0,39,40
 786 181 786 181 899.5 320.5 c 128,-1,41
 1013 460 1013 460 1049 710 c 2,42,-1
 1066 831 l 1,43,-1
 1073 907 l 2,34,35
EndSplineSet
EndChar

StartChar: Thorn
Encoding: 222 222 161
Width: 1199
Flags: W
LayerCount: 2
Back
Fore
SplineSet
529 1456 m 1,0,-1
 480 1176 l 1,1,-1
 683 1175 l 2,2,3
 905 1174 905 1174 1029.5 1057 c 128,-1,4
 1154 940 1154 940 1139 746 c 0,5,6
 1123 543 1123 543 969.5 421 c 128,-1,7
 816 299 816 299 581 299 c 2,8,-1
 329 300 l 1,9,-1
 276 0 l 1,10,-1
 39 0 l 1,11,-1
 292 1456 l 1,12,-1
 529 1456 l 1,0,-1
447 981 m 1,13,-1
 362 495 l 1,14,-1
 587 493 l 2,15,16
 715 495 715 495 801 563.5 c 128,-1,17
 887 632 887 632 902 745 c 0,18,19
 916 852 916 852 860 914 c 128,-1,20
 804 976 804 976 698 980 c 2,21,-1
 447 981 l 1,13,-1
EndSplineSet
EndChar

StartChar: germandbls
Encoding: 223 223 162
Width: 1227
Flags: W
LayerCount: 2
Back
Fore
SplineSet
264 0 m 1,0,-1
 27 0 l 1,1,-1
 216 1105 l 1,2,3
 244 1315 244 1315 372 1438.5 c 128,-1,4
 500 1562 500 1562 700 1558 c 0,5,6
 867 1554 867 1554 962 1459.5 c 128,-1,7
 1057 1365 1057 1365 1044 1209 c 0,8,9
 1040 1160 1040 1160 1022 1116.5 c 128,-1,10
 1004 1073 1004 1073 956 996 c 128,-1,11
 908 919 908 919 894 886 c 128,-1,12
 880 853 880 853 873 815 c 0,13,14
 865 766 865 766 888 715 c 128,-1,15
 911 664 911 664 979 587.5 c 128,-1,16
 1047 511 1047 511 1073.5 456 c 128,-1,17
 1100 401 1100 401 1098 345 c 0,18,19
 1089 172 1089 172 965 73.5 c 128,-1,20
 841 -25 841 -25 652 -21 c 0,21,22
 481 -19 481 -19 368 46 c 1,23,-1
 436 239 l 1,24,25
 539 173 539 173 647 173 c 0,26,27
 735 173 735 173 794 217.5 c 128,-1,28
 853 262 853 262 864 335 c 0,29,30
 872 387 872 387 847 438 c 128,-1,31
 822 489 822 489 752 564 c 0,32,33
 626 698 626 698 635 809 c 0,34,35
 639 866 639 866 664 912.5 c 128,-1,36
 689 959 689 959 719 1003.5 c 128,-1,37
 749 1048 749 1048 775 1094 c 128,-1,38
 801 1140 801 1140 808 1195 c 0,39,40
 817 1271 817 1271 782.5 1317 c 128,-1,41
 748 1363 748 1363 678 1367 c 0,42,43
 588 1370 588 1370 529.5 1304.5 c 128,-1,44
 471 1239 471 1239 451 1104 c 2,45,-1
 264 0 l 1,0,-1
EndSplineSet
Substitution2: "'c2sc' Capitals to Small Capitals in Cyrillic lookup 3 subtable" germandbls.c2sc
Substitution2: "'c2sc' Capitals to Small Capitals in Greek lookup 2 subtable" germandbls.c2sc
Substitution2: "'c2sc' Capitals to Small Capitals lookup 1 subtable" germandbls.c2sc
Substitution2: "'c2sc' Capitals to Small Capitals in Latin lookup 0 subtable" germandbls.c2sc
EndChar

StartChar: ae
Encoding: 230 230 169
Width: 1687
Flags: W
LayerCount: 2
Back
Fore
SplineSet
1130 -19 m 0,0,1
 1015 -19 1015 -19 921 22.5 c 128,-1,2
 827 64 827 64 774 140 c 1,3,4
 602 -24 602 -24 349 -20 c 0,5,6
 195 -18 195 -18 105 69.5 c 128,-1,7
 15 157 15 157 23 304 c 0,8,9
 33 465 33 465 163.5 554 c 128,-1,10
 294 643 294 643 524 643 c 2,11,-1
 715 641 l 1,12,-1
 728 715 l 2,13,14
 734 753 734 753 730 787 c 0,15,16
 713 904 713 904 594 907 c 0,17,18
 507 909 507 909 447.5 867 c 128,-1,19
 388 825 388 825 375 752 c 1,20,-1
 138 771 l 1,21,22
 145 869 145 869 206.5 945.5 c 128,-1,23
 268 1022 268 1022 377.5 1063.5 c 128,-1,24
 487 1105 487 1105 610 1103 c 0,25,26
 825 1098 825 1098 915 970 c 1,27,28
 1070 1106 1070 1106 1255 1102 c 0,29,30
 1449 1096 1449 1096 1548.5 961 c 128,-1,31
 1648 826 1648 826 1622 612 c 1,32,-1
 1601 471 l 1,33,-1
 932 471 l 1,34,35
 918 335 918 335 977.5 256.5 c 128,-1,36
 1037 178 1037 178 1152 176 c 0,37,38
 1237 174 1237 174 1312.5 200.5 c 128,-1,39
 1388 227 1388 227 1462 266 c 1,40,-1
 1520 98 l 1,41,42
 1455 41 1455 41 1349.5 10 c 128,-1,43
 1244 -21 1244 -21 1130 -19 c 0,0,1
402 163 m 0,44,45
 516 163 516 163 654 265 c 1,46,-1
 694 475 l 1,47,-1
 525 476 l 2,48,49
 418 473 418 473 345.5 426 c 128,-1,50
 273 379 273 379 261 300 c 0,51,52
 252 237 252 237 291 201 c 128,-1,53
 330 165 330 165 402 163 c 0,44,45
1239 908 m 0,54,55
 1143 911 1143 911 1070 843.5 c 128,-1,56
 997 776 997 776 951 641 c 1,57,-1
 1389 641 l 1,58,-1
 1395 674 l 2,59,60
 1402 719 1402 719 1398 761 c 0,61,62
 1384 902 1384 902 1239 908 c 0,54,55
EndSplineSet
EndChar

StartChar: eth
Encoding: 240 240 179
Width: 1165
Flags: W
LayerCount: 2
Back
Fore
SplineSet
933 1300 m 1,0,1
 1024 1145 1024 1145 1056.5 983 c 128,-1,2
 1089 821 1089 821 1066 642 c 2,3,-1
 1054 556 l 2,4,5
 1031 389 1031 389 947 251 c 128,-1,6
 863 113 863 113 745 44.5 c 128,-1,7
 627 -24 627 -24 490 -21 c 0,8,9
 363 -17 363 -17 264.5 47 c 128,-1,10
 166 111 166 111 118 221 c 128,-1,11
 70 331 70 331 82 460 c 0,12,13
 95 604 95 604 163 724 c 128,-1,14
 231 844 231 844 343 911 c 128,-1,15
 455 978 455 978 588 974 c 0,16,17
 726 970 726 970 833 881 c 1,18,19
 829 1034 829 1034 733 1172 c 1,20,-1
 509 1036 l 1,21,-1
 446 1157 l 1,22,-1
 630 1265 l 1,23,24
 539 1338 539 1338 374 1386 c 1,25,-1
 465 1580 l 1,26,27
 687 1526 687 1526 835 1395 c 1,28,-1
 1036 1517 l 1,29,-1
 1098 1396 l 1,30,-1
 933 1300 l 1,0,1
834 685 m 1,31,32
 780 782 780 782 633 787 c 0,33,34
 506 789 506 789 420.5 698 c 128,-1,35
 335 607 335 607 319 460 c 0,36,37
 305 340 305 340 357.5 257.5 c 128,-1,38
 410 175 410 175 508 172 c 0,39,40
 626 167 626 167 707.5 271 c 128,-1,41
 789 375 789 375 814 548 c 2,42,-1
 834 685 l 1,31,32
EndSplineSet
Substitution2: "'smcp' Lowercase to Small Capitals in Cyrillic lookup 7 subtable" Eth.c2sc
Substitution2: "'smcp' Lowercase to Small Capitals in Greek lookup 6 subtable" Eth.c2sc
Substitution2: "'smcp' Lowercase to Small Capitals lookup 5 subtable" Eth.c2sc
Substitution2: "'smcp' Lowercase to Small Capitals in Latin lookup 4 subtable" Eth.c2sc
EndChar

StartChar: divide
Encoding: 247 247 186
Width: 1144
Flags: W
LayerCount: 2
Back
Fore
SplineSet
1044 582 m 1,0,-1
 61 582 l 1,1,-1
 98 794 l 1,2,-1
 1082 794 l 1,3,-1
 1044 582 l 1,0,-1
508 1091 m 0,4,5
 508 1152 508 1152 547 1189.5 c 128,-1,6
 586 1227 586 1227 644 1229 c 0,7,8
 705 1231 705 1231 744 1193 c 128,-1,9
 783 1155 783 1155 783 1099 c 0,10,11
 783 1042 783 1042 745.5 1003 c 128,-1,12
 708 964 708 964 646 962 c 0,13,14
 587 960 587 960 547.5 996 c 128,-1,15
 508 1032 508 1032 508 1091 c 0,4,5
366 274 m 0,16,17
 366 331 366 331 404 371 c 128,-1,18
 442 411 442 411 503 413 c 0,19,20
 560 415 560 415 600.5 378.5 c 128,-1,21
 641 342 641 342 641 282 c 0,22,23
 641 223 641 223 603 185.5 c 128,-1,24
 565 148 565 148 504 146 c 0,25,26
 447 144 447 144 406.5 180 c 128,-1,27
 366 216 366 216 366 274 c 0,16,17
EndSplineSet
EndChar

StartChar: oslash
Encoding: 248 248 187
Width: 1135
Flags: W
LayerCount: 2
Back
Fore
SplineSet
68 544 m 2,0,1
 83 662 83 662 130 767.5 c 128,-1,2
 177 873 177 873 255 951 c 0,3,4
 411 1108 411 1108 634 1104 c 0,5,6
 728 1102 728 1102 823 1067 c 1,7,-1
 920 1211 l 1,8,-1
 1075 1210 l 1,9,-1
 929 1000 l 1,10,11
 1041 868 1041 868 1048 673 c 0,12,13
 1050 615 1050 615 1042 532 c 0,14,15
 1022 373 1022 373 944.5 244 c 128,-1,16
 867 115 867 115 745 45.5 c 128,-1,17
 623 -24 623 -24 475 -22 c 0,18,19
 389 -20 389 -20 298 11 c 1,20,-1
 197 -137 l 1,21,-1
 42 -136 l 1,22,-1
 188 73 l 1,23,24
 70 203 70 203 62 402 c 0,25,26
 59 463 59 463 66 523 c 2,27,-1
 68 544 l 2,0,1
291 399 m 0,28,29
 290 336 290 336 310 275 c 1,30,-1
 714 890 l 1,31,32
 676 909 676 909 623 911 c 0,33,34
 523 912 523 912 447.5 847.5 c 128,-1,35
 372 783 372 783 332 662.5 c 128,-1,36
 292 542 292 542 291 399 c 0,28,29
820 673 m 0,37,38
 821 733 821 733 803 793 c 1,39,-1
 403 186 l 1,40,41
 443 172 443 172 485 170 c 0,42,43
 606 167 606 167 691.5 262 c 128,-1,44
 777 357 777 357 807 532 c 0,45,46
 819 616 819 616 820 673 c 0,37,38
EndSplineSet
EndChar

StartChar: thorn
Encoding: 254 254 193
Width: 1150
Flags: W
LayerCount: 2
Back
Fore
SplineSet
1036 536 m 0,0,1
 1016 372 1016 372 948 239.5 c 128,-1,2
 880 107 880 107 777.5 41 c 128,-1,3
 675 -25 675 -25 550 -22 c 0,4,5
 382 -18 382 -18 284 99 c 1,6,-1
 187 -416 l 1,7,-1
 -51 -416 l 1,8,-1
 288 1536 l 1,9,-1
 525 1536 l 1,10,-1
 419 982 l 1,11,12
 541 1106 541 1106 704 1102 c 0,13,14
 861 1098 861 1098 949.5 987 c 128,-1,15
 1038 876 1038 876 1043 683 c 0,16,17
 1044 623 1044 623 1036 536 c 0,0,1
801 558 m 1,18,-1
 806 632 l 1,19,20
 809 759 809 759 764 829.5 c 128,-1,21
 719 900 719 900 626 904 c 0,22,23
 493 908 493 908 395 781 c 1,24,-1
 310 298 l 1,25,26
 357 177 357 177 494 173 c 0,27,28
 612 170 612 170 692.5 265 c 128,-1,29
 773 360 773 360 801 558 c 1,18,-1
EndSplineSet
EndChar

StartChar: Aogonek
Encoding: 260 260 199
Width: 1332
Flags: W
LayerCount: 2
Back
Fore
SplineSet
1137 0 m 1,0,-1
 1142 -3 l 1,1,-1
 1095 -34 l 2,2,3
 964 -120 964 -120 957 -206 c 0,4,5
 952 -263 952 -263 1008 -266 c 0,6,7
 1035 -267 1035 -267 1096 -244 c 1,8,-1
 1108 -388 l 1,9,10
 1039 -431 1039 -431 954 -429 c 0,11,12
 867 -429 867 -429 814.5 -374.5 c 128,-1,13
 762 -320 762 -320 764 -236 c 0,14,15
 767 -87 767 -87 947 18 c 1,16,-1
 893 339 l 1,17,-1
 348 339 l 1,18,-1
 174 0 l 1,19,-1
 -92 0 l 1,20,-1
 694 1456 l 1,21,-1
 916 1456 l 1,22,-1
 1198 0 l 1,23,-1
 1137 0 l 1,0,-1
452 543 m 1,24,-1
 860 543 l 1,25,-1
 761 1145 l 1,26,-1
 452 543 l 1,24,-1
EndSplineSet
Substitution2: "'locl' Localized Forms in Latin lookup 12 subtable" Aogonek.locl
Substitution2: "'c2sc' Capitals to Small Capitals in Cyrillic lookup 3 subtable" Aogonek.c2sc
Substitution2: "'c2sc' Capitals to Small Capitals in Greek lookup 2 subtable" Aogonek.c2sc
Substitution2: "'c2sc' Capitals to Small Capitals lookup 1 subtable" Aogonek.c2sc
Substitution2: "'c2sc' Capitals to Small Capitals in Latin lookup 0 subtable" Aogonek.c2sc
Position2: "'cpsp' Capital Spacing in Cyrillic lookup 3 subtable" dx=36 dy=0 dh=72 dv=0
Position2: "'cpsp' Capital Spacing in Greek lookup 2 subtable" dx=36 dy=0 dh=72 dv=0
Position2: "'cpsp' Capital Spacing lookup 1 subtable" dx=36 dy=0 dh=72 dv=0
Position2: "'cpsp' Capital Spacing in Latin lookup 0 subtable" dx=36 dy=0 dh=72 dv=0
EndChar

StartChar: aogonek
Encoding: 261 261 200
Width: 1085
Flags: W
LayerCount: 2
Back
Fore
SplineSet
842 0 m 1,0,-1
 847 -3 l 1,1,-1
 800 -34 l 2,2,3
 669 -120 669 -120 662 -206 c 0,4,5
 657 -263 657 -263 713 -266 c 0,6,7
 740 -267 740 -267 801 -244 c 1,8,-1
 813 -388 l 1,9,10
 744 -431 744 -431 659 -429 c 0,11,12
 572 -429 572 -429 519.5 -374.5 c 128,-1,13
 467 -320 467 -320 469 -236 c 0,14,15
 472 -86 472 -86 653 19 c 1,16,-1
 649 60 l 1,17,-1
 649 101 l 1,18,19
 515 -24 515 -24 360 -20 c 0,20,21
 219 -18 219 -18 126.5 70.5 c 128,-1,22
 34 159 34 159 40 295 c 0,23,24
 48 466 48 466 188 564 c 128,-1,25
 328 662 328 662 564 662 c 2,26,-1
 718 660 l 1,27,-1
 732 734 l 2,28,29
 738 773 738 773 732 807 c 0,30,31
 712 915 712 915 589 918 c 0,32,33
 513 920 513 920 455.5 879.5 c 128,-1,34
 398 839 398 839 385 771 c 1,35,-1
 148 769 l 1,36,37
 155 869 155 869 219 944.5 c 128,-1,38
 283 1020 283 1020 389 1062 c 128,-1,39
 495 1104 495 1104 613 1102 c 0,40,41
 790 1098 790 1098 889 995.5 c 128,-1,42
 988 893 988 893 971 730 c 1,43,-1
 888 223 l 1,44,-1
 880 133 l 2,45,46
 877 74 877 74 895 18 c 1,47,-1
 894 0 l 1,48,-1
 842 0 l 1,0,-1
415 174 m 0,49,50
 490 172 490 172 554 208.5 c 128,-1,51
 618 245 618 245 663 303 c 1,52,-1
 700 508 l 1,53,-1
 587 509 l 2,54,55
 453 509 453 509 373 458.5 c 128,-1,56
 293 408 293 408 282 320 c 0,57,58
 274 253 274 253 311.5 214.5 c 128,-1,59
 349 176 349 176 415 174 c 0,49,50
EndSplineSet
Substitution2: "'locl' Localized Forms in Latin lookup 12 subtable" aogonek.locl
Substitution2: "'smcp' Lowercase to Small Capitals in Cyrillic lookup 7 subtable" Aogonek.c2sc
Substitution2: "'smcp' Lowercase to Small Capitals in Greek lookup 6 subtable" Aogonek.c2sc
Substitution2: "'smcp' Lowercase to Small Capitals lookup 5 subtable" Aogonek.c2sc
Substitution2: "'smcp' Lowercase to Small Capitals in Latin lookup 4 subtable" Aogonek.c2sc
EndChar

StartChar: Dcroat
Encoding: 272 272 211
Width: 1338
Flags: W
LayerCount: 2
Back
Fore
SplineSet
69 0 m 1,0,-1
 182 652 l 1,1,-1
 -1 652 l 1,2,-1
 29 822 l 1,3,-1
 211 822 l 1,4,-1
 321 1456 l 1,5,-1
 715 1455 l 2,6,7
 897 1455 897 1455 1028.5 1364.5 c 128,-1,8
 1160 1274 1160 1274 1219 1114.5 c 128,-1,9
 1278 955 1278 955 1255 763 c 2,10,-1
 1244 684 l 2,11,12
 1214 483 1214 483 1111.5 327.5 c 128,-1,13
 1009 172 1009 172 847 86 c 128,-1,14
 685 0 685 0 491 0 c 2,15,-1
 69 0 l 1,0,-1
650 652 m 1,16,-1
 429 652 l 1,17,-1
 351 202 l 1,18,-1
 497 201 l 2,19,20
 695 201 695 201 825.5 326.5 c 128,-1,21
 956 452 956 452 993 673 c 0,22,23
 1019 825 1019 825 1012 938 c 0,24,25
 1003 1083 1003 1083 927.5 1165 c 128,-1,26
 852 1247 852 1247 718 1251 c 2,27,-1
 533 1252 l 1,28,-1
 458 822 l 1,29,-1
 680 822 l 1,30,-1
 650 652 l 1,16,-1
EndSplineSet
Substitution2: "'c2sc' Capitals to Small Capitals in Cyrillic lookup 3 subtable" Dcroat.c2sc
Substitution2: "'c2sc' Capitals to Small Capitals in Greek lookup 2 subtable" Dcroat.c2sc
Substitution2: "'c2sc' Capitals to Small Capitals lookup 1 subtable" Dcroat.c2sc
Substitution2: "'c2sc' Capitals to Small Capitals in Latin lookup 0 subtable" Dcroat.c2sc
Position2: "'cpsp' Capital Spacing in Cyrillic lookup 3 subtable" dx=36 dy=0 dh=72 dv=0
Position2: "'cpsp' Capital Spacing in Greek lookup 2 subtable" dx=36 dy=0 dh=72 dv=0
Position2: "'cpsp' Capital Spacing lookup 1 subtable" dx=36 dy=0 dh=72 dv=0
Position2: "'cpsp' Capital Spacing in Latin lookup 0 subtable" dx=36 dy=0 dh=72 dv=0
EndChar

StartChar: dcroat
Encoding: 273 273 212
Width: 1161
Flags: W
LayerCount: 2
Back
Fore
SplineSet
1275 1225 m 1,0,-1
 1106 1225 l 1,1,-1
 893 0 l 1,2,-1
 681 0 l 1,3,-1
 697 112 l 1,4,5
 571 -25 571 -25 401 -21 c 0,6,7
 250 -19 250 -19 159.5 95.5 c 128,-1,8
 69 210 69 210 62 400 c 0,9,10
 59 462 59 462 65 521 c 2,11,-1
 68 542 l 2,12,13
 88 709 88 709 158 842 c 128,-1,14
 228 975 228 975 331 1040.5 c 128,-1,15
 434 1106 434 1106 560 1103 c 0,16,17
 725 1099 725 1099 818 980 c 1,18,-1
 864 1225 l 1,19,-1
 624 1225 l 1,20,-1
 654 1395 l 1,21,-1
 895 1395 l 1,22,-1
 922 1536 l 1,23,-1
 1160 1536 l 1,24,-1
 1135 1395 l 1,25,-1
 1305 1395 l 1,26,-1
 1275 1225 l 1,0,-1
298 449 m 0,27,28
 291 325 291 325 336.5 252 c 128,-1,29
 382 179 382 179 472 177 c 0,30,31
 609 173 609 173 709 310 c 1,32,-1
 790 775 l 1,33,34
 743 900 743 900 608 904 c 0,35,36
 472 908 472 908 389 784 c 128,-1,37
 306 660 306 660 298 449 c 0,27,28
EndSplineSet
Substitution2: "'smcp' Lowercase to Small Capitals in Cyrillic lookup 7 subtable" Dcroat.c2sc
Substitution2: "'smcp' Lowercase to Small Capitals in Greek lookup 6 subtable" Dcroat.c2sc
Substitution2: "'smcp' Lowercase to Small Capitals lookup 5 subtable" Dcroat.c2sc
Substitution2: "'smcp' Lowercase to Small Capitals in Latin lookup 4 subtable" Dcroat.c2sc
EndChar

StartChar: Eogonek
Encoding: 280 280 219
Width: 1133
Flags: W
LayerCount: 2
Back
Fore
SplineSet
979 650 m 1,0,-1
 399 650 l 1,1,-1
 321 202 l 1,2,-1
 999 202 l 1,3,-1
 964 0 l 1,4,-1
 851 0 l 1,5,-1
 856 -3 l 1,6,-1
 809 -34 l 2,7,8
 678 -120 678 -120 671 -206 c 0,9,10
 666 -263 666 -263 722 -266 c 0,11,12
 749 -267 749 -267 810 -244 c 1,13,-1
 822 -388 l 1,14,15
 753 -431 753 -431 668 -429 c 0,16,17
 581 -429 581 -429 528.5 -374.5 c 128,-1,18
 476 -320 476 -320 478 -236 c 0,19,20
 481 -96 481 -96 631 0 c 1,21,-1
 39 0 l 1,22,-1
 291 1456 l 1,23,-1
 1210 1456 l 1,24,-1
 1174 1252 l 1,25,-1
 503 1252 l 1,26,-1
 433 850 l 1,27,-1
 1014 850 l 1,28,-1
 979 650 l 1,0,-1
EndSplineSet
Substitution2: "'locl' Localized Forms in Latin lookup 12 subtable" Eogonek.locl
Substitution2: "'c2sc' Capitals to Small Capitals in Cyrillic lookup 3 subtable" Eogonek.c2sc
Substitution2: "'c2sc' Capitals to Small Capitals in Greek lookup 2 subtable" Eogonek.c2sc
Substitution2: "'c2sc' Capitals to Small Capitals lookup 1 subtable" Eogonek.c2sc
Substitution2: "'c2sc' Capitals to Small Capitals in Latin lookup 0 subtable" Eogonek.c2sc
Position2: "'cpsp' Capital Spacing in Cyrillic lookup 3 subtable" dx=36 dy=0 dh=72 dv=0
Position2: "'cpsp' Capital Spacing in Greek lookup 2 subtable" dx=36 dy=0 dh=72 dv=0
Position2: "'cpsp' Capital Spacing lookup 1 subtable" dx=36 dy=0 dh=72 dv=0
Position2: "'cpsp' Capital Spacing in Latin lookup 0 subtable" dx=36 dy=0 dh=72 dv=0
EndChar

StartChar: eogonek
Encoding: 281 281 220
Width: 1076
Flags: W
LayerCount: 2
Back
Fore
SplineSet
934 182 m 1,0,1
 849 62 849 62 708 12 c 1,2,-1
 659 -21 l 2,3,4
 550 -97 550 -97 542 -179 c 0,5,6
 537 -236 537 -236 593 -239 c 0,7,8
 620 -240 620 -240 681 -217 c 1,9,-1
 693 -361 l 1,10,11
 624 -404 624 -404 539 -402 c 0,12,13
 452 -402 452 -402 399.5 -347.5 c 128,-1,14
 347 -293 347 -293 349 -209 c 0,15,16
 351 -100 351 -100 447 -15 c 1,17,18
 264 10 264 10 162 152 c 128,-1,19
 60 294 60 294 77 500 c 2,20,-1
 80 541 l 1,21,22
 98 706 98 706 176.5 837.5 c 128,-1,23
 255 969 255 969 372 1037 c 128,-1,24
 489 1105 489 1105 626 1102 c 0,25,26
 829 1098 829 1098 930.5 951 c 128,-1,27
 1032 804 1032 804 1007 568 c 1,28,-1
 993 464 l 1,29,-1
 312 464 l 1,30,31
 303 335 303 335 364 256 c 128,-1,32
 425 177 425 177 532 175 c 0,33,34
 685 170 685 170 814 308 c 1,35,-1
 934 182 l 1,0,1
613 908 m 0,36,37
 425 914 425 914 331 642 c 1,38,-1
 780 641 l 1,39,-1
 784 662 l 2,40,41
 791 708 791 708 785 752 c 0,42,43
 774 823 774 823 729 864 c 128,-1,44
 684 905 684 905 613 908 c 0,36,37
EndSplineSet
Substitution2: "'locl' Localized Forms in Latin lookup 12 subtable" eogonek.locl
Substitution2: "'smcp' Lowercase to Small Capitals in Cyrillic lookup 7 subtable" Eogonek.c2sc
Substitution2: "'smcp' Lowercase to Small Capitals in Greek lookup 6 subtable" Eogonek.c2sc
Substitution2: "'smcp' Lowercase to Small Capitals lookup 5 subtable" Eogonek.c2sc
Substitution2: "'smcp' Lowercase to Small Capitals in Latin lookup 4 subtable" Eogonek.c2sc
EndChar

StartChar: Hbar
Encoding: 294 294 233
Width: 1422
Flags: W
LayerCount: 2
Back
Fore
SplineSet
1375 1198 m 1,0,-1
 1499 1198 l 1,1,-1
 1470 1036 l 1,2,-1
 1347 1036 l 1,3,-1
 1168 0 l 1,4,-1
 922 0 l 1,5,-1
 1034 647 l 1,6,-1
 404 647 l 1,7,-1
 292 0 l 1,8,-1
 46 0 l 1,9,-1
 225 1036 l 1,10,-1
 105 1036 l 1,11,-1
 133 1198 l 1,12,-1
 253 1198 l 1,13,-1
 298 1456 l 1,14,-1
 545 1456 l 1,15,-1
 499 1198 l 1,16,-1
 1129 1198 l 1,17,-1
 1174 1456 l 1,18,-1
 1420 1456 l 1,19,-1
 1375 1198 l 1,0,-1
439 850 m 1,20,-1
 1069 850 l 1,21,-1
 1102 1036 l 1,22,-1
 472 1036 l 1,23,-1
 439 850 l 1,20,-1
EndSplineSet
EndChar

StartChar: hbar
Encoding: 295 295 234
Width: 1143
Flags: W
LayerCount: 2
Back
Fore
SplineSet
715 1223 m 1,0,-1
 487 1223 l 1,1,-1
 437 963 l 1,2,3
 572 1105 572 1105 744 1101 c 0,4,5
 898 1099 898 1099 972.5 992 c 128,-1,6
 1047 885 1047 885 1028 696 c 1,7,-1
 912 0 l 1,8,-1
 675 0 l 1,9,-1
 793 699 l 2,10,11
 798 742 798 742 795 779 c 0,12,13
 782 901 782 901 651 904 c 0,14,15
 519 906 519 906 415 774 c 1,16,-1
 280 0 l 1,17,-1
 43 0 l 1,18,-1
 255 1223 l 1,19,-1
 64 1223 l 1,20,-1
 94 1393 l 1,21,-1
 284 1393 l 1,22,-1
 309 1536 l 1,23,-1
 547 1536 l 1,24,-1
 519 1393 l 1,25,-1
 745 1393 l 1,26,-1
 715 1223 l 1,0,-1
EndSplineSet
EndChar

StartChar: dotlessi
Encoding: 305 305 244
Width: 532
Flags: W
LayerCount: 2
Back
Fore
SplineSet
271 0 m 1,0,-1
 34 0 l 1,1,-1
 222 1082 l 1,2,-1
 459 1082 l 1,3,-1
 271 0 l 1,0,-1
EndSplineSet
Substitution2: "'smcp' Lowercase to Small Capitals in Cyrillic lookup 7 subtable" Idotaccent.c2sc
Substitution2: "'smcp' Lowercase to Small Capitals in Greek lookup 6 subtable" Idotaccent.c2sc
Substitution2: "'smcp' Lowercase to Small Capitals lookup 5 subtable" Idotaccent.c2sc
Substitution2: "'smcp' Lowercase to Small Capitals in Latin lookup 4 subtable" Idotaccent.c2sc
EndChar

StartChar: kgreenlandic
Encoding: 312 312 251
Width: 1151
Flags: W
LayerCount: 2
Back
Fore
SplineSet
459 428 m 1,0,-1
 344 428 l 1,1,-1
 269 0 l 1,2,-1
 33 0 l 1,3,-1
 221 1082 l 1,4,-1
 457 1082 l 1,5,-1
 382 650 l 1,6,-1
 454 650 l 1,7,-1
 855 1082 l 1,8,-1
 1165 1082 l 1,9,-1
 660 545 l 1,10,-1
 985 0 l 1,11,-1
 702 0 l 1,12,-1
 459 428 l 1,0,-1
EndSplineSet
EndChar

StartChar: Lslash
Encoding: 321 321 260
Width: 1100
Flags: W
LayerCount: 2
Back
Fore
SplineSet
453 876 m 1,0,-1
 693 946 l 1,1,-1
 665 791 l 1,2,-1
 426 720 l 1,3,-1
 336 202 l 1,4,-1
 978 202 l 1,5,-1
 943 0 l 1,6,-1
 54 0 l 1,7,-1
 166 642 l 1,8,-1
 33 604 l 1,9,-1
 60 759 l 1,10,-1
 193 798 l 1,11,-1
 307 1456 l 1,12,-1
 554 1456 l 1,13,-1
 453 876 l 1,0,-1
EndSplineSet
EndChar

StartChar: lslash
Encoding: 322 322 261
Width: 583
Flags: W
LayerCount: 2
Back
Fore
SplineSet
450 895 m 1,0,-1
 603 947 l 1,1,-1
 575 791 l 1,2,-1
 423 738 l 1,3,-1
 295 0 l 1,4,-1
 57 0 l 1,5,-1
 171 651 l 1,6,-1
 31 604 l 1,7,-1
 59 760 l 1,8,-1
 197 807 l 1,9,-1
 324 1536 l 1,10,-1
 561 1536 l 1,11,-1
 450 895 l 1,0,-1
EndSplineSet
EndChar

StartChar: Eng
Encoding: 330 330 269
Width: 1394
Flags: W
LayerCount: 2
Back
Fore
SplineSet
1400 1456 m 1,0,-1
 1143 -56 l 1,1,2
 1119 -238 1119 -238 1011.5 -340 c 128,-1,3
 904 -442 904 -442 739 -440 c 0,4,5
 680 -440 680 -440 604 -420 c 1,6,-1
 639 -222 l 1,7,8
 693 -236 693 -236 734 -236 c 0,9,10
 863 -236 863 -236 897 -40 c 2,11,-1
 904 0 l 1,12,-1
 464 1055 l 1,13,-1
 281 0 l 1,14,-1
 35 0 l 1,15,-1
 288 1456 l 1,16,-1
 526 1456 l 1,17,-1
 969 402 l 1,18,-1
 1152 1456 l 1,19,-1
 1400 1456 l 1,0,-1
EndSplineSet
EndChar

StartChar: eng
Encoding: 331 331 270
Width: 1135
Flags: W
LayerCount: 2
Back
Fore
SplineSet
421 1083 m 1,0,-1
 398 931 l 1,1,2
 532 1106 532 1106 719 1102 c 0,3,4
 880 1099 880 1099 955 984 c 128,-1,5
 1030 869 1030 869 1008 673 c 1,6,-1
 890 -63 l 1,7,8
 866 -244 866 -244 762 -343 c 128,-1,9
 658 -442 658 -442 495 -440 c 0,10,11
 430 -439 430 -439 362 -420 c 1,12,-1
 397 -223 l 1,13,14
 454 -238 454 -238 493 -238 c 0,15,16
 622 -238 622 -238 653 -51 c 2,17,-1
 771 672 l 2,18,19
 776 717 776 717 774 758 c 0,20,21
 767 898 767 898 628 903 c 0,22,23
 497 907 497 907 396 801 c 1,24,-1
 255 0 l 1,25,-1
 17 0 l 1,26,-1
 205 1082 l 1,27,-1
 421 1083 l 1,0,-1
EndSplineSet
EndChar

StartChar: OE
Encoding: 338 338 277
Width: 1923
Flags: W
LayerCount: 2
Back
Fore
SplineSet
1684 0 m 1,0,-1
 857 0 l 1,1,-1
 661 -17 l 1,2,-1
 574 -18 l 1,3,4
 416 -14 416 -14 300.5 64.5 c 128,-1,5
 185 143 185 143 132.5 279 c 128,-1,6
 80 415 80 415 100 576 c 1,7,-1
 150 893 l 2,8,9
 178 1062 178 1062 268.5 1196.5 c 128,-1,10
 359 1331 359 1331 496.5 1404 c 128,-1,11
 634 1477 634 1477 799 1477 c 1,12,-1
 873 1475 l 1,13,-1
 1080 1456 l 1,14,-1
 1930 1456 l 1,15,-1
 1894 1252 l 1,16,-1
 1223 1252 l 1,17,-1
 1153 850 l 1,18,-1
 1734 850 l 1,19,-1
 1698 650 l 1,20,-1
 1119 650 l 1,21,-1
 1041 202 l 1,22,-1
 1719 202 l 1,23,-1
 1684 0 l 1,0,-1
583 177 m 0,24,25
 662 174 662 174 785 186 c 1,26,-1
 983 1269 l 1,27,28
 868 1283 868 1283 792 1285 c 0,29,30
 632 1287 632 1287 523 1178.5 c 128,-1,31
 414 1070 414 1070 384 876 c 2,32,-1
 337 575 l 2,33,34
 328 503 328 503 334 433 c 0,35,36
 342 317 342 317 406.5 249 c 128,-1,37
 471 181 471 181 583 177 c 0,24,25
EndSplineSet
Substitution2: "'c2sc' Capitals to Small Capitals in Cyrillic lookup 3 subtable" OE.c2sc
Substitution2: "'c2sc' Capitals to Small Capitals in Greek lookup 2 subtable" OE.c2sc
Substitution2: "'c2sc' Capitals to Small Capitals lookup 1 subtable" OE.c2sc
Substitution2: "'c2sc' Capitals to Small Capitals in Latin lookup 0 subtable" OE.c2sc
Position2: "'cpsp' Capital Spacing in Cyrillic lookup 3 subtable" dx=36 dy=0 dh=72 dv=0
Position2: "'cpsp' Capital Spacing in Greek lookup 2 subtable" dx=36 dy=0 dh=72 dv=0
Position2: "'cpsp' Capital Spacing lookup 1 subtable" dx=36 dy=0 dh=72 dv=0
Position2: "'cpsp' Capital Spacing in Latin lookup 0 subtable" dx=36 dy=0 dh=72 dv=0
EndChar

StartChar: oe
Encoding: 339 339 278
Width: 1805
Flags: W
LayerCount: 2
Back
Fore
SplineSet
84 544 m 1,0,1
 104 705 104 705 180 835 c 128,-1,2
 256 965 256 965 375 1035 c 128,-1,3
 494 1105 494 1105 642 1103 c 0,4,5
 756 1101 756 1101 847.5 1054 c 128,-1,6
 939 1007 939 1007 988 926 c 1,7,8
 1154 1106 1154 1106 1360 1102 c 0,9,10
 1555 1098 1555 1098 1655.5 963.5 c 128,-1,11
 1756 829 1756 829 1730 614 c 1,12,-1
 1708 471 l 1,13,-1
 1052 471 l 1,14,15
 1039 338 1039 338 1092.5 258.5 c 128,-1,16
 1146 179 1146 179 1250 176 c 0,17,18
 1404 171 1404 171 1558 266 c 1,19,-1
 1623 106 l 1,20,21
 1556 44 1556 44 1454 11.5 c 128,-1,22
 1352 -21 1352 -21 1229 -19 c 0,23,24
 1111 -17 1111 -17 1020.5 29 c 128,-1,25
 930 75 930 75 881 153 c 1,26,27
 715 -24 715 -24 486 -20 c 0,28,29
 348 -18 348 -18 251 53 c 128,-1,30
 154 124 154 124 110 248.5 c 128,-1,31
 66 373 66 373 82 523 c 2,32,-1
 84 544 l 1,0,1
318 523 m 1,33,-1
 313 448 l 1,34,-1
 314 402 l 1,35,36
 328 179 328 179 500 172 c 0,37,38
 623 169 623 169 705 268 c 128,-1,39
 787 367 787 367 808 532 c 1,40,-1
 815 629 l 1,41,-1
 815 658 l 1,42,43
 807 900 807 900 627 908 c 0,44,45
 513 911 513 911 433 822.5 c 128,-1,46
 353 734 353 734 325 570 c 2,47,-1
 318 523 l 1,33,-1
1344 909 m 0,48,49
 1262 910 1262 910 1195.5 849 c 128,-1,50
 1129 788 1129 788 1075 648 c 1,51,-1
 1498 648 l 1,52,-1
 1503 676 l 2,53,54
 1510 721 1510 721 1505 762 c 0,55,56
 1497 829 1497 829 1455.5 867.5 c 128,-1,57
 1414 906 1414 906 1344 909 c 0,48,49
EndSplineSet
Substitution2: "'smcp' Lowercase to Small Capitals in Cyrillic lookup 7 subtable" OE.c2sc
Substitution2: "'smcp' Lowercase to Small Capitals in Greek lookup 6 subtable" OE.c2sc
Substitution2: "'smcp' Lowercase to Small Capitals lookup 5 subtable" OE.c2sc
Substitution2: "'smcp' Lowercase to Small Capitals in Latin lookup 4 subtable" OE.c2sc
EndChar

StartChar: Tbar
Encoding: 358 358 297
Width: 1216
Flags: W
LayerCount: 2
Back
Fore
SplineSet
958 786 m 1,0,-1
 757 786 l 1,1,-1
 621 0 l 1,2,-1
 375 0 l 1,3,-1
 512 786 l 1,4,-1
 307 786 l 1,5,-1
 337 956 l 1,6,-1
 541 956 l 1,7,-1
 593 1252 l 1,8,-1
 156 1252 l 1,9,-1
 192 1456 l 1,10,-1
 1314 1456 l 1,11,-1
 1278 1252 l 1,12,-1
 838 1252 l 1,13,-1
 786 956 l 1,14,-1
 988 956 l 1,15,-1
 958 786 l 1,0,-1
EndSplineSet
Substitution2: "'c2sc' Capitals to Small Capitals in Cyrillic lookup 3 subtable" Tbar.c2sc
Substitution2: "'c2sc' Capitals to Small Capitals in Greek lookup 2 subtable" Tbar.c2sc
Substitution2: "'c2sc' Capitals to Small Capitals lookup 1 subtable" Tbar.c2sc
Substitution2: "'c2sc' Capitals to Small Capitals in Latin lookup 0 subtable" Tbar.c2sc
Position2: "'cpsp' Capital Spacing in Cyrillic lookup 3 subtable" dx=36 dy=0 dh=72 dv=0
Position2: "'cpsp' Capital Spacing in Greek lookup 2 subtable" dx=36 dy=0 dh=72 dv=0
Position2: "'cpsp' Capital Spacing lookup 1 subtable" dx=36 dy=0 dh=72 dv=0
Position2: "'cpsp' Capital Spacing in Latin lookup 0 subtable" dx=36 dy=0 dh=72 dv=0
EndChar

StartChar: tbar
Encoding: 359 359 298
Width: 671
Flags: W
LayerCount: 2
Back
Fore
SplineSet
621 567 m 1,0,-1
 412 567 l 1,1,-1
 367 296 l 2,2,3
 364 271 364 271 366 251 c 0,4,5
 372 186 372 186 446 183 c 0,6,7
 483 183 483 183 530 192 c 1,8,-1
 514 2 l 1,9,10
 440 -19 440 -19 365 -19 c 0,11,12
 241 -17 241 -17 179.5 65.5 c 128,-1,13
 118 148 118 148 131 284 c 1,14,-1
 177 567 l 1,15,-1
 -30 567 l 1,16,-1
 0 737 l 1,17,-1
 205 737 l 1,18,-1
 232 902 l 1,19,-1
 59 902 l 1,20,-1
 91 1082 l 1,21,-1
 263 1082 l 1,22,-1
 309 1345 l 1,23,-1
 547 1345 l 1,24,-1
 501 1082 l 1,25,-1
 686 1082 l 1,26,-1
 655 902 l 1,27,-1
 469 902 l 1,28,-1
 441 737 l 1,29,-1
 651 737 l 1,30,-1
 621 567 l 1,0,-1
EndSplineSet
Substitution2: "'smcp' Lowercase to Small Capitals in Cyrillic lookup 7 subtable" Tbar.c2sc
Substitution2: "'smcp' Lowercase to Small Capitals in Greek lookup 6 subtable" Tbar.c2sc
Substitution2: "'smcp' Lowercase to Small Capitals lookup 5 subtable" Tbar.c2sc
Substitution2: "'smcp' Lowercase to Small Capitals in Latin lookup 4 subtable" Tbar.c2sc
EndChar

StartChar: Uogonek
Encoding: 370 370 309
Width: 1305
Flags: W
LayerCount: 2
Back
Fore
SplineSet
1330 1456 m 1,0,-1
 1165 483 l 1,1,2
 1142 319 1142 319 1047 196 c 128,-1,3
 952 73 952 73 803 17 c 1,4,5
 681 -63 681 -63 671 -151 c 0,6,7
 666 -208 666 -208 722 -211 c 0,8,9
 749 -212 749 -212 810 -189 c 1,10,-1
 822 -333 l 1,11,12
 753 -376 753 -376 668 -374 c 0,13,14
 581 -374 581 -374 528.5 -319.5 c 128,-1,15
 476 -265 476 -265 478 -181 c 0,16,17
 480 -93 480 -93 541 -21 c 1,18,19
 397 -13 397 -13 292 53 c 128,-1,20
 187 119 187 119 139 230.5 c 128,-1,21
 91 342 91 342 108 482 c 1,22,-1
 273 1456 l 1,23,-1
 519 1456 l 1,24,-1
 354 481 l 1,25,26
 336 342 336 342 395 264 c 128,-1,27
 454 186 454 186 577 182 c 0,28,29
 712 178 712 178 802 255 c 128,-1,30
 892 332 892 332 917 476 c 2,31,-1
 1084 1456 l 1,32,-1
 1330 1456 l 1,0,-1
EndSplineSet
Substitution2: "'c2sc' Capitals to Small Capitals in Cyrillic lookup 3 subtable" Uogonek.c2sc
Substitution2: "'c2sc' Capitals to Small Capitals in Greek lookup 2 subtable" Uogonek.c2sc
Substitution2: "'c2sc' Capitals to Small Capitals lookup 1 subtable" Uogonek.c2sc
Substitution2: "'c2sc' Capitals to Small Capitals in Latin lookup 0 subtable" Uogonek.c2sc
Position2: "'cpsp' Capital Spacing in Cyrillic lookup 3 subtable" dx=36 dy=0 dh=72 dv=0
Position2: "'cpsp' Capital Spacing in Greek lookup 2 subtable" dx=36 dy=0 dh=72 dv=0
Position2: "'cpsp' Capital Spacing lookup 1 subtable" dx=36 dy=0 dh=72 dv=0
Position2: "'cpsp' Capital Spacing in Latin lookup 0 subtable" dx=36 dy=0 dh=72 dv=0
EndChar

StartChar: uogonek
Encoding: 371 371 310
Width: 1114
Flags: W
LayerCount: 2
Back
Fore
SplineSet
860 0 m 1,0,-1
 865 -3 l 1,1,-1
 818 -34 l 2,2,3
 687 -120 687 -120 680 -206 c 0,4,5
 675 -263 675 -263 731 -266 c 0,6,7
 758 -267 758 -267 819 -244 c 1,8,-1
 831 -388 l 1,9,10
 762 -431 762 -431 677 -429 c 0,11,12
 590 -429 590 -429 537.5 -374.5 c 128,-1,13
 485 -320 485 -320 487 -236 c 0,14,15
 490 -86 490 -86 667 17 c 1,16,-1
 685 107 l 1,17,18
 562 -24 562 -24 377 -20 c 0,19,20
 272 -18 272 -18 202.5 32 c 128,-1,21
 133 82 133 82 103.5 171.5 c 128,-1,22
 74 261 74 261 86 382 c 1,23,-1
 203 1082 l 1,24,-1
 440 1082 l 1,25,-1
 322 379 l 2,26,27
 318 342 318 342 321 307 c 0,28,29
 331 183 331 183 446 178 c 0,30,31
 603 172 603 172 700 304 c 1,32,-1
 836 1082 l 1,33,-1
 1073 1082 l 1,34,-1
 886 0 l 1,35,-1
 860 0 l 1,0,-1
EndSplineSet
Substitution2: "'smcp' Lowercase to Small Capitals in Cyrillic lookup 7 subtable" Uogonek.c2sc
Substitution2: "'smcp' Lowercase to Small Capitals in Greek lookup 6 subtable" Uogonek.c2sc
Substitution2: "'smcp' Lowercase to Small Capitals lookup 5 subtable" Uogonek.c2sc
Substitution2: "'smcp' Lowercase to Small Capitals in Latin lookup 4 subtable" Uogonek.c2sc
EndChar

StartChar: longs
Encoding: 383 383 322
Width: 518
Flags: W
LayerCount: 2
Back
Fore
SplineSet
30 0 m 1,0,-1
 231 1183 l 1,1,2
 254 1360 254 1360 363 1461 c 128,-1,3
 472 1562 472 1562 642 1560 c 0,4,5
 702 1559 702 1559 800 1536 c 1,6,-1
 756 1352 l 1,7,8
 712 1364 712 1364 667 1366 c 0,9,10
 587 1366 587 1366 535 1316.5 c 128,-1,11
 483 1267 483 1267 468 1178 c 2,12,-1
 266 0 l 1,13,-1
 30 0 l 1,0,-1
EndSplineSet
EndChar

StartChar: uni018F
Encoding: 399 399 323
Width: 1384
Flags: W
LayerCount: 2
Back
Fore
SplineSet
585 -20 m 0,0,1
 374 -16 374 -16 243.5 101.5 c 128,-1,2
 113 219 113 219 87 431 c 1,3,-1
 83 481 l 2,4,5
 78 565 78 565 90 655 c 2,6,-1
 112 798 l 1,7,-1
 1055 797 l 1,8,9
 1070 888 1070 888 1060 971 c 0,10,11
 1042 1106 1042 1106 957 1181.5 c 128,-1,12
 872 1257 872 1257 733 1260 c 0,13,14
 569 1263 569 1263 360 1190 c 1,15,-1
 330 1391 l 1,16,17
 464 1475 464 1475 751 1475 c 0,18,19
 941 1472 941 1472 1074.5 1384 c 128,-1,20
 1208 1296 1208 1296 1267.5 1137.5 c 128,-1,21
 1327 979 1327 979 1302 783 c 2,22,-1
 1287 679 l 2,23,24
 1257 474 1257 474 1155.5 312 c 128,-1,25
 1054 150 1054 150 905 63 c 128,-1,26
 756 -24 756 -24 585 -20 c 0,0,1
599 191 m 0,27,28
 744 188 744 188 853 289.5 c 128,-1,29
 962 391 962 391 1029 600 c 1,30,-1
 330 600 l 1,31,-1
 323 566 l 2,32,33
 309 488 309 488 319 421 c 0,34,35
 335 313 335 313 407.5 253.5 c 128,-1,36
 480 194 480 194 599 191 c 0,27,28
EndSplineSet
EndChar

StartChar: florin
Encoding: 402 402 324
Width: 708
Flags: W
LayerCount: 2
Back
Fore
SplineSet
673 902 m 1,0,-1
 478 902 l 1,1,-1
 330 -70 l 1,2,3
 311 -244 311 -244 211 -343 c 128,-1,4
 111 -442 111 -442 -51 -440 c 0,5,6
 -118 -438 -118 -438 -182 -420 c 1,7,-1
 -150 -230 l 1,8,9
 -95 -244 -95 -244 -59 -246 c 0,10,11
 61 -246 61 -246 90 -77 c 2,12,-1
 241 902 l 1,13,-1
 80 902 l 1,14,-1
 109 1082 l 1,15,-1
 269 1082 l 1,16,-1
 281 1183 l 2,17,18
 302 1361 302 1361 410 1461 c 128,-1,19
 518 1561 518 1561 688 1559 c 0,20,21
 741 1558 741 1558 844 1536 c 1,22,-1
 802 1349 l 1,23,24
 747 1361 747 1361 708 1361 c 0,25,26
 544 1361 544 1361 517 1164 c 2,27,-1
 506 1082 l 1,28,-1
 701 1082 l 1,29,-1
 673 902 l 1,0,-1
EndSplineSet
EndChar

StartChar: Ohorn
Encoding: 416 416 325
Width: 1385
Flags: W
LayerCount: 2
Back
Fore
SplineSet
584 -20 m 0,0,1
 441 -17 441 -17 335 47.5 c 128,-1,2
 229 112 229 112 167.5 235.5 c 128,-1,3
 106 359 106 359 98 520 c 0,4,5
 91 646 91 646 122.5 814 c 128,-1,6
 154 982 154 982 230.5 1119 c 128,-1,7
 307 1256 307 1256 415 1343 c 0,8,9
 586 1480 586 1480 808 1476 c 0,10,11
 927 1474 927 1474 1025.5 1430 c 128,-1,12
 1124 1386 1124 1386 1191 1306 c 1,13,14
 1273 1321 1273 1321 1323.5 1385 c 128,-1,15
 1374 1449 1374 1449 1393 1582 c 1,16,-1
 1574 1582 l 1,17,18
 1542 1244 1542 1244 1272 1173 c 1,19,20
 1293 1070 1293 1070 1298 969 c 0,21,22
 1303 835 1303 835 1272.5 657.5 c 128,-1,23
 1242 480 1242 480 1160.5 333.5 c 128,-1,24
 1079 187 1079 187 962 99 c 0,25,26
 797 -24 797 -24 584 -20 c 0,0,1
1041 768 m 1,27,-1
 1050 874 l 1,28,29
 1060 1055 1060 1055 994.5 1159 c 128,-1,30
 929 1263 929 1263 795 1267 c 0,31,32
 623 1272 623 1272 508.5 1135 c 128,-1,33
 394 998 394 998 359 753 c 2,34,-1
 350 689 l 1,35,-1
 342 584 l 2,36,37
 336 475 336 475 362.5 381 c 128,-1,38
 389 287 389 287 448.5 238.5 c 128,-1,39
 508 190 508 190 597 187 c 0,40,41
 762 180 762 180 875 308 c 128,-1,42
 988 436 988 436 1028 679 c 1,43,-1
 1041 768 l 1,27,-1
EndSplineSet
EndChar

StartChar: ohorn
Encoding: 417 417 326
Width: 1157
Flags: W
LayerCount: 2
Back
Fore
SplineSet
81 544 m 1,0,1
 99 704 99 704 177.5 835 c 128,-1,2
 256 966 256 966 376.5 1035.5 c 128,-1,3
 497 1105 497 1105 645 1103 c 0,4,5
 743 1101 743 1101 830.5 1064.5 c 128,-1,6
 918 1028 918 1028 980 951 c 1,7,8
 1083 992 1083 992 1110 1116 c 1,9,-1
 1124 1192 l 1,10,-1
 1285 1192 l 1,11,12
 1271 1048 1271 1048 1213.5 963.5 c 128,-1,13
 1156 879 1156 879 1046 840 c 1,14,15
 1061 768 1061 768 1064 697 c 0,16,17
 1066 626 1066 626 1058 553 c 0,18,19
 1021 282 1021 282 866 128 c 128,-1,20
 711 -26 711 -26 490 -21 c 0,21,22
 278 -15 278 -15 166 139.5 c 128,-1,23
 54 294 54 294 78 523 c 1,24,-1
 81 544 l 1,0,1
312 408 m 0,25,26
 315 303 315 303 364.5 239.5 c 128,-1,27
 414 176 414 176 503 172 c 0,28,29
 625 169 625 169 709 266 c 128,-1,30
 793 363 793 363 817 532 c 1,31,-1
 824 630 l 1,32,33
 827 755 827 755 777.5 829.5 c 128,-1,34
 728 904 728 904 630 908 c 0,35,36
 508 911 508 911 425 813.5 c 128,-1,37
 342 716 342 716 317 544 c 0,38,39
 309 463 309 463 312 408 c 0,25,26
EndSplineSet
EndChar

StartChar: Uhorn
Encoding: 431 431 327
Width: 1411
Flags: W
LayerCount: 2
Back
Fore
SplineSet
1330 1456 m 1,0,-1
 1290 1233 l 1,1,2
 1396 1244 1396 1244 1455.5 1312.5 c 128,-1,3
 1515 1381 1515 1381 1536 1537 c 1,4,-1
 1709 1538 l 1,5,6
 1690 1324 1690 1324 1583.5 1211 c 128,-1,7
 1477 1098 1477 1098 1272 1086 c 1,8,-1
 1164 482 l 1,9,10
 1130 250 1130 250 966.5 113 c 128,-1,11
 803 -24 803 -24 563 -20 c 0,12,13
 414 -17 414 -17 304 46 c 128,-1,14
 194 109 194 109 142.5 223 c 128,-1,15
 91 337 91 337 108 482 c 1,16,-1
 273 1456 l 1,17,-1
 519 1456 l 1,18,-1
 354 481 l 1,19,20
 336 343 336 343 394.5 264 c 128,-1,21
 453 185 453 185 578 181 c 0,22,23
 713 177 713 177 802.5 254 c 128,-1,24
 892 331 892 331 917 476 c 2,25,-1
 1084 1456 l 1,26,-1
 1330 1456 l 1,0,-1
EndSplineSet
EndChar

StartChar: uhorn
Encoding: 432 432 328
Width: 1238
Flags: W
LayerCount: 2
Back
Fore
SplineSet
1377 1172 m 1,0,1
 1362 998 1362 998 1280 913.5 c 128,-1,2
 1198 829 1198 829 1033 817 c 1,3,-1
 886 0 l 1,4,-1
 664 0 l 1,5,-1
 685 107 l 1,6,7
 562 -24 562 -24 377 -20 c 0,8,9
 272 -18 272 -18 202.5 32 c 128,-1,10
 133 82 133 82 103.5 171.5 c 128,-1,11
 74 261 74 261 86 382 c 1,12,-1
 203 1082 l 1,13,-1
 440 1082 l 1,14,-1
 323 379 l 2,15,16
 319 342 319 342 322 307 c 0,17,18
 329 183 329 183 447 178 c 0,19,20
 605 172 605 172 700 304 c 1,21,-1
 836 1082 l 1,22,-1
 1073 1082 l 1,23,-1
 1042 943 l 1,24,25
 1124 956 1124 956 1165 1002 c 128,-1,26
 1206 1048 1206 1048 1224 1171 c 1,27,-1
 1377 1172 l 1,0,1
EndSplineSet
EndChar

StartChar: uni0237
Encoding: 567 567 356
Width: 544
Flags: W
LayerCount: 2
Back
Fore
SplineSet
476 1082 m 1,0,-1
 281 -62 l 1,1,2
 257 -243 257 -243 155 -341.5 c 128,-1,3
 53 -440 53 -440 -110 -440 c 0,4,5
 -171 -440 -171 -440 -241 -423 c 1,6,-1
 -210 -230 l 1,7,8
 -157 -246 -157 -246 -115 -246 c 0,9,10
 12 -246 12 -246 45 -52 c 2,11,-1
 239 1082 l 1,12,-1
 476 1082 l 1,0,-1
EndSplineSet
EndChar

StartChar: uni0259
Encoding: 601 601 357
Width: 1061
Flags: W
LayerCount: 2
Back
Fore
SplineSet
581 1102 m 0,0,1
 787 1098 787 1098 900.5 948.5 c 128,-1,2
 1014 799 1014 799 992 569 c 1,3,-1
 985 512 l 2,4,5
 964 361 964 361 887 235 c 128,-1,6
 810 109 810 109 696 43.5 c 128,-1,7
 582 -22 582 -22 451 -19 c 0,8,9
 254 -13 254 -13 154 121 c 128,-1,10
 54 255 54 255 80 468 c 1,11,-1
 102 611 l 1,12,-1
 758 611 l 1,13,14
 770 742 770 742 717 822.5 c 128,-1,15
 664 903 664 903 559 906 c 0,16,17
 408 911 408 911 252 816 c 1,18,-1
 187 976 l 1,19,20
 254 1038 254 1038 356 1071 c 128,-1,21
 458 1104 458 1104 581 1102 c 0,0,1
465 173 m 0,22,23
 633 167 633 167 736 434 c 1,24,-1
 312 434 l 1,25,26
 299 361 299 361 305 320 c 0,27,28
 313 253 313 253 355.5 213.5 c 128,-1,29
 398 174 398 174 465 173 c 0,22,23
EndSplineSet
EndChar

StartChar: circumflex
Encoding: 710 710 359
Width: 978
Flags: W
LayerCount: 2
Back
Fore
SplineSet
927 1262 m 1,0,-1
 927 1245 l 1,1,-1
 742 1248 l 1,2,-1
 625 1403 l 1,3,-1
 452 1249 l 1,4,-1
 259 1245 l 1,5,-1
 258 1263 l 1,6,-1
 559 1537 l 1,7,-1
 695 1537 l 1,8,-1
 927 1262 l 1,0,-1
EndSplineSet
EndChar

StartChar: caron
Encoding: 711 711 360
Width: 926
Flags: W
LayerCount: 2
Back
Fore
SplineSet
578 1383 m 1,0,-1
 747 1536 l 1,1,-1
 956 1540 l 1,2,-1
 956 1524 l 1,3,-1
 648 1248 l 1,4,-1
 502 1248 l 1,5,-1
 269 1525 l 1,6,-1
 269 1541 l 1,7,-1
 465 1537 l 1,8,-1
 578 1383 l 1,0,-1
EndSplineSet
EndChar

StartChar: breve
Encoding: 728 728 362
Width: 875
Flags: W
LayerCount: 2
Back
Fore
SplineSet
876 1511 m 1,0,1
 866 1378 866 1378 773 1301 c 128,-1,2
 680 1224 680 1224 545 1228 c 0,3,4
 413 1230 413 1230 333.5 1306.5 c 128,-1,5
 254 1383 254 1383 254 1511 c 1,6,-1
 430 1510 l 1,7,8
 425 1370 425 1370 545 1370 c 0,9,10
 612 1370 612 1370 650 1409 c 128,-1,11
 688 1448 688 1448 700 1509 c 1,12,-1
 876 1511 l 1,0,1
EndSplineSet
EndChar

StartChar: dotaccent
Encoding: 729 729 363
Width: 517
Flags: W
LayerCount: 2
Back
Fore
SplineSet
258 1365 m 0,0,1
 258 1421 258 1421 293.5 1456.5 c 128,-1,2
 329 1492 329 1492 384 1494 c 128,-1,3
 439 1496 439 1496 476 1461.5 c 128,-1,4
 513 1427 513 1427 513 1373 c 0,5,6
 513 1316 513 1316 477.5 1282 c 128,-1,7
 442 1248 442 1248 387 1246 c 0,8,9
 333 1244 333 1244 295.5 1278.5 c 128,-1,10
 258 1313 258 1313 258 1365 c 0,0,1
EndSplineSet
EndChar

StartChar: ring
Encoding: 730 730 364
Width: 679
Flags: W
LayerCount: 2
Back
Fore
SplineSet
250 1362 m 0,0,1
 250 1452 250 1452 316.5 1515.5 c 128,-1,2
 383 1579 383 1579 476 1579 c 0,3,4
 558 1579 558 1579 619 1520.5 c 128,-1,5
 680 1462 680 1462 680 1378 c 0,6,7
 680 1289 680 1289 614 1226.5 c 128,-1,8
 548 1164 548 1164 455 1164 c 0,9,10
 368 1164 368 1164 309 1222 c 128,-1,11
 250 1280 250 1280 250 1362 c 0,0,1
357 1364 m 0,12,13
 351 1324 351 1324 376 1291 c 128,-1,14
 401 1258 401 1258 444 1258 c 0,15,16
 494 1258 494 1258 530.5 1294 c 128,-1,17
 567 1330 567 1330 573 1376 c 0,18,19
 579 1419 579 1419 554.5 1451 c 128,-1,20
 530 1483 530 1483 487 1483 c 0,21,22
 437 1483 437 1483 400 1446.5 c 128,-1,23
 363 1410 363 1410 357 1364 c 0,12,13
EndSplineSet
EndChar

StartChar: ogonek
Encoding: 731 731 365
Width: 581
Flags: W
LayerCount: 2
Back
Fore
SplineSet
292 -3 m 1,0,-1
 245 -34 l 2,1,2
 114 -120 114 -120 107 -206 c 0,3,4
 102 -263 102 -263 158 -266 c 0,5,6
 185 -267 185 -267 246 -244 c 1,7,-1
 258 -388 l 1,8,9
 189 -431 189 -431 104 -429 c 0,10,11
 17 -429 17 -429 -35.5 -374.5 c 128,-1,12
 -88 -320 -88 -320 -86 -236 c 0,13,14
 -83 -57 -83 -57 181 61 c 1,15,-1
 292 -3 l 1,0,-1
EndSplineSet
EndChar

StartChar: tilde
Encoding: 732 732 366
Width: 964
Flags: W
LayerCount: 2
Back
Fore
SplineSet
969 1513 m 1,0,1
 957 1394 957 1394 892.5 1324 c 128,-1,2
 828 1254 828 1254 734 1254 c 0,3,4
 710 1254 710 1254 687.5 1261 c 128,-1,5
 665 1268 665 1268 611.5 1298.5 c 128,-1,6
 558 1329 558 1329 532 1338.5 c 128,-1,7
 506 1348 506 1348 477 1347 c 0,8,9
 398 1344 398 1344 371 1243 c 1,10,-1
 222 1251 l 1,11,12
 232 1365 232 1365 297 1440.5 c 128,-1,13
 362 1516 362 1516 458 1514 c 0,14,15
 506 1513 506 1513 581 1468.5 c 128,-1,16
 656 1424 656 1424 690 1420 c 2,17,-1
 715 1419 l 1,18,19
 796 1422 796 1422 824 1524 c 1,20,-1
 969 1513 l 1,0,1
EndSplineSet
EndChar

StartChar: hungarumlaut
Encoding: 733 733 367
Width: 785
Flags: W
LayerCount: 2
Back
Fore
SplineSet
751 1535 m 1,0,-1
 1001 1535 l 1,1,-1
 690 1233 l 1,2,-1
 480 1233 l 1,3,-1
 751 1535 l 1,0,-1
394 1535 m 1,4,-1
 637 1535 l 1,5,-1
 369 1233 l 1,6,-1
 172 1233 l 1,7,-1
 394 1535 l 1,4,-1
EndSplineSet
EndChar

StartChar: uni02F3
Encoding: 755 755 368
Width: 611
Flags: W
LayerCount: 2
Back
Fore
SplineSet
-18 -245 m 0,0,1
 -18 -168 -18 -168 35 -116.5 c 128,-1,2
 88 -65 88 -65 163 -65 c 0,3,4
 236 -65 236 -65 284.5 -114 c 128,-1,5
 333 -163 333 -163 333 -231 c 0,6,7
 333 -305 333 -305 280.5 -356 c 128,-1,8
 228 -407 228 -407 156 -407 c 0,9,10
 82 -407 82 -407 32 -360 c 128,-1,11
 -18 -313 -18 -313 -18 -245 c 0,0,1
79 -243 m 0,12,13
 75 -274 75 -274 93.5 -295.5 c 128,-1,14
 112 -317 112 -317 141 -317 c 0,15,16
 174 -317 174 -317 201 -291.5 c 128,-1,17
 228 -266 228 -266 234 -233 c 0,18,19
 239 -204 239 -204 224 -179.5 c 128,-1,20
 209 -155 209 -155 177 -154 c 0,21,22
 142 -154 142 -154 113.5 -181 c 128,-1,23
 85 -208 85 -208 79 -243 c 0,12,13
EndSplineSet
EndChar

StartChar: gravecomb
Encoding: 768 768 369
Width: 10
Flags: W
LayerCount: 2
Back
Fore
SplineSet
-295 1233 m 1,0,-1
 -475 1233 l 1,1,-1
 -684 1536 l 1,2,-1
 -432 1536 l 1,3,-1
 -295 1233 l 1,0,-1
EndSplineSet
EndChar

StartChar: acutecomb
Encoding: 769 769 370
Width: 10
Flags: W
LayerCount: 2
Back
Fore
SplineSet
-311 1536 m 1,0,-1
 -23 1536 l 1,1,-1
 -345 1233 l 1,2,-1
 -553 1233 l 1,3,-1
 -311 1536 l 1,0,-1
EndSplineSet
EndChar

StartChar: hookabovecomb
Encoding: 777 777 372
Width: 10
Flags: W
LayerCount: 2
Back
Fore
SplineSet
-554 1254 m 1,0,-1
 -540 1400 l 1,1,-1
 -493 1405 l 2,2,3
 -398 1416 -398 1416 -389 1474 c 0,4,5
 -379 1534 -379 1534 -486 1538 c 2,6,-1
 -520 1539 l 1,7,-1
 -503 1663 l 1,8,-1
 -463 1661 l 1,9,10
 -195 1639 -195 1639 -198 1478 c 0,11,12
 -201 1353 -201 1353 -361 1323 c 1,13,-1
 -371 1253 l 1,14,-1
 -554 1254 l 1,0,-1
EndSplineSet
EndChar

StartChar: uni030F
Encoding: 783 783 373
Width: 10
Flags: W
LayerCount: 2
Back
Fore
SplineSet
-367 1252 m 1,0,-1
 -588 1252 l 1,1,-1
 -833 1518 l 1,2,-1
 -559 1518 l 1,3,-1
 -367 1252 l 1,0,-1
-77 1252 m 1,4,-1
 -283 1252 l 1,5,-1
 -475 1518 l 1,6,-1
 -215 1518 l 1,7,-1
 -77 1252 l 1,4,-1
EndSplineSet
EndChar

StartChar: dotbelowcomb
Encoding: 803 803 374
Width: 10
Flags: W
LayerCount: 2
Back
Fore
SplineSet
-864 -245 m 0,0,1
 -864 -191 -864 -191 -826.5 -154.5 c 128,-1,2
 -789 -118 -789 -118 -731 -116 c 0,3,4
 -676 -114 -676 -114 -636 -148 c 128,-1,5
 -596 -182 -596 -182 -596 -237 c 0,6,7
 -596 -294 -596 -294 -633 -328.5 c 128,-1,8
 -670 -363 -670 -363 -729 -365 c 0,9,10
 -787 -367 -787 -367 -825.5 -332 c 128,-1,11
 -864 -297 -864 -297 -864 -245 c 0,0,1
EndSplineSet
EndChar

StartChar: tonos
Encoding: 900 900 375
Width: 597
Flags: W
LayerCount: 2
Back
Fore
SplineSet
422 1601 m 1,0,-1
 648 1601 l 1,1,-1
 452 1257 l 1,2,-1
 302 1257 l 1,3,-1
 422 1601 l 1,0,-1
EndSplineSet
EndChar

StartChar: dieresistonos
Encoding: 901 901 376
Width: 1061
Flags: W
LayerCount: 2
Back
Fore
SplineSet
669 1711 m 1,0,-1
 901 1711 l 1,1,-1
 722 1413 l 1,2,-1
 571 1413 l 1,3,-1
 669 1711 l 1,0,-1
232 1363 m 0,4,5
 232 1411 232 1411 266 1447 c 128,-1,6
 300 1483 300 1483 355 1485 c 0,7,8
 405 1487 405 1487 442 1454 c 128,-1,9
 479 1421 479 1421 479 1369 c 0,10,11
 478 1317 478 1317 443 1283 c 128,-1,12
 408 1249 408 1249 357 1247 c 0,13,14
 307 1245 307 1245 269.5 1278 c 128,-1,15
 232 1311 232 1311 232 1363 c 0,4,5
812 1362 m 0,16,17
 813 1414 813 1414 848 1448 c 128,-1,18
 883 1482 883 1482 934 1484 c 0,19,20
 984 1486 984 1486 1021.5 1453 c 128,-1,21
 1059 1420 1059 1420 1059 1368 c 0,22,23
 1059 1320 1059 1320 1024.5 1284 c 128,-1,24
 990 1248 990 1248 936 1246 c 0,25,26
 884 1244 884 1244 848 1278 c 128,-1,27
 812 1312 812 1312 812 1362 c 0,16,17
EndSplineSet
EndChar

StartChar: Gamma
Encoding: 915 915 388
Width: 1117
Flags: W
LayerCount: 2
Back
Fore
SplineSet
1160 1252 m 1,0,-1
 509 1252 l 1,1,-1
 292 0 l 1,2,-1
 46 0 l 1,3,-1
 298 1456 l 1,4,-1
 1196 1456 l 1,5,-1
 1160 1252 l 1,0,-1
EndSplineSet
Substitution2: "'c2sc' Capitals to Small Capitals in Cyrillic lookup 3 subtable" Gamma.c2sc
Substitution2: "'c2sc' Capitals to Small Capitals in Greek lookup 2 subtable" Gamma.c2sc
Substitution2: "'c2sc' Capitals to Small Capitals lookup 1 subtable" Gamma.c2sc
Substitution2: "'c2sc' Capitals to Small Capitals in Latin lookup 0 subtable" Gamma.c2sc
Position2: "'cpsp' Capital Spacing in Cyrillic lookup 3 subtable" dx=36 dy=0 dh=72 dv=0
Position2: "'cpsp' Capital Spacing in Greek lookup 2 subtable" dx=36 dy=0 dh=72 dv=0
Position2: "'cpsp' Capital Spacing lookup 1 subtable" dx=36 dy=0 dh=72 dv=0
Position2: "'cpsp' Capital Spacing in Latin lookup 0 subtable" dx=36 dy=0 dh=72 dv=0
EndChar

StartChar: Delta
Encoding: 8710 8710 389
AltUni2: 000394.ffffffff.0
Width: 1437
Flags: W
LayerCount: 2
Back
Fore
SplineSet
747 1456 m 1,0,-1
 984 1456 l 1,1,-1
 1289 0 l 1,2,-1
 -86 0 l 1,3,-1
 747 1456 l 1,0,-1
292 202 m 1,4,-1
 1005 202 l 1,5,-1
 822 1155 l 1,6,-1
 292 202 l 1,4,-1
EndSplineSet
Substitution2: "'c2sc' Capitals to Small Capitals in Cyrillic lookup 3 subtable" Delta.c2sc
Substitution2: "'c2sc' Capitals to Small Capitals in Greek lookup 2 subtable" Delta.c2sc
Substitution2: "'c2sc' Capitals to Small Capitals lookup 1 subtable" Delta.c2sc
Substitution2: "'c2sc' Capitals to Small Capitals in Latin lookup 0 subtable" Delta.c2sc
Position2: "'cpsp' Capital Spacing in Cyrillic lookup 3 subtable" dx=36 dy=0 dh=72 dv=0
Position2: "'cpsp' Capital Spacing in Greek lookup 2 subtable" dx=36 dy=0 dh=72 dv=0
Position2: "'cpsp' Capital Spacing lookup 1 subtable" dx=36 dy=0 dh=72 dv=0
Position2: "'cpsp' Capital Spacing in Latin lookup 0 subtable" dx=36 dy=0 dh=72 dv=0
EndChar

StartChar: Theta
Encoding: 920 920 393
Width: 1370
Flags: W
LayerCount: 2
Back
Fore
SplineSet
912 633 m 1,0,-1
 475 633 l 1,1,-1
 510 827 l 1,2,-1
 946 827 l 1,3,-1
 912 633 l 1,0,-1
588 -20 m 0,4,5
 445 -17 445 -17 338 48.5 c 128,-1,6
 231 114 231 114 170 238 c 128,-1,7
 109 362 109 362 101 519 c 0,8,9
 94 634 94 634 123 802.5 c 128,-1,10
 152 971 152 971 231.5 1115.5 c 128,-1,11
 311 1260 311 1260 427 1350 c 0,12,13
 595 1480 595 1480 811 1476 c 128,-1,14
 1027 1472 1027 1472 1155.5 1327 c 128,-1,15
 1284 1182 1284 1182 1296 935 c 0,16,17
 1302 811 1302 811 1273.5 650.5 c 128,-1,18
 1245 490 1245 490 1175.5 355.5 c 128,-1,19
 1106 221 1106 221 1003 131 c 0,20,21
 825 -25 825 -25 588 -20 c 0,4,5
1045 768 m 1,22,-1
 1054 874 l 1,23,24
 1061 1062 1061 1062 995.5 1162.5 c 128,-1,25
 930 1263 930 1263 799 1267 c 0,26,27
 624 1272 624 1272 511 1134.5 c 128,-1,28
 398 997 398 997 364 760 c 2,29,-1
 354 689 l 1,30,-1
 346 584 l 2,31,32
 336 401 336 401 402 296 c 128,-1,33
 468 191 468 191 601 187 c 0,34,35
 766 180 766 180 879 308 c 128,-1,36
 992 436 992 436 1032 679 c 1,37,-1
 1045 768 l 1,22,-1
EndSplineSet
Substitution2: "'c2sc' Capitals to Small Capitals in Cyrillic lookup 3 subtable" Theta.c2sc
Substitution2: "'c2sc' Capitals to Small Capitals in Greek lookup 2 subtable" Theta.c2sc
Substitution2: "'c2sc' Capitals to Small Capitals lookup 1 subtable" Theta.c2sc
Substitution2: "'c2sc' Capitals to Small Capitals in Latin lookup 0 subtable" Theta.c2sc
Position2: "'cpsp' Capital Spacing in Cyrillic lookup 3 subtable" dx=36 dy=0 dh=72 dv=0
Position2: "'cpsp' Capital Spacing in Greek lookup 2 subtable" dx=36 dy=0 dh=72 dv=0
Position2: "'cpsp' Capital Spacing lookup 1 subtable" dx=36 dy=0 dh=72 dv=0
Position2: "'cpsp' Capital Spacing in Latin lookup 0 subtable" dx=36 dy=0 dh=72 dv=0
EndChar

StartChar: Lambda
Encoding: 923 923 396
Width: 1306
Flags: W
LayerCount: 2
Back
Fore
SplineSet
734 1089 m 1,0,-1
 195 0 l 1,1,-1
 -78 0 l 1,2,-1
 669 1456 l 1,3,-1
 908 1456 l 1,4,-1
 1151 0 l 1,5,-1
 895 0 l 1,6,-1
 734 1089 l 1,0,-1
EndSplineSet
Substitution2: "'c2sc' Capitals to Small Capitals in Cyrillic lookup 3 subtable" Lambda.c2sc
Substitution2: "'c2sc' Capitals to Small Capitals in Greek lookup 2 subtable" Lambda.c2sc
Substitution2: "'c2sc' Capitals to Small Capitals lookup 1 subtable" Lambda.c2sc
Substitution2: "'c2sc' Capitals to Small Capitals in Latin lookup 0 subtable" Lambda.c2sc
Position2: "'cpsp' Capital Spacing in Cyrillic lookup 3 subtable" dx=36 dy=0 dh=72 dv=0
Position2: "'cpsp' Capital Spacing in Greek lookup 2 subtable" dx=36 dy=0 dh=72 dv=0
Position2: "'cpsp' Capital Spacing lookup 1 subtable" dx=36 dy=0 dh=72 dv=0
Position2: "'cpsp' Capital Spacing in Latin lookup 0 subtable" dx=36 dy=0 dh=72 dv=0
EndChar

StartChar: Xi
Encoding: 926 926 399
Width: 1143
Flags: W
LayerCount: 2
Back
Fore
SplineSet
36 202 m 1,0,-1
 970 202 l 1,1,-1
 935 0 l 1,2,-1
 0 0 l 1,3,-1
 36 202 l 1,0,-1
244 845 m 1,4,-1
 981 845 l 1,5,-1
 946 647 l 1,6,-1
 209 647 l 1,7,-1
 244 845 l 1,4,-1
265 1456 m 1,8,-1
 1160 1456 l 1,9,-1
 1125 1252 l 1,10,-1
 229 1252 l 1,11,-1
 265 1456 l 1,8,-1
EndSplineSet
Substitution2: "'c2sc' Capitals to Small Capitals in Cyrillic lookup 3 subtable" Xi.c2sc
Substitution2: "'c2sc' Capitals to Small Capitals in Greek lookup 2 subtable" Xi.c2sc
Substitution2: "'c2sc' Capitals to Small Capitals lookup 1 subtable" Xi.c2sc
Substitution2: "'c2sc' Capitals to Small Capitals in Latin lookup 0 subtable" Xi.c2sc
Position2: "'cpsp' Capital Spacing in Cyrillic lookup 3 subtable" dx=36 dy=0 dh=72 dv=0
Position2: "'cpsp' Capital Spacing in Greek lookup 2 subtable" dx=36 dy=0 dh=72 dv=0
Position2: "'cpsp' Capital Spacing lookup 1 subtable" dx=36 dy=0 dh=72 dv=0
Position2: "'cpsp' Capital Spacing in Latin lookup 0 subtable" dx=36 dy=0 dh=72 dv=0
EndChar

StartChar: Pi
Encoding: 928 928 401
Width: 1423
Flags: W
LayerCount: 2
Back
Fore
SplineSet
1158 0 m 1,0,-1
 912 0 l 1,1,-1
 1129 1252 l 1,2,-1
 509 1252 l 1,3,-1
 292 0 l 1,4,-1
 46 0 l 1,5,-1
 298 1456 l 1,6,-1
 1411 1456 l 1,7,-1
 1158 0 l 1,0,-1
EndSplineSet
Substitution2: "'c2sc' Capitals to Small Capitals in Cyrillic lookup 3 subtable" Pi.c2sc
Substitution2: "'c2sc' Capitals to Small Capitals in Greek lookup 2 subtable" Pi.c2sc
Substitution2: "'c2sc' Capitals to Small Capitals lookup 1 subtable" Pi.c2sc
Substitution2: "'c2sc' Capitals to Small Capitals in Latin lookup 0 subtable" Pi.c2sc
Position2: "'cpsp' Capital Spacing in Cyrillic lookup 3 subtable" dx=36 dy=0 dh=72 dv=0
Position2: "'cpsp' Capital Spacing in Greek lookup 2 subtable" dx=36 dy=0 dh=72 dv=0
Position2: "'cpsp' Capital Spacing lookup 1 subtable" dx=36 dy=0 dh=72 dv=0
Position2: "'cpsp' Capital Spacing in Latin lookup 0 subtable" dx=36 dy=0 dh=72 dv=0
EndChar

StartChar: Sigma
Encoding: 931 931 403
Width: 1143
Flags: W
LayerCount: 2
Back
Fore
SplineSet
795 721 m 1,0,-1
 330 202 l 1,1,-1
 1000 202 l 1,2,-1
 965 0 l 1,3,-1
 -36 0 l 1,4,-1
 -8 162 l 1,5,-1
 536 741 l 1,6,-1
 192 1315 l 1,7,-1
 217 1456 l 1,8,-1
 1183 1456 l 1,9,-1
 1147 1252 l 1,10,-1
 497 1252 l 1,11,-1
 796 741 l 1,12,-1
 795 721 l 1,0,-1
EndSplineSet
Substitution2: "'c2sc' Capitals to Small Capitals in Cyrillic lookup 3 subtable" Sigma.c2sc
Substitution2: "'c2sc' Capitals to Small Capitals in Greek lookup 2 subtable" Sigma.c2sc
Substitution2: "'c2sc' Capitals to Small Capitals lookup 1 subtable" Sigma.c2sc
Substitution2: "'c2sc' Capitals to Small Capitals in Latin lookup 0 subtable" Sigma.c2sc
Position2: "'cpsp' Capital Spacing in Cyrillic lookup 3 subtable" dx=36 dy=0 dh=72 dv=0
Position2: "'cpsp' Capital Spacing in Greek lookup 2 subtable" dx=36 dy=0 dh=72 dv=0
Position2: "'cpsp' Capital Spacing lookup 1 subtable" dx=36 dy=0 dh=72 dv=0
Position2: "'cpsp' Capital Spacing in Latin lookup 0 subtable" dx=36 dy=0 dh=72 dv=0
EndChar

StartChar: Phi
Encoding: 934 934 406
Width: 1483
Flags: W
LayerCount: 2
Back
Fore
SplineSet
981 1277 m 1,0,1
 1200 1267 1200 1267 1328.5 1113 c 128,-1,2
 1457 959 1457 959 1436 729 c 0,3,4
 1421 570 1421 570 1334.5 442 c 128,-1,5
 1248 314 1248 314 1108.5 243.5 c 128,-1,6
 969 173 969 173 802 170 c 1,7,-1
 766 0 l 1,8,-1
 519 0 l 1,9,-1
 555 171 l 1,10,11
 410 176 410 176 300 247 c 128,-1,12
 190 318 190 318 136 441 c 128,-1,13
 82 564 82 564 97 711 c 0,14,15
 112 871 112 871 197 999 c 128,-1,16
 282 1127 282 1127 420 1200 c 0,17,18
 563 1275 563 1275 734 1278 c 1,19,-1
 772 1456 l 1,20,-1
 1019 1456 l 1,21,-1
 981 1277 l 1,0,1
339 711 m 0,22,23
 322 565 322 565 384 478 c 128,-1,24
 446 391 446 391 579 380 c 1,25,-1
 709 1070 l 1,26,27
 557 1062 557 1062 457.5 966 c 128,-1,28
 358 870 358 870 339 711 c 0,22,23
1194 730 m 0,29,30
 1212 879 1212 879 1151 967 c 128,-1,31
 1090 1055 1090 1055 957 1068 c 1,32,-1
 828 378 l 1,33,34
 977 386 977 386 1076.5 480.5 c 128,-1,35
 1176 575 1176 575 1194 730 c 0,29,30
EndSplineSet
Substitution2: "'c2sc' Capitals to Small Capitals in Cyrillic lookup 3 subtable" Phi.c2sc
Substitution2: "'c2sc' Capitals to Small Capitals in Greek lookup 2 subtable" Phi.c2sc
Substitution2: "'c2sc' Capitals to Small Capitals lookup 1 subtable" Phi.c2sc
Substitution2: "'c2sc' Capitals to Small Capitals in Latin lookup 0 subtable" Phi.c2sc
Position2: "'cpsp' Capital Spacing in Cyrillic lookup 3 subtable" dx=36 dy=0 dh=72 dv=0
Position2: "'cpsp' Capital Spacing in Greek lookup 2 subtable" dx=36 dy=0 dh=72 dv=0
Position2: "'cpsp' Capital Spacing lookup 1 subtable" dx=36 dy=0 dh=72 dv=0
Position2: "'cpsp' Capital Spacing in Latin lookup 0 subtable" dx=36 dy=0 dh=72 dv=0
EndChar

StartChar: Psi
Encoding: 936 936 408
Width: 1417
Flags: W
LayerCount: 2
Back
Fore
SplineSet
833 575 m 1,0,1
 967 602 967 602 1052.5 700.5 c 128,-1,2
 1138 799 1138 799 1163 953 c 2,3,-1
 1248 1456 l 1,4,-1
 1495 1456 l 1,5,-1
 1409 946 l 2,6,7
 1367 697 1367 697 1207.5 547.5 c 128,-1,8
 1048 398 1048 398 802 375 c 1,9,-1
 730 0 l 1,10,-1
 484 0 l 1,11,-1
 556 375 l 1,12,13
 336 406 336 406 226.5 566.5 c 128,-1,14
 117 727 117 727 146 959 c 1,15,-1
 229 1456 l 1,16,-1
 475 1456 l 1,17,-1
 391 958 l 2,18,19
 383 896 383 896 386 836 c 0,20,21
 391 738 391 738 440.5 670.5 c 128,-1,22
 490 603 490 603 579 579 c 1,23,-1
 737 1456 l 1,24,-1
 981 1456 l 1,25,-1
 833 575 l 1,0,1
EndSplineSet
Substitution2: "'c2sc' Capitals to Small Capitals in Cyrillic lookup 3 subtable" Psi.c2sc
Substitution2: "'c2sc' Capitals to Small Capitals in Greek lookup 2 subtable" Psi.c2sc
Substitution2: "'c2sc' Capitals to Small Capitals lookup 1 subtable" Psi.c2sc
Substitution2: "'c2sc' Capitals to Small Capitals in Latin lookup 0 subtable" Psi.c2sc
Position2: "'cpsp' Capital Spacing in Cyrillic lookup 3 subtable" dx=36 dy=0 dh=72 dv=0
Position2: "'cpsp' Capital Spacing in Greek lookup 2 subtable" dx=36 dy=0 dh=72 dv=0
Position2: "'cpsp' Capital Spacing lookup 1 subtable" dx=36 dy=0 dh=72 dv=0
Position2: "'cpsp' Capital Spacing in Latin lookup 0 subtable" dx=36 dy=0 dh=72 dv=0
EndChar

StartChar: Omega
Encoding: 8486 8486 409
AltUni2: 0003a9.ffffffff.0
Width: 1340
Flags: W
LayerCount: 2
Back
Fore
SplineSet
640 206 m 1,0,1
 783 245 783 245 868.5 398.5 c 128,-1,2
 954 552 954 552 987 863 c 1,3,-1
 993 942 l 1,4,-1
 993 993 l 1,5,6
 982 1264 982 1264 775 1272 c 0,7,8
 631 1277 631 1277 536 1167.5 c 128,-1,9
 441 1058 441 1058 410 864 c 128,-1,10
 379 670 379 670 376 552 c 0,11,12
 371 408 371 408 411.5 320.5 c 128,-1,13
 452 233 452 233 533 208 c 1,14,-1
 501 0 l 1,15,-1
 9 0 l 1,16,-1
 46 203 l 1,17,-1
 255 205 l 1,18,19
 94 475 94 475 131 749 c 2,20,-1
 144 842 l 2,21,22
 170 1026 170 1026 260 1173 c 128,-1,23
 350 1320 350 1320 487 1399.5 c 128,-1,24
 624 1479 624 1479 788 1475 c 0,25,26
 945 1471 945 1471 1057 1389 c 128,-1,27
 1169 1307 1169 1307 1220 1162 c 128,-1,28
 1271 1017 1271 1017 1250 849 c 1,29,-1
 1237 762 l 2,30,31
 1184 408 1184 408 918 199 c 1,32,-1
 1127 203 l 1,33,-1
 1091 0 l 1,34,-1
 608 0 l 1,35,-1
 640 206 l 1,0,1
EndSplineSet
Substitution2: "'c2sc' Capitals to Small Capitals in Cyrillic lookup 3 subtable" Omega.c2sc
Substitution2: "'c2sc' Capitals to Small Capitals in Greek lookup 2 subtable" Omega.c2sc
Substitution2: "'c2sc' Capitals to Small Capitals lookup 1 subtable" Omega.c2sc
Substitution2: "'c2sc' Capitals to Small Capitals in Latin lookup 0 subtable" Omega.c2sc
Position2: "'cpsp' Capital Spacing in Cyrillic lookup 3 subtable" dx=36 dy=0 dh=72 dv=0
Position2: "'cpsp' Capital Spacing in Greek lookup 2 subtable" dx=36 dy=0 dh=72 dv=0
Position2: "'cpsp' Capital Spacing lookup 1 subtable" dx=36 dy=0 dh=72 dv=0
Position2: "'cpsp' Capital Spacing in Latin lookup 0 subtable" dx=36 dy=0 dh=72 dv=0
EndChar

StartChar: alpha
Encoding: 945 945 417
Width: 1131
Flags: W
LayerCount: 2
Back
Fore
SplineSet
1075 1082 m 1,0,-1
 947 320 l 2,1,2
 940 268 940 268 942 242 c 0,3,4
 944 190 944 190 983 188 c 2,5,-1
 997 188 l 1,6,-1
 1010 191 l 1,7,-1
 1016 8 l 1,8,9
 963 -21 963 -21 899 -19 c 0,10,11
 821 -17 821 -17 774 25 c 128,-1,12
 727 67 727 67 714 142 c 1,13,14
 654 67 654 67 580 22.5 c 128,-1,15
 506 -22 506 -22 406 -20 c 0,16,17
 252 -18 252 -18 162 91.5 c 128,-1,18
 72 201 72 201 65 382 c 0,19,20
 62 443 62 443 68 503 c 2,21,-1
 71 524 l 2,22,23
 92 696 92 696 161.5 833.5 c 128,-1,24
 231 971 231 971 333 1038 c 128,-1,25
 435 1105 435 1105 563 1102 c 0,26,27
 736 1098 736 1098 821 949 c 1,28,-1
 870 1082 l 1,29,-1
 1075 1082 l 1,0,-1
306 498 m 2,30,31
 300 447 300 447 301 391 c 0,32,33
 303 291 303 291 347.5 233 c 128,-1,34
 392 175 392 175 474 173 c 0,35,36
 606 170 606 170 704 309 c 1,37,-1
 784 766 l 1,38,39
 737 903 737 903 610 907 c 0,40,41
 489 912 489 912 410 806.5 c 128,-1,42
 331 701 331 701 309 519 c 2,43,-1
 306 498 l 2,30,31
EndSplineSet
Substitution2: "'ss02' Style Set 2 in Cyrillic lookup 26 subtable" alpha.ss02
Substitution2: "'ss02' Style Set 2 in Greek lookup 25 subtable" alpha.ss02
Substitution2: "'ss02' Style Set 2 lookup 24 subtable" alpha.ss02
Substitution2: "'ss02' Style Set 2 in Latin lookup 23 subtable" alpha.ss02
EndChar

StartChar: beta
Encoding: 946 946 418
Width: 1195
Flags: W
LayerCount: 2
Back
Fore
SplineSet
731 1476 m 0,0,1
 915 1472 915 1472 1023 1365.5 c 128,-1,2
 1131 1259 1131 1259 1118 1090 c 0,3,4
 1104 895 1104 895 884 778 c 1,5,6
 978 732 978 732 1025 639 c 128,-1,7
 1072 546 1072 546 1064 429 c 0,8,9
 1054 296 1054 296 987 191.5 c 128,-1,10
 920 87 920 87 810.5 31.5 c 128,-1,11
 701 -24 701 -24 569 -21 c 0,12,13
 412 -17 412 -17 296 65 c 1,14,-1
 209 -393 l 1,15,-1
 -27 -393 l 1,16,-1
 220 1055 l 1,17,18
 236 1174 236 1174 309 1272 c 128,-1,19
 382 1370 382 1370 495 1424.5 c 128,-1,20
 608 1479 608 1479 731 1476 c 0,0,1
631 859 m 2,21,22
 736 861 736 861 801 919 c 128,-1,23
 866 977 866 977 877 1082 c 0,24,25
 886 1170 886 1170 842 1225 c 128,-1,26
 798 1280 798 1280 717 1284 c 0,27,28
 621 1286 621 1286 548.5 1222 c 128,-1,29
 476 1158 476 1158 458 1056 c 2,30,-1
 319 254 l 1,31,32
 393 174 393 174 538 172 c 0,33,34
 651 172 651 172 732.5 243.5 c 128,-1,35
 814 315 814 315 830 429 c 0,36,37
 844 530 844 530 799.5 600 c 128,-1,38
 755 670 755 670 667 675 c 1,39,-1
 535 676 l 1,40,-1
 561 860 l 1,41,-1
 631 859 l 2,21,22
EndSplineSet
EndChar

StartChar: gamma
Encoding: 947 947 419
Width: 1017
Flags: W
LayerCount: 2
Back
Fore
SplineSet
457 318 m 1,0,-1
 818 1082 l 1,1,-1
 1072 1082 l 1,2,-1
 527 28 l 1,3,-1
 449 -417 l 1,4,-1
 212 -417 l 1,5,-1
 295 61 l 1,6,-1
 119 1082 l 1,7,-1
 355 1082 l 1,8,-1
 457 318 l 1,0,-1
EndSplineSet
EndChar

StartChar: delta
Encoding: 948 948 420
Width: 1135
Flags: W
LayerCount: 2
Back
Fore
SplineSet
321 1250 m 0,0,1
 328 1399 328 1399 445.5 1485.5 c 128,-1,2
 563 1572 563 1572 740 1570 c 0,3,4
 848 1568 848 1568 1001 1519 c 1,5,-1
 980 1323 l 1,6,7
 848 1379 848 1379 742 1377 c 0,8,9
 666 1377 666 1377 612.5 1344.5 c 128,-1,10
 559 1312 559 1312 549 1257 c 0,11,12
 534 1180 534 1180 646 1125 c 2,13,-1
 690 1105 l 1,14,15
 1080 933 1080 933 1041 538 c 1,16,-1
 1038 518 l 2,17,18
 1018 361 1018 361 941.5 236 c 128,-1,19
 865 111 865 111 745.5 43 c 128,-1,20
 626 -25 626 -25 482 -21 c 0,21,22
 344 -17 344 -17 246 50.5 c 128,-1,23
 148 118 148 118 102 238.5 c 128,-1,24
 56 359 56 359 70 507 c 0,25,26
 88 697 88 697 197.5 824.5 c 128,-1,27
 307 952 307 952 465 980 c 1,28,-1
 465 995 l 1,29,30
 393 1034 393 1034 354.5 1101 c 128,-1,31
 316 1168 316 1168 321 1250 c 0,0,1
309 515 m 2,32,33
 303 462 303 462 306 403 c 0,34,35
 309 299 309 299 358.5 236.5 c 128,-1,36
 408 174 408 174 495 171 c 0,37,38
 614 168 614 168 696 262.5 c 128,-1,39
 778 357 778 357 806 545 c 1,40,41
 820 672 820 672 769 765.5 c 128,-1,42
 718 859 718 859 622 889 c 1,43,44
 500 886 500 886 417.5 793 c 128,-1,45
 335 700 335 700 311 530 c 2,46,-1
 309 515 l 2,32,33
EndSplineSet
EndChar

StartChar: epsilon
Encoding: 949 949 421
Width: 1096
Flags: W
LayerCount: 2
Back
Fore
SplineSet
47 297 m 0,0,1
 57 480 57 480 287 563 c 1,2,3
 226 596 226 596 186.5 650.5 c 128,-1,4
 147 705 147 705 149 777 c 0,5,6
 154 931 154 931 288.5 1018 c 128,-1,7
 423 1105 423 1105 629 1101 c 0,8,9
 807 1096 807 1096 916.5 1007 c 128,-1,10
 1026 918 1026 918 1026 774 c 1,11,-1
 793 775 l 1,12,13
 793 841 793 841 742.5 877 c 128,-1,14
 692 913 692 913 614 913 c 0,15,16
 525 915 525 915 458 875 c 128,-1,17
 391 835 391 835 381 767 c 0,18,19
 362 646 362 646 539 640 c 1,20,-1
 748 639 l 1,21,-1
 717 466 l 1,22,-1
 537 467 l 2,23,24
 427 467 427 467 361 424.5 c 128,-1,25
 295 382 295 382 286 308 c 0,26,27
 278 245 278 245 329.5 206 c 128,-1,28
 381 167 381 167 473 164 c 0,29,30
 563 162 563 162 634 204.5 c 128,-1,31
 705 247 705 247 719 321 c 1,32,-1
 957 321 l 1,33,34
 948 214 948 214 883 136 c 128,-1,35
 818 58 818 58 707.5 18 c 128,-1,36
 597 -22 597 -22 471 -20 c 0,37,38
 276 -16 276 -16 158 69 c 128,-1,39
 40 154 40 154 47 297 c 0,0,1
EndSplineSet
EndChar

StartChar: zeta
Encoding: 950 950 422
Width: 1029
Flags: W
LayerCount: 2
Back
Fore
SplineSet
1104 1456 m 1,0,-1
 1076 1300 l 1,1,-1
 586 797 l 1,2,3
 360 553 360 553 367 336 c 0,4,5
 370 242 370 242 463 206 c 2,6,-1
 639 145 l 2,7,8
 728 112 728 112 764.5 63.5 c 128,-1,9
 801 15 801 15 797 -58 c 0,10,11
 787 -223 787 -223 565 -387 c 1,12,-1
 443 -280 l 1,13,-1
 486 -233 l 2,14,15
 549 -161 549 -161 560 -103 c 0,16,17
 570 -48 570 -48 492 -20 c 2,18,-1
 375 16 l 1,19,20
 102 107 102 107 130 376 c 0,21,22
 144 514 144 514 229 663 c 128,-1,23
 314 812 314 812 491 990 c 2,24,-1
 767 1261 l 1,25,-1
 221 1261 l 1,26,-1
 255 1456 l 1,27,-1
 1104 1456 l 1,0,-1
EndSplineSet
EndChar

StartChar: eta
Encoding: 951 951 423
Width: 1135
Flags: W
LayerCount: 2
Back
Fore
SplineSet
421 1083 m 1,0,-1
 401 950 l 1,1,2
 539 1106 539 1106 720 1102 c 0,3,4
 881 1098 881 1098 955.5 992 c 128,-1,5
 1030 886 1030 886 1011 694 c 1,6,-1
 824 -415 l 1,7,-1
 587 -415 l 1,8,-1
 775 693 l 2,9,10
 780 737 780 737 777 776 c 0,11,12
 763 904 763 904 629 907 c 0,13,14
 493 911 493 911 392 786 c 1,15,-1
 255 0 l 1,16,-1
 17 0 l 1,17,-1
 205 1082 l 1,18,-1
 421 1083 l 1,0,-1
EndSplineSet
EndChar

StartChar: theta
Encoding: 952 952 424
Width: 1159
Flags: W
LayerCount: 2
Back
Fore
SplineSet
488 -20 m 0,0,1
 304 -16 304 -16 206 114.5 c 128,-1,2
 108 245 108 245 110 480 c 0,3,4
 110 555 110 555 119 626 c 2,5,-1
 150 830 l 2,6,7
 199 1152 199 1152 342 1316.5 c 128,-1,8
 485 1481 485 1481 708 1476 c 0,9,10
 893 1472 893 1472 990 1342 c 128,-1,11
 1087 1212 1087 1212 1086 981 c 0,12,13
 1085 906 1085 906 1076 835 c 2,14,-1
 1042 614 l 2,15,16
 990 299 990 299 849.5 137 c 128,-1,17
 709 -25 709 -25 488 -20 c 0,0,1
379 824 m 1,18,-1
 836 824 l 1,19,20
 857 955 857 955 857 1036 c 0,21,22
 852 1275 852 1275 693 1282 c 0,23,24
 476 1290 476 1290 401 940 c 1,25,-1
 379 824 l 1,18,-1
816 633 m 1,26,-1
 359 633 l 1,27,28
 338 502 338 502 339 427 c 0,29,30
 339 306 339 306 381 241 c 128,-1,31
 423 176 423 176 501 173 c 0,32,33
 715 161 715 161 793 517 c 1,34,-1
 816 633 l 1,26,-1
EndSplineSet
EndChar

StartChar: iota
Encoding: 953 953 425
Width: 672
Flags: W
LayerCount: 2
Back
Fore
SplineSet
491 1082 m 1,0,-1
 360 303 l 1,1,-1
 360 258 l 2,2,3
 363 194 363 194 438 191 c 0,4,5
 477 191 477 191 522 200 c 1,6,-1
 506 10 l 1,7,8
 432 -12 432 -12 357 -10 c 0,9,10
 233 -8 233 -8 171.5 73.5 c 128,-1,11
 110 155 110 155 123 292 c 1,12,-1
 254 1082 l 1,13,-1
 491 1082 l 1,0,-1
EndSplineSet
EndChar

StartChar: lambda
Encoding: 955 955 427
Width: 1106
Flags: W
LayerCount: 2
Back
Fore
SplineSet
409 1529 m 0,0,1
 593 1525 593 1525 641 1360 c 1,2,-1
 873 276 l 2,3,4
 881 245 881 245 896 218 c 128,-1,5
 911 191 911 191 947 186 c 1,6,-1
 965 186 l 1,7,-1
 982 187 l 1,8,-1
 969 -8 l 1,9,10
 927 -16 927 -16 885 -16 c 0,11,12
 790 -14 790 -14 733 37 c 128,-1,13
 676 88 676 88 647 195 c 1,14,-1
 542 711 l 1,15,-1
 180 0 l 1,16,-1
 -88 0 l 1,17,-1
 473 1053 l 1,18,-1
 427 1245 l 2,19,20
 416 1285 416 1285 395 1307.5 c 128,-1,21
 374 1330 374 1330 331 1332 c 2,22,-1
 304 1333 l 1,23,-1
 277 1332 l 1,24,-1
 291 1516 l 1,25,26
 353 1531 353 1531 409 1529 c 0,0,1
EndSplineSet
EndChar

StartChar: xi
Encoding: 958 958 430
Width: 1022
Flags: W
LayerCount: 2
Back
Fore
SplineSet
1006 1242 m 1,0,1
 883 1280 883 1280 795 1280 c 0,2,3
 671 1280 671 1280 595 1234.5 c 128,-1,4
 519 1189 519 1189 507 1111 c 0,5,6
 480 936 480 936 751 934 c 2,7,-1
 884 933 l 1,8,-1
 849 735 l 1,9,-1
 723 736 l 2,10,11
 551 736 551 736 445.5 659.5 c 128,-1,12
 340 583 340 583 322 441 c 0,13,14
 311 348 311 348 359.5 282.5 c 128,-1,15
 408 217 408 217 504 189 c 2,16,-1
 636 152 l 1,17,-1
 682 137 l 1,18,19
 851 77 851 77 843 -67 c 0,20,21
 838 -149 838 -149 778 -233.5 c 128,-1,22
 718 -318 718 -318 610 -395 c 1,23,-1
 482 -289 l 1,24,-1
 529 -240 l 2,25,26
 595 -168 595 -168 604 -107 c 0,27,28
 611 -57 611 -57 548 -32 c 2,29,-1
 506 -17 l 1,30,31
 346 34 346 34 280 69 c 0,32,33
 62 183 62 183 83 440 c 0,34,35
 93 581 93 581 185 682.5 c 128,-1,36
 277 784 277 784 448 840 c 1,37,38
 364 880 364 880 316 948.5 c 128,-1,39
 268 1017 268 1017 272 1105 c 0,40,41
 280 1279 280 1279 423.5 1378 c 128,-1,42
 567 1477 567 1477 786 1477 c 0,43,44
 926 1477 926 1477 1062 1431 c 1,45,-1
 1006 1242 l 1,0,1
EndSplineSet
EndChar

StartChar: pi
Encoding: 960 960 432
Width: 1239
Flags: W
LayerCount: 2
Back
Fore
SplineSet
1209 892 m 1,0,-1
 1054 892 l 1,1,-1
 955 304 l 2,2,3
 952 279 952 279 954 259 c 0,4,5
 960 194 960 194 1034 191 c 0,6,7
 1072 191 1072 191 1119 200 c 1,8,-1
 1102 10 l 1,9,10
 1033 -11 1033 -11 953 -11 c 0,11,12
 829 -9 829 -9 767.5 72.5 c 128,-1,13
 706 154 706 154 719 292 c 1,14,-1
 817 892 l 1,15,-1
 497 892 l 1,16,-1
 342 0 l 1,17,-1
 105 0 l 1,18,-1
 260 892 l 1,19,-1
 93 892 l 1,20,-1
 127 1082 l 1,21,-1
 1242 1082 l 1,22,-1
 1209 892 l 1,0,-1
EndSplineSet
EndChar

StartChar: rho
Encoding: 961 961 433
Width: 1135
Flags: W
LayerCount: 2
Back
Fore
SplineSet
117 574 m 2,0,1
 133 685 133 685 178.5 785.5 c 128,-1,2
 224 886 224 886 296 959 c 0,3,4
 440 1107 440 1107 648 1102 c 0,5,6
 824 1098 824 1098 924 981.5 c 128,-1,7
 1024 865 1024 865 1033 666 c 0,8,9
 1036 597 1036 597 1029 528 c 2,10,-1
 1016 445 l 1,11,12
 972 222 972 222 848.5 98 c 128,-1,13
 725 -26 725 -26 548 -21 c 0,14,15
 379 -17 379 -17 282 101 c 1,16,-1
 185 -416 l 1,17,-1
 -53 -416 l 1,18,-1
 117 574 l 2,0,1
310 287 m 1,19,20
 362 176 362 176 493 172 c 0,21,22
 610 169 610 169 689 258.5 c 128,-1,23
 768 348 768 348 789 507 c 1,24,25
 800 624 800 624 797 685 c 0,26,27
 789 798 789 798 746.5 852 c 128,-1,28
 704 906 704 906 626 909 c 0,29,30
 519 911 519 911 448 815.5 c 128,-1,31
 377 720 377 720 352 558 c 2,32,-1
 310 287 l 1,19,20
EndSplineSet
EndChar

StartChar: sigma1
Encoding: 962 962 434
Width: 1057
Flags: W
LayerCount: 2
Back
Fore
SplineSet
627 1102 m 0,0,1
 807 1098 807 1098 907.5 985.5 c 128,-1,2
 1008 873 1008 873 1000 693 c 1,3,-1
 778 694 l 1,4,5
 783 794 783 794 740.5 849 c 128,-1,6
 698 904 698 904 614 908 c 0,7,8
 499 911 499 911 418.5 815 c 128,-1,9
 338 719 338 719 316 556 c 2,10,-1
 312 521 l 2,11,12
 284 284 284 284 522 197 c 2,13,-1
 631 158 l 2,14,15
 791 97 791 97 784 -46 c 0,16,17
 781 -127 781 -127 719.5 -212.5 c 128,-1,18
 658 -298 658 -298 550 -375 c 1,19,-1
 429 -268 l 1,20,-1
 470 -224 l 2,21,22
 537 -150 537 -150 546 -87 c 0,23,24
 550 -54 550 -54 531.5 -34 c 128,-1,25
 513 -14 513 -14 455 2 c 0,26,27
 250 64 250 64 154.5 194 c 128,-1,28
 59 324 59 324 78 520 c 2,29,-1
 80 540 l 2,30,31
 109 798 109 798 261.5 952.5 c 128,-1,32
 414 1107 414 1107 627 1102 c 0,0,1
EndSplineSet
EndChar

StartChar: sigma
Encoding: 963 963 435
Width: 1143
Flags: W
LayerCount: 2
Back
Fore
SplineSet
1170 886 m 1,0,-1
 912 883 l 1,1,2
 1043 712 1043 712 1026 513 c 1,3,-1
 1023 491 l 2,4,5
 1007 346 1007 346 932 227.5 c 128,-1,6
 857 109 857 109 737.5 42.5 c 128,-1,7
 618 -24 618 -24 480 -20 c 0,8,9
 341 -18 341 -18 243 54 c 128,-1,10
 145 126 145 126 100.5 252 c 128,-1,11
 56 378 56 378 72 527 c 2,12,-1
 74 543 l 2,13,14
 108 794 108 794 260.5 938.5 c 128,-1,15
 413 1083 413 1083 635 1083 c 2,16,-1
 1206 1082 l 1,17,-1
 1170 886 l 1,0,-1
310 523 m 0,18,19
 304 469 304 469 306 408 c 0,20,21
 310 298 310 298 358 236 c 128,-1,22
 406 174 406 174 493 172 c 0,23,24
 604 169 604 169 682.5 255 c 128,-1,25
 761 341 761 341 789 506 c 2,26,-1
 796 553 l 2,27,28
 802 605 802 605 800 663 c 0,29,30
 795 765 795 765 748 824.5 c 128,-1,31
 701 884 701 884 616 887 c 0,32,33
 496 890 496 890 416 799 c 128,-1,34
 336 708 336 708 310 523 c 0,18,19
EndSplineSet
EndChar

StartChar: tau
Encoding: 964 964 436
Width: 1047
Flags: W
LayerCount: 2
Back
Fore
SplineSet
1025 889 m 1,0,-1
 676 889 l 1,1,-1
 575 296 l 1,2,-1
 573 256 l 2,3,4
 573 182 573 182 636 182 c 0,5,6
 669 181 669 181 730 202 c 1,7,-1
 751 22 l 1,8,9
 669 -21 669 -21 574 -19 c 0,10,11
 450 -17 450 -17 389 68.5 c 128,-1,12
 328 154 328 154 342 304 c 1,13,-1
 439 889 l 1,14,-1
 110 889 l 1,15,-1
 144 1082 l 1,16,-1
 1059 1082 l 1,17,-1
 1025 889 l 1,0,-1
EndSplineSet
EndChar

StartChar: upsilon
Encoding: 965 965 437
Width: 1096
Flags: W
LayerCount: 2
Back
Fore
SplineSet
447 1082 m 1,0,-1
 338 421 l 1,1,-1
 333 345 l 2,2,3
 331 269 331 269 360.5 221.5 c 128,-1,4
 390 174 390 174 447 172 c 0,5,6
 596 166 596 166 693.5 352 c 128,-1,7
 791 538 791 538 777 830 c 0,8,9
 771 959 771 959 738 1084 c 1,10,-1
 964 1083 l 1,11,12
 1022 914 1022 914 1011 699 c 0,13,14
 996 448 996 448 918.5 291 c 128,-1,15
 841 134 841 134 717 53.5 c 128,-1,16
 593 -27 593 -27 440 -23 c 0,17,18
 271 -20 271 -20 179 87.5 c 128,-1,19
 87 195 87 195 97 387 c 1,20,-1
 100 425 l 1,21,-1
 210 1082 l 1,22,-1
 447 1082 l 1,0,-1
EndSplineSet
EndChar

StartChar: phi
Encoding: 966 966 438
Width: 1453
Flags: W
LayerCount: 2
Back
Fore
SplineSet
506 -12 m 1,0,1
 268 23 268 23 154 193 c 0,2,3
 50 349 50 349 75 573 c 0,4,5
 94 733 94 733 171.5 865.5 c 128,-1,6
 249 998 249 998 383 1089 c 1,7,-1
 519 939 l 1,8,9
 406 835 406 835 351 701 c 128,-1,10
 296 567 296 567 308 442 c 0,11,12
 318 343 318 343 374.5 276 c 128,-1,13
 431 209 431 209 527 183 c 1,14,-1
 640 828 l 1,15,16
 654 945 654 945 737 1018.5 c 128,-1,17
 820 1092 820 1092 943 1090 c 0,18,19
 1078 1088 1078 1088 1182.5 1016 c 128,-1,20
 1287 944 1287 944 1338 821.5 c 128,-1,21
 1389 699 1389 699 1375 558 c 0,22,23
 1349 314 1349 314 1180.5 162.5 c 128,-1,24
 1012 11 1012 11 743 -15 c 1,25,-1
 656 -478 l 1,26,-1
 419 -478 l 1,27,-1
 506 -12 l 1,0,1
769 179 m 1,28,29
 942 215 942 215 1043 335.5 c 128,-1,30
 1144 456 1144 456 1142 627 c 0,31,32
 1139 756 1139 756 1087.5 828 c 128,-1,33
 1036 900 1036 900 950 894 c 0,34,35
 896 890 896 890 884 836 c 2,36,-1
 769 179 l 1,28,29
EndSplineSet
EndChar

StartChar: psi
Encoding: 968 968 440
Width: 1447
Flags: W
LayerCount: 2
Back
Fore
SplineSet
926 1082 m 1,0,-1
 763 180 l 1,1,2
 909 214 909 214 1004.5 305.5 c 128,-1,3
 1100 397 1100 397 1134 532 c 128,-1,4
 1168 667 1168 667 1156 838 c 0,5,6
 1147 964 1147 964 1112 1084 c 1,7,-1
 1334 1082 l 1,8,9
 1377 964 1377 964 1387 837 c 0,10,11
 1418 393 1418 393 1179 168 c 0,12,13
 1010 9 1010 9 742 -16 c 1,14,-1
 655 -478 l 1,15,-1
 418 -478 l 1,16,-1
 505 -12 l 1,17,18
 280 22 280 22 171.5 184 c 128,-1,19
 63 346 63 346 95 593 c 1,20,-1
 177 1082 l 1,21,-1
 414 1082 l 1,22,-1
 332 590 l 2,23,24
 323 524 323 524 326 460 c 0,25,26
 329 353 329 353 380.5 282 c 128,-1,27
 432 211 432 211 527 183 c 1,28,-1
 689 1082 l 1,29,-1
 926 1082 l 1,0,-1
EndSplineSet
EndChar

StartChar: omega
Encoding: 969 969 441
Width: 1643
Flags: W
LayerCount: 2
Back
Fore
SplineSet
552 1081 m 1,0,-1
 470 929 l 2,1,2
 391 780 391 780 356 664 c 128,-1,3
 321 548 321 548 318 417 c 0,4,5
 315 298 315 298 348.5 236.5 c 128,-1,6
 382 175 382 175 443 172 c 0,7,8
 534 166 534 166 596.5 246 c 128,-1,9
 659 326 659 326 678 479 c 1,10,-1
 731 805 l 1,11,-1
 976 805 l 1,12,-1
 924 479 l 2,13,14
 915 404 915 404 918 355 c 2,15,-1
 920 328 l 1,16,17
 936 176 936 176 1050 173 c 0,18,19
 1136 169 1136 169 1196.5 253.5 c 128,-1,20
 1257 338 1257 338 1285 508 c 2,21,-1
 1295 572 l 2,22,23
 1312 702 1312 702 1300 832 c 0,24,25
 1288 961 1288 961 1243 1085 c 1,26,-1
 1469 1082 l 1,27,28
 1521 962 1521 962 1533 832 c 0,29,30
 1552 611 1552 611 1495 399.5 c 128,-1,31
 1438 188 1438 188 1323 81.5 c 128,-1,32
 1208 -25 1208 -25 1044 -21 c 0,33,34
 938 -19 938 -19 862 41 c 128,-1,35
 786 101 786 101 762 202 c 1,36,37
 629 -28 629 -28 418 -21 c 0,38,39
 256 -17 256 -17 170 99.5 c 128,-1,40
 84 216 84 216 86 431 c 0,41,42
 86 782 86 782 308 1081 c 1,43,-1
 552 1081 l 1,0,-1
EndSplineSet
EndChar

